<?xml version="1.0" encoding="UTF-8"?>
<svg version="1.1" viewBox="0 0 1600 1065" width="1280" height="1280" xmlns="http://www.w3.org/2000/svg">
<path transform="translate(0)" d="m0 0h1600v1065h-1600z" fill="#FD981D"/>
<path transform="translate(0)" d="m0 0h830l-4 18-5 15-5 18-6 19-5 18-7 23-3 11-3 8-5 17-13 42-8 27-18 58-16 52-22 75-17 56-31 104-19 62-3 12-2 7h193l-1 8-5 18-10 40-5 22-15 60-9 39-14 56-11 46-6 23-6 26-5 19-8 34-4 15-4 17h-728z" fill="#BD342B"/>
<path transform="translate(1114)" d="m0 0h486v1065h-251v-3l-10-1 5-7 6-4h2l-1-5-5-2h-2l-1-4-9-3v-2h-3v-3h-9v-2l-3-1 1-3-2-2 7-3v-3l5-5 6-4v-2h-4l-1-4 2-2 1-2 32-2 3-12v-22l-2-19h-21l-17 1-2-5 4-4 7-1h21v2l5-1 11 4-2-5-6-7-4-4v-2l-4-1-6-7h-8l-5-6-4-2v-5l-2-1v-5l-1-2 1-8-1-5-4-17v-4l2-4-3-1v-4h2l-1-7h-2v-2l-5-1-3-5-2-7-1-3-4-2-6-8-8-2-5-4-8 1-5-5-1-4h5l1-1 12-1 1-2 11-2-30-1-7-2-1-7 1-7 4-1h40l-2-2 3-2v-4l-5-1-5 2v-1l-16 1-1-5-5-2v-1h-23l-2-1h-22v-17l1 2 3-1h8l4 2v3h2v9h2l-1-10-2-2 4-1 1 10v-10l45-1 2-1v2h13l4-3v-1l9-1v-2h-2l-1-3 2-3-5-1 2-1v-2h-4v-13l5-1v3l-1 1 5 2 1-5 4-1-2 12h2l1-12h3l1 6 1-3 1-4h2l1 2 4-1 4-2-11-4-12-3-3 7-3-3 1-6-4-2 5-4 1-2-2-1 3-9-2-4-2-1v-2h-3v-2l-5-2-6-4-5-5-2-1v-2l-11 2v-2l-7-2-1-3 5-4-5-1-1-5-3-1 1-6 3-2 4-21 1-2 16 1-3 3h-11l-2 11 7-1v4h-9v10l8 1 1-1h5 4l9-12-1-5-3-8 1-3 2 1 3 10h2l6-8 5-4h2l-1 4-3 3 1 7h2v10l4 8 6 1 6-3v-4l4-1 3-7-2-5-1-3h3l-3-6-3-2v-3l-8 1v-2l7-1-1-4-8-4-5 1-13-4v-1l20 1 7 3-2-6-4-2-3-1-1-3-3-1h-12v2l-5 2-6-4v-5l-10-2 4 14-5-5-4-6-7-1-1 3-3 1-2-3-4-4 1-5 1-2 5-1 14-1 2-4 1 4 25 1 1-10 6-28 4-21 1-2h2l-4-42-3 9-13 62-4 19h-23l1-10 11-54 1-6h-8v16l-4 10-3 5-10 8h-2l10 30-25 1-3-8-3-9-4-8h-4l-6 25h-22v-9l7-32 3-17 2-11-3 1-2 3-2 12-4 9-4 6-8 6-2 2 7 24v6l-4-1-1 1h-19l-1-1-3-15-4-9v-2l-5-1-5 26-1 2h-22l-1-3 6-30 2-9h-3v-10l1-14v-9l-1-7-4-1-2 3-9 1 5 47 2 14 1 17h-24l-1-3v-9l-25 1-7 12h-24l2-6 18-35 17-32 10-20 7-7 14-3h8l2 1v-2l-8-2v-2l2-1 2-3 6 2-4-11-4-8-7-5 1-9-1-5h-3l1-5 1-8 5-3-1-4-3-3 3-4v-6l-1-1v-12l-2-7-3-2v-3h2l-2-5v-11l2-6-2-1 2-10 4-4 2-5-4-1v-3l-2-1 1-3 2-1 1-10h-3v-2h-2l1-5 2-3h2v-2l-7-2v-6l3-4-2-4-2-3 1-9 4-6-3-1-1-2v-7l1-4-1-5 1-15-1-4v-10l-1-8 1-8-1-13-1-19 1-6v-13l2-6v-14l-1-5v-2l1-1-3-3 1-6-2-4-3-1-1-5 3-3-1-8h-2v-5h2l-1-10 2-8v-6l3-5v-7l1-3h-2v-3h-2l3-6-3 1-3-1v-7l-6 1-2 4-6 10-6 5-7 8-8 10-12 19-9 17-6 8-6 7-2 2 1-5 10-19 12-20 6-11 5-8 6-11 6-9 6-7 5-12z" fill="#FDBA07"/>
<path transform="translate(830)" d="m0 0h284l-1 7-6 12-8 9-7 12-4 8-7 11-2 4-13 23-9 17-4 10-11 18-9 15-10 17-8 14-6 12-6 10-13 22-17 28-12 20-19 32-3 6h-2l-1 5-10 17h-2l-1 5-14 24-17 29-12 20-15 26-6 11h51l133 1 6 2 19 1 3 5h6l5-2 3 1-1 4h-2l-1 5h-2l-2 7-17 28-12 21-14 24-12 21-17 29-10 16-14 24-1 3h-2l-2 6-6 11h-2l-2 5-11 20-12 20-12 21-14 24-17 29-12 21-14 24-12 21-15 25-4 7 2 1v-2l4-3h2l2-4 4-5 7-1h3v2h2l1-3 2-1h7l-1 2h4l1 7 5 1 5 6-1 2 4 1-4 9v14l-2 5-2 10v5l-2 7v12l-4 24v9l-1 4v13l-1 3-1 20v13l1 3 1 11 1 9 1 11-3 4h-2l1 4 2 4h-153l1-9 4-15 4-16 7-30 9-35 6-26 7-28 13-54 9-36 9-37 10-40 5-21 6-26 6-24 5-18 2-8h-193v-6l2-4 3-12 22-72 19-64 16-53 9-30 20-68 12-39 17-55 10-32 6-21 12-39 7-24 3-8 5-18 7-22 6-22 5-15 5-18z" fill="#FEAC11"/>
<path transform="translate(1114)" d="m0 0h206l2 1v2l-6 1-10 2-6 1 1 4 5 1h4l1-3 2 1v2h2l1 5 7 4 1 3-1 1 4 3 2 2-5 5-4 2 4 3-1 12 2 1-2 7-1 6 4 2 1 5-2 2 1 13-1 4 1 13-1 6v11l-3 1v2h2l1 7-1 9-2 4h2l-2 8 1 3h2l1 15 3 3 4 12 5 5-1 4 2 6h2l3 5 1 5 1 1 10 2-1 15-2 4-6 3h-6l1 3h-2l3 8v9l-5-1h-8l-7 1-4-1 2 4h7v-2l3-2 6 1 1 2 7 2v2h-2l-2 6-9 3-3 6-1 4h-3v2h-2l-1 2v-9l1-7h-2l-1 10-4 19-4 1-2-5 1-10 1-6v-9l-8 11-4 6h-2l-3-10-2-7-7 29-1 4 1 2-1 2-5 3-1 4-2 5 1 5 7 1h14l7-1 2 1v2l10 1 10 4 5 5 1 6h6l1 2 4 66 1 10 7-17 11-23 8-19 8-16 5-2 2 16 4 60 5-12 8-16 11-23 4-9 4-10 3-5 6 1-2 9-7 15-9 19-12 26-8 16-4 7h-5l-1-1-5-71-11 23-13 28-9 21h-5l-2-3-2-16-3-52h-42l-4-1v8l-2 10-1 2h25v10h-19l-19-1-4 25v7l40 1v10h-9v2h13l5 1v3l3 1 1 3 8-4-1 6 2 1 1-2v4h5l2 4 8 4 3 4-1 3 19 2 3 40v9h2l3-10 8-16 11-23h25l-1 5-23 46-10 19-12 22h-22l-1-1-5-52-4-37-3 9-13 62-4 19h-23l1-10 11-54 1-6h-8v16l-4 10-3 5-10 8h-2l10 30-25 1-3-8-3-9-4-8h-4l-6 25h-22v-9l7-32 3-17 2-11-3 1-2 3-2 12-4 9-4 6-8 6-2 2 7 24v6l-4-1-1 1h-19l-1-1-3-15-4-9v-2l-5-1-5 26-1 2h-22l-1-3 6-30 2-9h-3v-10l1-14v-9l-1-7-4-1-2 3-9 1 5 47 2 14 1 17h-24l-1-3v-9l-25 1-7 12h-24l2-6 18-35 17-32 10-20 7-7 14-3h8l2 1v-2l-8-2v-2l2-1 2-3 6 2-4-11-4-8-7-5 1-9-1-5h-3l1-5 1-8 5-3-1-4-3-3 3-4v-6l-1-1v-12l-2-7-3-2v-3h2l-2-5v-11l2-6-2-1 2-10 4-4 2-5-4-1v-3l-2-1 1-3 2-1 1-10h-3v-2h-2l1-5 2-3h2v-2l-7-2v-6l3-4-2-4-2-3 1-9 4-6-3-1-1-2v-7l1-4-1-5 1-15-1-4v-10l-1-8 1-8-1-13-1-19 1-6v-13l2-6v-14l-1-5v-2l1-1-3-3 1-6-2-4-3-1-1-5 3-3-1-8h-2v-5h2l-1-10 2-8v-6l3-5v-7l1-3h-2v-3h-2l3-6-3 1-3-1v-7l-6 1-2 4-6 10-6 5-7 8-8 10-12 19-9 17-6 8-6 7-2 2 1-5 10-19 12-20 6-11 5-8 6-11 6-9 6-7 5-12z" fill="#FDAC12"/>
<path transform="translate(1341,469)" d="m0 0h1l3 31v13h-2l-5 28-7 33h-26l-1-1v1l-20 1-1 7 4 3 2 3 2-2 1-2 7 1 8 11-3-7v-6h7l4 2v5l5 3 5-1v-2l2-1h10l4 2v3l4 1 5 5 1 4-6-2-2-1-17-1 10 3 6-1 8 5v4l-7 1 1 1h7v3l4 2 2 6h-3l3 4 1 5-1 4h-2l-1 3-3 1-1 4-6 3-7-2-4-8v-8l1-2h-2l-2-4 1-4 3-3 1-3-8 6-5 8-3-2-3-10-1 2 4 10-1 4-8 11-4 2-1-1h-5l-2 1-7-1-1-1v-7l1-3 9-1v-2h-7v-8l2-4h12l1-1-12-1-3-1-4 23-4 2v6l3 3v3l7 1-5 4-1 3 7 2 1 1 10-1v2l5 2 2 4 5 2 6 4v2h3v2l4 2 1 3-2 7v3l-2 5-3 1 3 2v6l1 2 3-6 2-1 13 4 11 3-4 3h-2l-1 2-4-1v-2l-2 1-1 7-2-1v-6h-3v9l-1 3h-2l1-11h-3l-1 5-6-1v-2h2v-3l-4 1-1 13 5-1v4l2 1-1 6h2v2l-2 1 1 2-8 1 2 2-19-1h-2-45l1 2v10l-2-2v-10l-1 1 1 13-4-1 1-9h-2l-1-3-3-1h-11l-1 15h22l1-2 1 2h26v2l4 3-1 4 10-2h7l3 1 1-2 5 2 1 4-2 3 1 2h-42l-1 10-2-3 1 7 9 1 33 1v1l-10 2-7 1 1 2-14 1-4 1-2-1 2 4 5 4 7-1 7 5 7 2 7 9 5 5 2 7 4 4 2 1v2h2l2 4-2 5v2l2 1-1 4-2 3 2 1 4 19-1 2 2 1-1 9 1 1v5l2 6 5 3 3 3v2l8-1 7 8 3 1 12 14 1 5-6-2-7-2-5-1h-24l-5 3-1 2 1 4 4-1 13-1h11l10 1 2 8 1 11v22l-2 9-4 4-30 2 1 2-3 2v3l4-1v4l-6 4-3 4h-2l1 4-7 2 2 3-1 2 4 2 7 1v3h3v2h5l5 5v2l4-1 5 5-1 3-8 5-3 5 8 2v3h-222v-3l-6-1 2-5 4-3 2-6 5-6-4-7v-7l2-1-1-6h-2l4-10-6-10 1-16 2-7v-7l-2-6 3-10v-8l-1-4 2-12 1-2h-2l-1-17-2-5-1-29 1-11 2-6v-35l-2-7 1-5 5-4 3-8-2-1 2-1-3-2-7 4 1-8 2-1 4 1 3-1h4l-1-6 3-8 1-1v-4l-4-1 3-4 1-5-4 1-3-3 2-3h2v2l4 2v-3l1-13h6l-3 3-1 10h2v2h2l1-11 2-4 6-2 1-4 7-3-2-5v-3l-3-1 2-2 1-10h-4l1 7-2 4-4-1-1-11-5-1-6-2-2 2-10-3-4-5v-5l6-2 2-1v-6l-6-15-1-2-1 5-3 1-2-4-2-9 2-12 2-7 6-3 1-5 6 1 1-6 1-9 6-9 3-4-5-1-6 3 1-5 2-3-8 1 3-3-3-2h2l-1-4-2-5-2-1-4-18 2-3 7 1 5 1 18-2h28l2-13 4-1 1-6h1l1 7h19 3l2 1-4-16-4-15 8-6 5-5 4-8 2-7 1-8 3-6 1 2h2v7l-3 15-6 29-2 9-1 9h22l2-11 3-14 4-2 4 5 4 10 3 11 24-1-9-26v-3l8-6 4-2 6-15 1-16h8l-1 12-12 58h23l1-9 13-63 4-16z" fill="#FDAC12"/>
<path transform="translate(837,14)" d="m0 0h258l-2 6-11 20-15 25-15 27-18 30-12 21-14 24-6 12-2 3h-2l-2 5-9 15-6 11-13 22-14 25-15 25-11 19-9 15-17 29-15 25-12 21-7 12h-2l-1 5-8 13-15 27-2 4h-2v3h11l12 1 6 3v4l-7 4 1 2-6 7-3 1h-10v2l-8-2-6-4-10-17-8-17 1-6v-4l-4-2v-10l-4-1-3-2-6-2-1-4 1-3h-3l-1-7 1-9 2-3v-8l-1-4 1-6-1-6 3-13 2-4v-9l3-7 1-21 3-17v-7l1-3 1-11 1-3v-11l-1-2v-11l1-2v-10l-4-3h-5v-2h2v-2l-6 2h-5l-3-14v-11l6-29 11-44 18-65 13-44z" fill="#FE981C"/>
<path transform="translate(981,212)" d="m0 0 1 2-5 13v9l-7 15-2 6-17 29-10 16-2 5h-2l-1 5-10 17h-2l-1 5-14 24-17 29-12 20-15 26-6 11h51l133 1 6 2 19 1 3 5h6l5-2 3 1-1 4h-2l-1 5h-2l-2 7-17 28-12 21-14 24-12 21-17 29-10 16-14 24-1 3h-2l-2 6-6 11h-2l-2 5-11 20-12 20-12 21-14 24-17 29-12 21-14 24-12 21-15 25-4 7 2 1v-2l4-3h2l2-4 4-5 7-1h3v2h2l1-3 2-1h7l-1 2h4l1 7 5 1 5 6-1 2 4 1-4 9v14l-2 5-2 10v5l-2 7v12l-4 24v9l-1 4v13l-1 3-1 20v13l1 3 1 11 1 9 1 11-3 4h-2l1 4 2 4h-153l1-9 4-15 4-16 7-30 9-35 6-26 7-28 13-54 9-36 9-37 10-40 5-21 6-26 6-24 5-18 2-8h-193v-6l3-6 3 4 2 2 3-1 3-4h8l7 2h14l16-2h59l22 1h30l9 1 9-1h16l-1 9-7 31-28 114-23 94-17 73-7 28-2 11 13-23 17-29 9-15 15-26 10-18 14-24 15-28 8-16 17-32 14-24 9-15 15-23 16-24 18-30 13-22 14-23 24-40 15-26 10-18 16-27 19-32 9-16 1-3h-33l-55 4h-62l-23-2-56-3 2-6 13-24 11-18 1-3h2l2-5 10-18 29-49 17-29 8-13 14-24 15-26 11-19z" fill="#FE8449"/>
<path transform="translate(100,773)" d="m0 0h230l8 6 8 9 4 7 2 5 1 8v14l-5 15-7 10-6 5-6 3h-231l-7-3-10-9-5-11-3-12v-12l3-12 4-8 9-10 7-4z" fill="#FDAC13"/>
<path transform="translate(981,212)" d="m0 0 1 2-5 13v9l-7 15-2 6-17 29-10 16-2 5h-2l-1 5-10 17h-2l-1 5-14 24-17 29-12 20-15 26-6 11h51l133 1 6 2 19 1 3 5h6l5-2 3 1-1 4h-2l-1 5h-2l-2 7-17 28-12 21-14 24-12 21-17 29-10 16-14 24-1 3h-2l-2 6-6 11h-2l-2 5-11 20-12 20-12 21-14 24-17 29-12 21-14 24-12 21-15 25-10 17-16 27-12 21-12 20-28 49-15 26-16 27-8 16h-1v-8l4-15 4-16 7-30 9-35 6-26 7-28 13-54 9-36 9-37 10-40 5-21 6-26 6-24 5-18 2-8h-193v-6l3-6 3 4 2 2 3-1 3-4h8l7 2h14l16-2h59l22 1h30l9 1 9-1h16l-1 9-7 31-28 114-23 94-17 73-7 28-2 11 13-23 17-29 9-15 15-26 10-18 14-24 15-28 8-16 17-32 14-24 9-15 15-23 16-24 18-30 13-22 14-23 24-40 15-26 10-18 16-27 19-32 9-16 1-3h-33l-55 4h-62l-23-2-56-3 2-6 13-24 11-18 1-3h2l2-5 10-18 29-49 17-29 8-13 14-24 15-26 11-19z" fill="#FECB2D"/>
<path transform="translate(334,253)" d="m0 0h36l1 1 11 96 5 42v9h-39l-1-1-1-19-39 1-8 17-2 2h-128l1-8 13-63 13-64 2-10 1-1h37l-1 9-10 49-5 24-4 20 49 1v7l-6 27v4l10-20 10-19 18-35 12-22 12-23 11-22z" fill="#FDFDFB"/>
<path transform="translate(830)" d="m0 0h284l-1 7-6 12-8 9-7 12-4 8-7 11-2 4-13 23-9 17-4 10-11 18-9 15-10 17-8 14-6 12-6 10-13 22-17 28-4 5 1-5 6-13v-10l5-12 3-8 9-16 5-8h2l2-5 7-14 12-20 9-16 10-17 7-11 6-11 10-18 13-22 11-19 8-15h-258l-3 11-16 55-19 70-5 21-6 27h-2l-1 10-6 44-4 25-2 22v9l-2 15-4 15-2 9-3 7-2 2 1 3-7 20-7 13-3 1-1 3-5 3-2-1 1-2-4 2-2 5-7 11-4 7-9 26-12 35h-2l-2 10-5 18-12 35-14 47-9 29-1 4 2 2 165 1h22l1 5-2 4-1-4h-15l-11 1-14-1h-30l-24-1h-51l-16 2h-13l-7-2h-8l-3 4-4 1-4-7 1-7 20-65 28-94 17-56 22-75 12-39 17-55 10-32 6-21 12-39 7-24 3-8 5-18 7-22 6-22 5-15 5-18z" fill="#FDB907"/>
<path transform="translate(701,487)" d="m0 0h2l1 3-1 15-3 10-2 18-5 21-2 16h2l2 12 5 11 4 3 23 2-2 2 5 1v-2l7-1 31-1 15 1 18 3h13l8 1 3-2 5 3 12 4 8 6 6 7 1 2v11l-2 14-3 22-4 14-4 16-2 7-2 6-4 17-8 36-2 15 1 3 1 18 2 8 2-2 1 2v9l-2 15-3 5v9l6-4 9-13 4-1 2 1-1 5-13 24-14 24-10 18-15 26-19 32-14 24-5 9-2 1 2-12 13-53 14-60 20-82 14-57 16-66 6-26h2v-8h-37l-150-1-3-3 8-26 6-21 13-42 12-35 1-2h2l1-6z" fill="#FE981C"/>
<path transform="translate(777,697)" d="m0 0h16l7 4v2l7 2 1 4-1 9h-2l-1 8-3 12-3 16-4 11-3 5-3 14-3 8-1 8-3 6-8 4-1 3h-2l-2 4-3-1-3 7-10 6h-2l-1 5-6 7-2-1 1-7h-2l-1 3h-2l-1 3-7 4v2l-3-1-2-4-1 1h-8l-1-2-11-2-4 1-6-1-1-7h-4v2l-4 2v-6l-2-2-3-4 2-7-3-2-2-5h-2l-4-6-6-2v-6l2-3 1-1-4-1 2-3v-2l-2-2 1-4 2-1v-6l-6-1-1-3h-2v-2l3-3v-5l4 1v-6l-3-1-2 3h-2l-2-7h3l2-4h2v-6h2v-3l9-7 6-3 4-1 3-3h7l11-5 6-1 2 1 9-5 6-1 9-3 7-3 10-1 7-1 1-1h6l2-1 7-1z" fill="#EA3427"/>
<path transform="translate(522,254)" d="m0 0h37l-5 25-5 24-1 3h34l1-10 7-34 2-7h38l-7 35-5 24-5 25-5 24-7 35-1 3h-38l2-12 8-39 1-2h-34l-1 10-7 36-2 7h-37l-1-3 8-37 7-34 5-25 9-44z" fill="#FDFCFA"/>
<path transform="translate(447,252)" d="m0 0h19l13 3 16 8 5 5 5 4-1 5-11 18-8 12-8-6-10-6-10-3h-11v8l9 6 12 5 12 8 7 7 6 12 1 5v16l-2 10-5 12-8 10-8 6-12 5-3 1h-25l-16-5-13-8-10-9-2-2v-5l20-30 7 6 5 4 9 6 12 3h8l4-4-1-5-9-6-16-8-10-7-7-8-4-10-1-6v-13l3-13 6-11 9-10 7-5 10-4z" fill="#FDFCF9"/>
<path transform="translate(1050,511)" d="m0 0h2v6l-1 5-3 12 1 15-3 14-4 8-2 12-4 12-2 4-2 8-8 18-8 15-2 4-3 3-10 22-2 3-14 26-8 13-6 12h-2v3h-2l-1 4-3 3-2 5-3 3-7 11-7 8-5 9-4 6-1 3-3 1-5 10-6 5-1 2h-2l-4 8-4 1-4 5-3 5-5 1v2l-5 1v3l-5-2 1-5 8-16-1-4-3 4h-2v3h-2l-2 4-7 11-12 16-3 6-6 8h-2l-2 5-4 6-1-2 17-29 14-24 13-23 17-29 15-26 10-17 15-26 9-15 9-16h2l1-4 7-13h2l1-5 13-22 8-13 17-28 9-17 10-17 11-19z" fill="#E5762E"/>
<path transform="translate(1e3 595)" d="m0 0 1 2-17 29-4 8h-2l-2 6-6 11h-2l-2 5-11 20-12 20-12 21-14 24-17 29-12 21-14 24-12 21-15 25-10 17-16 27-12 21-12 20-28 49-15 26-16 27-8 16h-1v-8l4-15 4-16 7-30 9-35 6-26 7-28 13-54 9-36 9-37 10-40 5-21 6-26 6-24 5-18 2-8h-193v-6l3-6 3 4 2 2 3-1 3-4h8l7 2h14l16-2h59l22 1h30l9 1 9-1h16l-1 9-7 31-28 114-23 94-17 73-7 28-2 11 13-23 17-29 9-15 15-26 10-18 14-24 15-28 6-9 8-7 5-6 10-15 7-12 5-9 6-10 10-15 17-28 12-20 10-17 33-55 11-18 8-11z" fill="#FCCE6D"/>
<path transform="translate(98,255)" d="m0 0h92l-1 10-6 27-2 5h-49l-6-1-1 8-2 11h31l20 1-1 9-3 13-3 14-1 1h-52l-1 10-7 34-2 4h-36l1-10 24-117 4-18z" fill="#FDFDFA"/>
<path transform="translate(100,773)" d="m0 0h230l8 6 8 9 4 7 2 5 1 8v14l-2 1-4 11-4 7h-2v2l-8 6-8 3-23 2h-8l-11-1-15-1-2-1h-6v-2l-4 1-15-1-5-1 2-2-4-4 2-3-3-1h-6l3-6 4-1v-3l5-1 4 2 2 3h2l1-4 5-3 2-3v-11l-3-6-5-1-5 2-4 8-2-1-1-9-4 1v13l-4-5-4-8h-3l-1 7-5 6-5-1v-2l2-1 3-14-1-3 2-1 1-5-11 2-7-1-5-3-15-1-10-4v-2l9-3 14-3 24-1-115-1z" fill="#FD981E"/>
<path transform="translate(1051,458)" d="m0 0h17l-1 5-13 23-15 25-13 22-12 21-13 23-21 35-17 28-15 25-13 22-10 16-8 11-3 4-4-1 1-5 5-15-1-8 6-12 5-16 12-19 9-19 5-10 7-11 11-24 6-14 3-3 1-6 7-16 4-5 4-10 2-9-1-15-5-10-2-2v-6l1-2h3l-2-8v-2l1-6 5-2 27-3z" fill="#FE981C"/>
<path transform="translate(199,255)" d="m0 0h37l-1 9-10 49-5 24-4 20 49 1v7l-7 30-2 4 10 1v1h-97l1-8 13-63 13-64 2-10z" fill="#FDFDFA"/>
<path transform="translate(247,446)" d="m0 0h13l4 27 15 107 1 13h-13l-3-20-2-18h-56l-5-1-1 5-17 32-2 2h-13l1-5 13-23 12-23 10-18 9-16 13-24 16-29z" fill="#FDFAF2"/>
<path transform="translate(782,188)" d="m0 0 3 1v8l-2 6-4 20-3 12-4 18-5 15-3 13-4 10-4 15-4 16-7 23-4 11-15 42-10 29-16 44-6 16-6 12-6 16-5 17-2 12-5 10-5 16-9 27-5 23-2 5v8 3l-4 1-4-7 1-7 20-65 28-94 17-56 22-75 12-39 17-55 10-32 1-5 2 1-1 9-2 5h2l7-18z" fill="#FEC82D"/>
<path transform="translate(1245,468)" d="m0 0 33 1 13 3 7 6 4 9 1 5v15l-4 10-3 5-10 8h-2l10 30-25 1-3-8-3-9-4-8h-4l-6 25h-22v-9l7-32 3-17z" fill="#FDFDFC"/>
<path transform="translate(1174,469)" d="m0 0h32l13 3 6 4 5 8 2 8v16l-4 9-4 6-8 6-2 2 7 24v6l-4-1-1 1h-19l-1-1-3-15-4-9v-2l-5-1-5 26-1 2h-22l-1-3 6-30 11-51 1-7z" fill="#FDFDFC"/>
<path transform="translate(424,447)" d="m0 0h80l-1 9-3 7h-66l-2 13-7 33-1 3h59l-1 12-1 3-60 1-7 36-3 14h67l-1 8-2 7h-80l2-15 25-122z" fill="#FDFAF2"/>
<path transform="translate(1120,467)" d="m0 0 8 1h13l2 1 8 68 1 6 1 17h-24l-1-3v-9l-25 1-7 12h-24l2-6 18-35 17-32 10-20z" fill="#FDFDFC"/>
<path transform="translate(1437,468)" d="m0 0h24l8 65 3 27h-25l-2-11-22-1-2-1-2 7-4 7h-24l1-5 18-35 10-18 9-19z" fill="#FDFDFC"/>
<path transform="translate(96,774)" d="m0 0h53v1l-21 2-7 2-13 2v3l-4 2 14 3 8 5 3 3 5 1 2 11 2-3 2 9 6 2 1 3-1 2h-8l3 3 5 1-1 2h-2v2l-5 2h-10v2l-2 1h-14l-1 4-7 4 2 2 27 2 8 1 42 2 50 2-2 2-20 1h-113l-7-3-10-9-5-11-3-12v-12l3-12 4-8 9-10z" fill="#FDB907"/>
<path transform="translate(131,445)" d="m0 0h12l14 4 10 7 8 8 1 5-6 7-3 3-7-8-7-6-11-4h-9l-9 2-8 6-5 10v15l4 6 13 9 12 6 11 8 7 8 4 9 1 5v11l-3 12-5 10-7 8-10 6-9 3h-18l-13-4-11-8-7-7-4-6v-5l5-4 2-3 4 2 8 10 9 6 9 3h12l9-2 6-4 5-6 3-7v-13l-4-8-9-7-21-12-10-9-5-7-3-9v-15l4-13 7-10 9-7 10-4z" fill="#FDFBF6"/>
<path transform="translate(1342,469)" d="m0 0h25l3 40v9h2l3-10 8-16 11-23h25l-1 5-23 46-10 19-12 22h-22l-1-1-5-52-3-25z" fill="#FDFDFC"/>
<path transform="translate(1011,184)" d="m0 0 1 2-8 16-13 23-12 22-8 15-4 8v3h-2l-1 10h-2l-2 5-5 10-3 1-1 6h-2l1 3-5 10-2 8-5 11-5 10-5 12-4 7-4 11-5 15-5 13-3 10-1 8h-2l-2 10-3 9v1l-16 1h-24l2-6 16-28 17-28 15-26 14-24 1-3h2l2-5 8-14 1-3h2l2-6 17-29 12-20 14-23 12-20 11-19z" fill="#E5752E"/>
<path transform="translate(1050,511)" d="m0 0h2v6l-1 5-3 12 1 15-3 14-4 8-2 12-4 12-2 4-2 8-8 18-8 15-2 4-3 3-10 22-2 3-14 26-8 13-6 12h-2v3h-2l-1 4-3 3-2 5-3 3-7 11-7 8-5 9-4 6-1 3-3 1-2 2v-2h-2l2-5 10-16 9-14 3-5 1-4 2-5h2l1-4 3-5h2l2-5 3-9 3-5 8-16 14-30 1-7 4-10 5-14 3-16 7-19 5-10 2-5 2-7 2-10 15-26 11-19z" fill="#E6832B"/>
<path transform="translate(1288,365)" d="m0 0 46 1 1 2 3 50v17l-1 2-4-1-4-10-4 4 2 5v10l-4 3-4-1v-3l-2-1v-3h-10l-8-1v-2l8-1v-7l1-2h-40l-1-1 1-14 3-16 1-2h19l19 1v-10h-25z" fill="#FDAC12"/>
<path transform="translate(1e3 595)" d="m0 0 1 2-17 29-4 8h-2l-2 6-6 11h-2l-2 5-11 20-12 20-12 21-14 24-17 29-12 21-14 24-12 21-15 25-10 17-16 27-12 21-12 20-16 28-9 15-4 3-1-3 4-7 1-4h2l2-5 5-12 2-5-1-4v-3l14-24 15-26 10-18 14-24 15-28 6-9 8-7 5-6 10-15 7-12 5-9 6-10 10-15 17-28 12-20 10-17 33-55 11-18 8-11z" fill="#FDE46C"/>
<path transform="translate(1492,469)" d="m0 0h11l12 1-5 28-5 27-2 10 3-1 27 1-2 14-2 12h-24l-31-1 2-15 9-43z" fill="#FDFDFC"/>
<path transform="translate(1419,469)" d="m0 0 1 4 5 1 1 3-6 4h10l-1 5-8 17-12 22-17 33-1 3 24-1 4-7 2-6 24 1 2 4v9l-13 1-3 1-5 10-3 1h-22l-2-2v-1l-9 1-6-1-1 4h-19l-6-2-3-2v-2h-3l-1-6-4-1-4-10-2-16 4-4 1-4h2l3 32h22l18-35 14-27 13-26z" fill="#FC9820"/>
<path transform="translate(329,446)" d="m0 0 12 1-2 14-5 24-13 65-6 28h62l-2 13-2 2h-74l1-10 7-36 6-28 13-63 2-9z" fill="#FDFAF3"/>
<path transform="translate(1383,343)" d="m0 0h2l2 16 4 60 5-12 8-16 11-23 4-9 4-10 3-5 6 1-2 9-7 15-9 19-12 26-8 16-4 7h-5l-1-1-5-71-11 23-13 28-9 21h-5l-2-3-2-16-3-50-1-10v-14h8l4 66 1 10 7-17 11-23 8-19 8-16z" fill="#FDF8EB"/>
<path transform="translate(1341,469)" d="m0 0h1l3 31v13h-2l-5 28-7 33h-26l-1-1v1h-28l-1-12h-6v-1l6-1 18-1-9-26v-3l8-6 4-2 6-15 1-16h8l-1 12-12 58h23l1-9 13-63 4-16z" fill="#FC9920"/>
<path transform="translate(1316,469)" d="m0 0h23l-1 11-13 62-4 19h-23l1-10 11-54 5-27z" fill="#FDFDFC"/>
<path transform="translate(641,630)" d="m0 0 3 4 2 2 3-1 3-4h8l7 2h14l16-2h59l22 1h30l9 1 9-1h16l-1 9-1 6h-3l-4 8-2-1v-12h-193v-6z" fill="#FCCD6C"/>
<path transform="translate(1199,343)" d="m0 0 2 2h3l16 42 11 28v2h2l2-13 11-53 2-8 6 2-1 10-9 47-7 30-3 5-4-2-4-8-13-36-7-17-4-10 1-2-2 1-10 45-6 28h-6v-7l15-74 3-11z" fill="#FDF8EC"/>
<path transform="translate(249,466)" d="m0 0 2 4 9 64v5l-49 1 2-7 12-22 14-26 8-15z" fill="#BD342B"/>
<path transform="translate(1274,344)" d="m0 0h49l1 2-1 7h-43l-1 11-4 21h35v10h-19l-19-1-4 25v7l40 1v8l-1 1h-26l-25-1 12-58 5-26z" fill="#FEFEEE"/>
<path transform="translate(1289,942)" d="m0 0h21l5 3 1 3v47l-1 2h-11v-21h5v-8h-5v-9h6v-8l-9 2-2 3-1 10-1 2h-4l-1 8h5v21h-16l-5-2v-50l3-2z" fill="#DB4D32"/>
<path transform="translate(1236,490)" d="m0 0 1 2h2v7l-3 15-6 29-2 9-1 9h22l2-11 3-14 4-2 4 5 4 10-1 5h-2l-2 19-7 1h-48l-1-13 11-1h3l2 1-4-16-4-15 8-6 5-5 4-8 2-7 1-8z" fill="#FD9920"/>
<path transform="translate(695,485)" d="m0 0 1 4-3 9-3 12-12 35-14 47-9 29-1 4 2 2 165 1h22l1 5-2 4-1-4h-15l-11 1-14-1h-30l-24-1h-51l-16 2h-13l-7-2h-8l-3 2-1-1v-8l4-13 3-15 9-27 5-16 6-13 2-13 8-24 7-15z" fill="#FEB708"/>
<path transform="translate(1245,468)" d="m0 0 33 1 13 3 7 6 4 9 1 5v15l-4 10-3 5-4 2 1-4 4-10 1-14-4-10-5-3-7 2-4 2-7-3v-4l7-3-1-4-2-2-15-1-2 6 5 5-1 4-3 3-12-1-4 1v18l-4 14-1 17 5 4 3 6h6l-2 11-1 3h-22v-9l7-32 3-17z" fill="#FEFEEE"/>
<path transform="translate(1346,942)" d="m0 0h11l6 2 3 2v7l1 1v23l-2 5-3-1v-11l-7 11-5 4-3 1h-7l-4-2h-5l-1 11h-1v-50l4-2z" fill="#DC4F33"/>
<path transform="translate(1234,948)" d="m0 0h19l5 5 2 5v26l-5 7-2 1h-21l-5-5-2-9v-21l4-6z" fill="#EA5D39"/>
<path transform="translate(1120,467)" d="m0 0 8 1h13l2 1 1 13-1-3h-2v-2h-4l-2 4-3-1-2-5-4-1-7 1-2 6-8 13-5 13-7 16-1 5v7l4 8 3 2h12l7-3-1-3-3-2-1-9-3-1 3-9 5-13h2l3 27v7l-1 4 2 5-25 1-7 12h-24l2-6 18-35 17-32 10-20z" fill="#FEFEEE"/>
<path transform="translate(1531,547)" d="m0 0h10l1 1-1 13-2 13h-80l-3-1v-11h-8v-1h33l1 5 1-5h46l1-12z" fill="#FC971D"/>
<path transform="translate(1352,347)" d="m0 0 5 1-3 9-4 4h6l4-6 11-6 7-2-1 5-11 25-18 40-2 4h-1l-3-42v-22h6l1-6z" fill="#FDAC13"/>
<path transform="translate(1480,525)" d="m0 0 4 2 1 1 2 15v12l2 1h6l5-10 3-8 3-4 27 1-2 14-2 12h-24l-31-1 2-15z" fill="#FEFEEE"/>
<path transform="translate(1426,344)" d="m0 0 6 1-2 9-7 15-9 19-12 26-8 16-4 7h-5l-1-1-4-57v-13l3 2 4-1 2 21 2 31 5-12 8-16 11-23 4-9 4-10z" fill="#FDF7EA"/>
<path transform="translate(1379,364)" d="m0 0h1l1 15v18l-3 4-10 24-8 16-5 8-1 1h-5l-2-6v-6l-2-1 9-21 18-38z" fill="#FD981E"/>
<path transform="translate(1336,268)" d="m0 0 7 2 2 2v3l4-2 1 1 4-5h8l5 3v2l-7-2h-5l-1 7 10 9v6l-3 6-4 2h-5l-5-4v-8h-2l-1-2-1 8-4 5h-7l-6-2-2-2-4 1-1-1-2 3h-2l5-27 1-4h2v14h2v-2h3l1-7 4-5z" fill="#FDBC13"/>
<path transform="translate(1174,469)" d="m0 0h32v1l-17 1-8 5-2 5-2 10-1 14-5 13-1 2-1 9v10l5 7 5 2 1 6-2 7h-22l-1-3 6-30 11-51 1-7z" fill="#FEFEEF"/>
<path transform="translate(1259,356)" d="m0 0h5l1 4-12 60-7 29-2 1-3-1v-2h-3l-4-9 3-10 8-36 2-7 1 2 4-4 6-26z" fill="#FD991E"/>
<path transform="translate(1248,343)" d="m0 0 6 2-1 10-9 47-7 30-3 5-4-2-4-8-13-36v-2l7 2 3 3 8 21v2h2l2-13 11-53z" fill="#FDF8EC"/>
<path transform="translate(1156,477)" d="m0 0 4 1 2 8v11l-1 20-1 2h3l-1 9-6 30-2 2-2-1-1-16-5-40-1-9v-12l8-2z" fill="#FD9A21"/>
<path transform="translate(1394,469)" d="m0 0h25l-1 5-9 18h-2l-4 4-8 5-3 4-5-1-2-2-6 11-2 2h-4l3-9 8-16z" fill="#FEFEEE"/>
<path transform="translate(1272,394)" d="m0 0h19l20 1 2 2h8l-1 10-37 1-2-1-1 9-2 10h-11l1-14 3-16z" fill="#FD981C"/>
<path transform="translate(1437,357)" d="m0 0h4v5l-4 7-3 9-17 37-12 25-5 7h-2v4h-5l-1-19 7-14 3-5h1v9l-3 7-1 8 10-23 16-33 10-21z" fill="#FD971E"/>
<path transform="translate(1362,943)" d="m0 0h5l2 8 1 11v22l-2 9-4 4h-31l-3-1v-47h1v35l6-1 3 2h7l6-3 6-9 4-4v12l2 1 1-5v-23l-1-3 1-5-4-2z" fill="#D84A31"/>
<path transform="translate(1437,468)" d="m0 0 17 1 1 2-4 4-4 6-8 5-5 4-3 3-2 6h5l9 6 1 22-5 1h-7v-15l-5-2v-9l-5 1-1 3h-2l2-6 9-17z" fill="#FEFDEA"/>
<path transform="translate(1421,547)" d="m0 0 24 1 2 4v9l-13 1-3 1-5 10-3 1h-22l-2-2 5-10 11-1 4-8z" fill="#FD9A20"/>
<path transform="translate(1230,943)" d="m0 0h28l3 4 2 6v37l-4 6-6 1h-22l-5-2-3-4-1-8v-30l3-7zm4 5-5 3-4 6v21l2 9 5 5h21l5-5 2-3v-26l-3-7-4-3z" fill="#C1392C"/>
<path transform="translate(1256,534)" d="m0 0 4 2 5 9 1 8-3 1-2 19-7 1h-20l-2-1-1-11 3-1h15l2-11 3-14z" fill="#FD981E"/>
<path transform="translate(1333,344)" d="m0 0h8l4 66 1 10 1 2-2 4h-3l1 7 3 4h-5l-2-3-2-16-3-50-1-10z" fill="#FDF8EC"/>
<path transform="translate(1192,494)" d="m0 0h11l5 5 3 2 4 10 1 7-3 6 3 5-2 2-1 3h-8l-3-3-1-8 2-6-13-3-2-2 1-8z" fill="#FEFEEE"/>
<path transform="translate(1035,457)" d="m0 0 16 1v1l-27 1-21 2-17 1-26 5-20 4h-17l-12-3-6-5-9-3v-1l22 1h62z" fill="#FEB907"/>
<path transform="translate(1367,470)" d="m0 0 17 2 7-2 1 5-8 17-8 16-4 10h-2l-3-36z" fill="#FDAD16"/>
<path transform="translate(1513,480)" d="m0 0 7 1 4 1-1 10-7 36-2 6-11 1 2-17 7-36z" fill="#FC971F"/>
<path transform="translate(1201,269)" d="m0 0h7l4 2 4 8-1 9-4 8-6 5h-7l-5-4-3-8 1-8 4-8z" fill="#FDBB0F"/>
<path transform="translate(1154,615)" d="m0 0 6 1 5 5 1 3v8l-3 9-5 6-2 1h-6l-5-3-3-5-1-9 3-8 5-6z" fill="#FDAF1C"/>
<path transform="translate(1391,269)" d="m0 0h8l5 5 1 4v9l-4 8-6 6-7 1-6-7-2-9 3-10 5-5z" fill="#FDBC10"/>
<path transform="translate(918,341)" d="m0 0 1 2-13 25-10 19-9 21-7 13-6 21 4 1-19 1 2-6 16-28 17-28 15-26z" fill="#BD342B"/>
<path transform="translate(1344,615)" d="m0 0h7l5 4 1 5h-3l3 4 1 5-1 4h-2l-1 3-3 1-1 4-6 3-7-2-4-8v-8l3-7 6-7z" fill="#FDBA0F"/>
<path transform="translate(436,640)" d="m0 0h10l6 7v11l-5 9-4 4h-7l-6-5-2-4v-10l5-9z" fill="#BF372C"/>
<path transform="translate(1434,352)" d="m0 0 2 3 1 4-8 15-11 23-14 30-4 10-2 1 1-9 1-5h2v-12l8-18 4-8 8-17 6-13 5-3z" fill="#FDB90C"/>
<path transform="translate(1465,481)" d="m0 0h6l3 27 1 6 1 16 3 1-1 10-2 8-1 9h-4l-8-66v-10z" fill="#FC9923"/>
<path transform="translate(261,181)" d="m0 0h7l5 7v13l-5 8-2 2-9 1-3-2v-2h-2l-2-5v-9l3-7 4-5z" fill="#BF372A"/>
<path transform="translate(1293,268)" d="m0 0h1l2 8 2 6v4h2l2-5 7-9 4-4v10l-4 18-3 6-5 1-4-2h-4l-5 1h-4l4-17 4-16z" fill="#FDB11F"/>
<path transform="translate(1172,269)" d="m0 0 9 1 5 6v10l-3 8-5 5-3 1h-12l1-11 4-17 1-2z" fill="#FDAF1C"/>
<path transform="translate(1351,955)" d="m0 0h9l3 1-1 9-2 8-6 9-4 3-3 1h-7l-2-2v-3h4l-4-10-1-14 4 1 4 4 4 1z" fill="#FDFCF8"/>
<path transform="translate(1257,352)" d="m0 0h8l8 1-1 9-11 54-2-1-5 12-3 6h-1l1-9 8-38 5-26v-3l-6-1-2-2z" fill="#FDBB0F"/>
<path transform="translate(1268,436)" d="m0 0 9 2h22l18 2v9h-49l-1-1v-10z" fill="#FD971D"/>
<path transform="translate(1175,615)" d="m0 0h3l9 24 2-9 3-14 4-1h8l-1 8-3 22 4-1 7-1-1 4h-14l-1-9-4 1-2 8-3-1-9-23-5 19-2 6h-2l5-25z" fill="#FDA228"/>
<path transform="translate(1336,268)" d="m0 0 7 2 2 2v3l-4-2-6-2-2 3-1 7 5 2 5 4v10l-3 4h-7l-6-2-2-2-4 1-1-1-2 3h-2l5-27 1-4h2v14h2v-2h3l1-7 4-5z" fill="#FDBB16"/>
<path transform="translate(1409,745)" d="m0 0h6l5 3v2h3v3h3l1-4 3-1 3 1 2-4h9l-1 2 2 2v6l-2 3-3 1h-7l-5-1h-7-3l-1-2-5 3-1-1h-18l1-7 1-2 5 1 1-3 5 2 1-2h2z" fill="#FECB2D"/>
<path transform="translate(1274,344)" d="m0 0h49l1 2-1 7h-43v5l-4 1h-4z" fill="#FCF7EA"/>
<path transform="translate(1201,362)" d="m0 0h2l1 5 4 9-2 13-5 30-7 31-4-1-1-5 8-35 4-20v-5l-2 1-2-1-1 5-1-4 5-22z" fill="#FC9E2A"/>
<path transform="translate(975,250)" d="m0 0 2 1-8 16-2 5-2 1-1 10h-2l-2 5-5 10-3 1-1 6h-2l1 3-5 10-2 8-5 11-5 10-5 12-3 4h-2l3-12 4-8 4-14 5-12h2l1-5 13-26 2-5h2l1-4 4-8h2l2-5 4-9z" fill="#E6832C"/>
<path transform="translate(256,640)" d="m0 0h6l4 4 1 9-3 11-5 6-6 1-5-6-1-2v-11l4-8z" fill="#BF372B"/>
<path transform="translate(1316,469)" d="m0 0h23l-1 11-2 9-8 2-2 2h-4l-5-8h-4l2-15z" fill="#FEFEEE"/>
<path transform="translate(1234,948)" d="m0 0h19l5 5 2 5v26l-5 7-2 1h-21l-5-5-2-9v-21l4-6zm-1 4-4 5-1 3v19l4 8 1 1h19l5-7v-17l-2-9-4-3z" fill="#FCF1DD"/>
<path transform="translate(1342,357)" d="m0 0h7l2 17 1 25 1 6-6 15-2 1-3-42z" fill="#FD9B23"/>
<path transform="translate(1193,371)" d="m0 0h5l-1 10-10 47-2 8h-6v-7l11-55z" fill="#FEFDEE"/>
<path transform="translate(1332,357)" d="m0 0 2 1v8h-42l-4-1v8l-2 10-1 2-3-1h2v-17l1-8 1-1z" fill="#FD971D"/>
<path transform="translate(1323,346)" d="m0 0h1v8l8 3v1l-46 1-2 25-2 1h-7l2-16 3-16h43z" fill="#FDB421"/>
<path transform="translate(1303,531)" d="m0 0 6 9 14 9-2 12h-23l1-10z" fill="#FEFEEE"/>
<path transform="translate(1404,533)" d="m0 0 2 2-1 9h7l9 3-2 7-4 7h-24l1-5z" fill="#FEFDEB"/>
<path transform="translate(1303,491)" d="m0 0h8l-1 12-6 28-3 1h-3l-2 2-2 3-6 1-3-2-1-6 8-6 4-2 6-15z" fill="#E98B31"/>
<path transform="translate(1379,364)" d="m0 0h1v12l-3 6-5 15-11 22-5 12-3 1 1-4h-2l-1-5 19-41 8-17z" fill="#FDB90F"/>
<path transform="translate(1387,358)" d="m0 0h8l1 28v13l2 1 1 2-7 17-2 1-3-47z" fill="#FD9D26"/>
<path transform="translate(1304,951)" d="m0 0h6v8h-6v9h5v8h-5v21l-1 1h-5l-1-11v-11h-5v-6l1-2h4l1-12 3-4z" fill="#FDFCF7"/>
<path transform="translate(1215,743)" d="m0 0h14l1 1v9l2 4-2 3h-25v-16z" fill="#FDBB0D"/>
<path transform="translate(1075,443)" d="m0 0h15l-4 10-2 1v-2l-9 2-5-1-2-4-19-1-6-2-133-1v-1z" fill="#FEB907"/>
<path transform="translate(1313,955)" d="m0 0 2 2 1 21v17l-1 2h-11v-21h5v-8h-5v-9h6v-3z" fill="#DC4E32"/>
<path transform="translate(1441,269)" d="m0 0h11l4 4v10l-3 4-4 2 3 9-1 3-2-1-4-10-5-1-3 10-3 1 2-13 3-16z" fill="#FDF7E8"/>
<path transform="translate(1238,958)" d="m0 0h9l4 5 1 2v10l-4 6-1 1h-9l-3-3-2-4v-10l3-6z" fill="#FCF4E2"/>
<path transform="translate(307,181)" d="m0 0h9l5 3 1 2v6l-5 7 1 12h-3l-3-9-1-1h-7v7h-2l-1 4h-2l1-6 1-1 2-14 3-9z" fill="#FABD5B"/>
<path transform="translate(1208,470)" d="m0 0 8 1 8 4 4 5 3 7 1 5v16l-4 9-4 6-4 2-1-4 3-3 5-19v-7l-3-4v-2l-6-2-8-9z" fill="#FEFEEE"/>
<path transform="translate(376,640)" d="m0 0h10l5 5v7l-3 4h-2v2h-2l2 6v6l-2-1-3-8-2-2-4-1-3 11h-2v-7l2-9 2-8z" fill="#FAAF50"/>
<path transform="translate(340,313)" d="m0 0h1l3 29v4h-20l2-5 11-23z" fill="#BD342B"/>
<path transform="translate(180,803)" d="m0 0 7 1 3 4 1 8-2 7-5 3-7-1-4-7v-8l3-5z" fill="#FDF8EC"/>
<path transform="translate(247,803)" d="m0 0 6 2 3 6v7l-2 5-5 3-7-1-4-8 1-8 4-5z" fill="#FEFCED"/>
<path transform="translate(1236,490)" d="m0 0 1 2h2v7l-3 15-3 16-2 1-1-2-4 3-3 2-6-2-4-2 8-6 5-5 4-8 2-7 1-8z" fill="#E88A31"/>
<path transform="translate(1192,494)" d="m0 0h11l5 5 1 6-2 4-7 4h-11l-1-5z" fill="#E88930"/>
<path transform="translate(1122,505)" d="m0 0h2l3 27v7l-1 4 1 4h-23v-1l11-1 7-3-1-3-3-2-1-9-3-1 3-9z" fill="#FEFEEE"/>
<path transform="translate(1362,389)" d="m0 0h4l-1 6-16 34-3 7-3-1-2-5 1-4h3l3-12 11-23z" fill="#FEFEEE"/>
<path transform="translate(1238,743)" d="m0 0 1 2 3-1h8l4 2v3h2v9h2l-1-10-2-2 4-1 1 15h-22z" fill="#FEB807"/>
<path transform="translate(1264,494)" d="m0 0 12 1 3 3 1 5-4 7-5 3h-11l-1-3 4-14z" fill="#FD9B22"/>
<path transform="translate(170,393)" d="m0 0 1 4 81 1 3 1 11 1v1h-97z" fill="#FCE9C1"/>
<path transform="translate(1273,381)" d="m0 0 2 1v3h35v10h-19l-9-1v-6l1-2h-9z" fill="#FDF8EC"/>
<path transform="translate(406,640)" d="m0 0 3 1 2 8 1 11 1 2v8h-3l-1-7h-13l-2 5-3 2 1-5 6-10 7-14z" fill="#F78A28"/>
<path transform="translate(1368,482)" d="m0 0h9l1 3-1 7v2l4 1-1 5-8 18h-2l-2-21z" fill="#FA9825"/>
<path transform="translate(1216,542)" d="m0 0 2 3 3 10v6l-4-1-1 1h-19l-1-1-1-9 16-1z" fill="#FEFEEE"/>
<path transform="translate(679,638)" d="m0 0 12 1 25 1 115 1v1h-192v-1l32-2z" fill="#FD971D"/>
<path transform="translate(108,181)" d="m0 0 3 1 7 18 1 1 4-19 4-1-2 13-3 16-4 1-8-20-1-1-4 20h-4l6-28z" fill="#FDF1D7"/>
<path transform="translate(85,640)" d="m0 0h10l4 5v2l-4-1-2-2h-6l-5 5-2 6 1 9 3 2h6l3-9-6 1 1-5h9v7l-4 9-3 2h-6l-6-4-2-4v-10l5-10z" fill="#FDF3E1"/>
<path transform="translate(1229,966)" d="m0 0 3 1 3 9 3 5h9l4-6 2-7h1l1 7h1v8l-4 5h-19l-4-6z" fill="#DF5A38"/>
<path transform="translate(85,181)" d="m0 0h8l5 4 2 5v7l-4 10-5 4-2 1h-6l-5-5-2-4v-11l6-9zm2 3-5 4-3 6v7l3 6 2 1h6l4-5 2-4v-10l-4-5z" fill="#FDEBCF"/>
<path transform="translate(436,640)" d="m0 0h10l6 7v11l-5 9-4 4h-7l-6-5-2-4v-10l5-9zm2 3-5 6-2 4v8l4 6h7l3-3 3-6v-11l-4-4z" fill="#FDE8CA"/>
<path transform="translate(1346,528)" d="m0 0h2l3 32 10 1-1 13-5-3v-2h-3l-1-6-4-1-4-10-2-16 4-4z" fill="#FDB11F"/>
<path transform="translate(1381,396)" d="m0 0h1l2 29v9l-4-2-3-6v-2l-3-1v-3l-3-2 3-9 4-10z" fill="#FDBC18"/>
<path transform="translate(1209,357)" d="m0 0 4 1 3 1 5 13 7 19v6l-4 1-5-11-10-26z" fill="#FC9A23"/>
<path transform="translate(1492,469)" d="m0 0h11l6 1v2l-4 1 1 10-4 4-7-1-5-3 1-10z" fill="#FEFEEF"/>
<path transform="translate(269,803)" d="m0 0h3l4 14 2-4 2-9 3-1-1 9-4 14h-3l-3-9v-2l-3 3-2 8-4-1-4-16v-5l3 1 3 13z" fill="#FDF8EC"/>
<path transform="translate(106,640)" d="m0 0h16l-1 4h-12l-3 9h11v4h-12v9h11l-1 5-15-1 1-11 4-17z" fill="#FDEDD0"/>
<path transform="translate(177,640)" d="m0 0h2l-1 10-1 3h12l2-11 4-2-2 14-4 16h-3l1-9 1-4h-11l-4 13h-2l1-11 3-14z" fill="#FDFCF6"/>
<path transform="translate(1434,352)" d="m0 0 2 3 1 4-8 15-8 17-1-4-2-1 1-5 4-5-1-2-1-3 4-8 3-7 5-3z" fill="#FDAE16"/>
<path transform="translate(202,640)" d="m0 0h15v3l-13 1-2 9h11l-1 4h-12v9h11l-1 5h-11l-4-1 1-10 4-17z" fill="#FDF2E0"/>
<path transform="translate(1203,400)" d="m0 0 1 2-6 31-4 17-4-1-1-5 8-35 3-8z" fill="#FE981D"/>
<path transform="translate(1270,488)" d="m0 0 7 2 5 6 1 8-3 7-11 9-5-1-3-6 10-1 4-2 4-7-2-6-1-1-11-1-2 1-1-4 4-3z" fill="#FEFDEB"/>
<path transform="translate(1175,615)" d="m0 0h3l9 24 2-9 3-14 3-1-1 9-5 23-3-1-9-23-5 19-2 6h-2l5-25z" fill="#FDF9ED"/>
<path transform="translate(1234,614)" d="m0 0 2 2 6 16 2 6 2 1 1-9 3-13 1-2h2l-1 9-6 23h-2l-7-18-2-6h-1l-5 24-2 1 1-12 5-21z" fill="#FDFBED"/>
<path transform="translate(1374,355)" d="m0 0v3l-7 17-10 22-2-4 1-13 6-11 7-11z" fill="#FDBD13"/>
<path transform="translate(1293,268)" d="m0 0h1l2 8 2 6v4h2l2-5 7-9 4-4v10l-4 18-3 5-1-3 3-12 1-7-5 5-5 8h-2l-3-12v-3h-2l-1 8-4 15-2 1 2-11 5-21z" fill="#FDF9ED"/>
<path transform="translate(1198,744)" d="m0 0h4v16l-2 5h-6l3-2-3-1v-2h-5l-1-5v-9l1-1z" fill="#FEB907"/>
<path transform="translate(261,181)" d="m0 0h7l5 7v13l-5 8-2 2-9 1-3-2v-2h-2l-2-5v-9l3-7 4-5zm1 2-7 6-2 5v10l4 4h6l6-5 1-3v-12l-4-5z" fill="#F9B04C"/>
<path transform="translate(1154,615)" d="m0 0 6 1 5 5 1 3v8l-3 9-5 6-2 1h-6l-5-3-3-5-1-9 3-8 5-6zm0 3-5 3-4 6-1 3v7l3 6 4 2 6-1 5-7 1-3v-9l-4-6z" fill="#FDF8EC"/>
<path transform="translate(802,793)" d="m0 0h1l-1 9-23 95-5 22-2 1 1-9 7-30 5-21 4-15 6-25 6-24z" fill="#FDE06D"/>
<path transform="translate(1363,615)" d="m0 0h2l-1 9v12l4-3 4 1-2 9h4v3l-2 1h-15l1-8 4-23z" fill="#FDBE1D"/>
<path transform="translate(1201,269)" d="m0 0h7l4 2 4 8-1 9-4 8-6 5h-7l-5-4-3-8 1-8 4-8zm2 2-5 3-4 6-1 10 3 6 5 3 5-2 5-6 2-6-1-8-4-5z" fill="#FDF8EC"/>
<path transform="translate(282,181)" d="m0 0h2l-1 9-2 16 8 1 4-7 3-16 2-3h2l-1 9-2 11h-2l-1 5-4 6h-7l-5-4-1-2 1-13 3-11z" fill="#F78F21"/>
<path transform="translate(1150,537)" d="m0 0h1l1 6 1 17h-24l-1-3v-7l4 2 4 4h8l4-3-3-3h-5l-2-2 1-4 5 1h3l2-3z" fill="#FEFDEE"/>
<path transform="translate(230,181)" d="m0 0h2l-1 11-1 2 12-1 3-11 2-1v7l-4 20-1 3h-3l1-5 1-8h-12l-1 9-1 4h-3l2-15z" fill="#F8A329"/>
<path transform="translate(312,640)" d="m0 0h15l-1 4-4-1-8 1-2 9h12l-1 4h-13l-1 9h13l-1 4h-15v-7l3-11z" fill="#FCB055"/>
<path transform="translate(1224,269)" d="m0 0h3l6 15 3 9 3-14 2-10 2 1-3 21-3 10-2-1-10-26-2 15-3 10h-2l1-8 3-16z" fill="#FDF8EB"/>
<path transform="translate(1208,360)" d="m0 0 2 1 12 31-1 3-1-4-5-1-3-2-7-16v-7l3-1z" fill="#FEFEEE"/>
<path transform="translate(198,803)" d="m0 0 7 1 3 3v8l-4 4h-6l1 6-4 1v-22z" fill="#FDF8EC"/>
<path transform="translate(1391,269)" d="m0 0h8l5 5 1 4v9l-4 8-6 6-7 1-6-7-2-9 3-10 5-5zm1 2-7 6-2 5v9l3 5 4 4 4-1 6-7 2-4v-11l-4-6z" fill="#FDFAEC"/>
<path transform="translate(1172,269)" d="m0 0 9 1 5 6v10l-3 8-5 5-3 1h-12l1-11 4-17 1-2zm-1 3-3 9-2 10v6l6 1 7-3 4-7 1-8-3-6-2-2z" fill="#FDF8EC"/>
<path transform="translate(1465,615)" d="m0 0 17 1-1 3-14 1-2 11 6-1h7l-4 3-10 1-2 10 8-1 6 1v2l-2 1h-15l1-11 4-20z" fill="#FDF7EA"/>
<path transform="translate(1342,469)" d="m0 0h22l1 2h-7l-7 2-4 2 2 4-1 7-1 20-2 2-3-25z" fill="#FEFDEE"/>
<path transform="translate(1238,614)" d="m0 0 6 1-1 4 3-1 1-2-2-1 5-1 1 3-5 22-3-1-5-15-2-4v-4z" fill="#FDB225"/>
<path transform="translate(1203,271)" d="m0 0 5 1 4 5 1 8-3 8-4 2h-4l1-3h2v-4h2l-3-8-3-1-6 2 1-5 4-4z" fill="#FDAF1B"/>
<path transform="translate(1411,615)" d="m0 0h8l3 3v4l-5-2-5-1-3 1 1 7 9 6 1 1v8l-4 5-8 1-3-1-3-4v-5l4 4v2l6 1 4-4v-5l-5-4-5-3v-7l2-5z" fill="#FDF6E1"/>
<path transform="translate(1371,616)" d="m0 0 5 2 1 11 1 6-2 5-6 2 1-8-4 1-4 2v-8l5-3 2-9z" fill="#FEAC12"/>
<path transform="translate(1103,548)" d="m0 0h25v12l-3-1v-2l-6-2h-11l-7 1-2 1 2-6z" fill="#EA8A2D"/>
<path transform="translate(1080,544)" d="m0 0 3 1v2h8l-1 5-4 1h-6l4 4h6l7-2 1 3-2 3h-24l2-6z" fill="#FDF8EC"/>
<path transform="translate(886,408)" d="m0 0 1 2-2 9-1 1v6l-1 7 2 8 2 2-4 1h-19v-1l10-1 2-12 4-11z" fill="#DB4F31"/>
<path transform="translate(1420,781)" d="m0 0 1 3h2v-2l3-1 1 2 8-1v2h2v-2l4-1 7 1 5 1-1 7-2 2-4-3-8 2h-2v-2l-5-1v-2l-10 3-1-4z" fill="#FECB2D"/>
<path transform="translate(482,640)" d="m0 0h15l-1 3-12 1-2 9h9l2 2-1 3h-10l-3 11-3 2-1-4 4-20z" fill="#FBDBB5"/>
<path transform="translate(220,804)" d="m0 0 4 1 6 11v-12h4l1 21h-4l-7-11v-2h-2l1 14h-3l-1-2v-19z" fill="#FDF8EA"/>
<path transform="translate(1287,545)" d="m0 0h2l5 15-25 1-2-5 1-3 3 2 14-1-1-6z" fill="#FEFEEE"/>
<path transform="translate(256,640)" d="m0 0h6l4 4 1 9-3 11-5 6-6 1-5-6-1-2v-11l4-8zm0 3-5 6-1 2v13l4 4 5-1 5-10v-11l-2-3z" fill="#FDD471"/>
<path transform="translate(1327,952)" d="m0 0 2 1v21l-1 5-2-1v-4l-4-2v-2h-3l-2 2v-12l1 3h2v-3l3-3 2-4z" fill="#FEB907"/>
<path transform="translate(460,640)" d="m0 0h16l-1 3h-13l-1 9 11 1v4h-13l-2 13h-3l1-10 4-19z" fill="#FDEDD1"/>
<path transform="translate(1375,546)" d="m0 0 5 1-2 5-5 9h-22l-1-1v-8l2 4 9 1 6-3z" fill="#FEFDEE"/>
<path transform="translate(826,632)" d="m0 0h16l-1 9-1 6h-3l-4 8-2-1v-11-4l-2-4-7 1-5-2v-1z" fill="#FECC34"/>
<path transform="translate(1240,961)" d="m0 0h5l4 5-1 10h-2l-1 3h-5l-3-3v-12z" fill="#D95034"/>
<path transform="translate(1354,269)" d="m0 0h8l5 3v2l-7-2h-5l-1 7 10 9v6l-3 6-4 2h-5l-5-4 1-5 5 5h5l2-3v-6l-8-5-2-3 1-9z" fill="#FDF7E4"/>
<path transform="translate(1382,614)" d="m0 0h2l-1 12-2 8 1 8 2 2h5l3-3 3-8 3-15 1-2h2l-1 9-4 15-6 8-9-1-2-2-1-10 3-19z" fill="#FDF5E1"/>
<path transform="translate(351,820)" d="m0 0h1l-1 8-4 11-7 9-5 4-6 3h-27l1-2 22-2 9-4 5-4h2v-2l2-1 6-13z" fill="#FDA913"/>
<path transform="translate(1443,271)" d="m0 0h6l5 5-1 7-4 4-9-1v-9z" fill="#FDC01B"/>
<path transform="translate(1249,462)" d="m0 0h19l6 2 1 4-28 1-2-1-1 4v-7z" fill="#FDBA0A"/>
<path transform="translate(333,180)" d="m0 0 6 1 4 3v3h-3l-2-3-5 1-2 3v5l5 1 4 4v9l-2 3-7 1-5-1-3-4 1-2 2 4 10-1v-8l-8-5-1-1v-6l4-6z" fill="#F9B24C"/>
<path transform="translate(165,803)" d="m0 0 3 1 1 22h-3l-1-8-7-2v10l-4-1v-20l4-1v9l6-1v-8z" fill="#FDF8EC"/>
<path transform="translate(1414,268)" d="m0 0h1l-1 10v19l4 2 3 1 2-5 4-9 4-18h2l-3 20-6 12-4 2-5-1-5-5v-11l3-16z" fill="#FDF7E9"/>
<path transform="translate(1217,776)" d="m0 0h9l-1 15-4-1v-6l-1 7-3 1-1-1v-5h-2l-1 5h-3l1-14h3v5h2z" fill="#FDBD1F"/>
<path transform="translate(1407,368)" d="m0 0 3 1-9 15-1 8 1 1-1 7h-3l-1-1-1-13v-15l8 5 2-6h2z" fill="#FEAC11"/>
<path transform="translate(1443,514)" d="m0 0 2 4 1 14-4 5-4 2h-7l-1-1 1-10 13-1-1-5z" fill="#FEFEEE"/>
<path transform="translate(1438,614)" d="m0 0h2l2 17v10l3-3 6-12 6-10 3-2-2 6-8 16-7 12h-2l-4-27v-6z" fill="#FDF5D7"/>
<path transform="translate(1315,615)" d="m0 0 2 1 3 10h2l6-8 4-3 2 1-8 9-2 3v7l4 12-4-2-3-8v-3l-5 5-6 8h-2l1-4 9-12-1-5-3-8z" fill="#FDF8E6"/>
<path transform="translate(1336,268)" d="m0 0 7 2 2 2v3l-4-2-6-2-2 3-1 7 5 2 5 4v10l-3 4h-7l-6-2-1-5 2-2 2 5 8 1 2-3-1-7-9-6v-8l4-5z" fill="#FDF6DF"/>
<path transform="translate(1485,781)" d="m0 0h3l-1 5-5 2v1l-10 1h-7l-5-3 3-4 8-1z" fill="#FFCC2E"/>
<path transform="translate(1344,615)" d="m0 0h7l4 3v4l-4-2v-2l-7 1-6 7-1 3v10l4 5h5l3-3h2l-1 4-6 3-7-2-4-8v-8l3-7 6-7z" fill="#FEFCEF"/>
<path transform="translate(1272,394)" d="m0 0h19v1l-14 1-3 19-3 5-2 2-2 4 1-14 3-16z" fill="#FDBF22"/>
<path transform="translate(1293,615)" d="m0 0 16 1-3 3h-11l-2 11 7-1v4h-9v10l8 1 3-1v4h-12l-3-1 2-13 3-16z" fill="#FDF9EB"/>
<path transform="translate(1390,560)" d="m0 0h22l4 2h-12l-1 4-2 2-1-1-1 4-9 1-5-1z" fill="#FEAB12"/>
<path transform="translate(1341,469)" d="m0 0h1v19l-1 8-2-1-3 13-1-2h-2v-8l5-23z" fill="#E88234"/>
<path transform="translate(1313,472)" d="m0 0h2l-1 10-2 9-10 1-3-12h8l3-4 1-3z" fill="#FDBC13"/>
<path transform="translate(165,180)" d="m0 0 2 2-7 11-5 7-3 11h-3l1-14-3-11v-5l3 1 3 12 5-5z" fill="#FDF2DD"/>
<path transform="translate(331,639)" d="m0 0 4 2 2 7v5l2-1 4-7 4-5h3l-2 4-7 9 1 7 3 6-1 4-6-11h-2l-7 11h-3l2-5 7-10-1-6-3-7z" fill="#FBC263"/>
<path transform="translate(1260,616)" d="m0 0h17l-1 2-10 1h-3l-4 16-2 9h9 4l-1 3h-15l2-16z" fill="#FDF8EC"/>
<path transform="translate(140,803)" d="m0 0h7l2 1v5h-3l-3-3v6l6 2 1 2v7l-3 3h-6l-4-4 3-1 6 1-1-5-6-2-1-3v-7z" fill="#FDF8EA"/>
<path transform="translate(235,803)" d="m0 0h1l1 10 5 11 7 1 5-3 2 1-5 5-3 1-1 3-3 1-3-3v-2h-8l-1-2 2-1v-21z" fill="#FDB11E"/>
<path transform="translate(1362,943)" d="m0 0h5l2 8 1 11v22l-2 9-2 3h-8v-1l6-1 2-7-1-3 1-3v-27l-1-3 1-5-4-2z" fill="#C6422C"/>
<path transform="translate(718,421)" d="m0 0 1 4-9 24-11 33h-2v3h-2l1-6 4-11 15-41 2-5z" fill="#FEBA07"/>
<path transform="translate(215,358)" d="m0 0h50v7l-1-3-48-1z" fill="#FCEAC2"/>
<path transform="translate(164,639)" d="m0 0 7 1 1 4h-5v-2l-2 1-6 27h-3l1-9 3-17h-6v-4z" fill="#FDEBCE"/>
<path transform="translate(209,181)" d="m0 0h2l-2 20h2l-1 3-2 1-2 6h-2l1-7h-13l2-4 10-13 3-2-2 5-6 8-1 3h7l2-11 1-1z" fill="#FBB246"/>
<path transform="translate(1360,728)" d="m0 0 2 2-2 5-5 3h-7l-9-3v-5l2-1h10l5 1z" fill="#FEAC12"/>
<path transform="translate(234,640)" d="m0 0h11v3h-8l-3 3v5l8 4v9l-3 5-4 2-6-1-3-3 1-4 5 4 5-1 2-4v-5l-1-1-8-1 1-11z" fill="#FCCE6B"/>
<path transform="translate(1468,548)" d="m0 0h3l1 12h-25l-1-10 5 3 3 2h11z" fill="#FEFDEE"/>
<path transform="translate(125,640)" d="m0 0h17v3l-4 1-3 1-5 22-1 3h-3l4-26h-5z" fill="#FDEECC"/>
<path transform="translate(257,395)" d="m0 0 3 1 31 1 7 2-1 2h-31l-11-1z" fill="#FCF7EA"/>
<path transform="translate(1474,710)" d="m0 0h2v3h2v5l-3-4-2 3h-2v7h2v2l4 1-4 1h-2v-3l-3 1h-3l-1 1h-5l-1-4 1-7 1-1h5l1 7h2v-4h2l2-5z" fill="#FCCF6D"/>
<path transform="translate(183,181)" d="m0 0h7l2 3v8l-7 9-6 5v1l10 1v4l-17-1 4-6 8-7 5-7v-6l-5-1-3 3h-3l2-4z" fill="#FCC760"/>
<path transform="translate(1251,776)" d="m0 0h18l1 1v7l-1 3-1 4h-3l1-11h-2l-1 2h-2v-3h-2l-1 7-4-6-3 1-1 10h-2v-14z" fill="#FEB907"/>
<path transform="translate(310,182)" d="m0 0 6 1 3 2v6l-3 5h-8l-1-1v-9z" fill="#C43F2A"/>
<path transform="translate(1122,505)" d="m0 0h2l2 22h-12l3-9z" fill="#EA8C37"/>
<path transform="translate(133,181)" d="m0 0h3l-3 17-2 9h11v5l-14-1-1-4 5-24z" fill="#FDF0D9"/>
<path transform="translate(1294,343)" d="m0 0h31l7 1 1 1v12l-10-2v-10l-29-1z" fill="#FEBA08"/>
<path transform="translate(1302,700)" d="m0 0 20 4 2 1-1 4-6 3v-2l-6-1-5-2-2 2-3-4z" fill="#FEB907"/>
<path transform="translate(1260,626)" d="m0 0 3 2 9 1v3l-7 3 2 9-2 1-8-1 1-9z" fill="#FDC027"/>
<path transform="translate(179,807)" d="m0 0h5l3 3v8l-2 4-4 1-4-4-1-7z" fill="#FDBE1B"/>
<path transform="translate(1247,713)" d="m0 0h3v11l-2 4h-8v-12l1-2z" fill="#FCD66D"/>
<path transform="translate(245,807)" d="m0 0 5 1 3 4-1 7-3 4-4-1-3-4v-7z" fill="#FDB11B"/>
<path transform="translate(378,643)" d="m0 0h9l1 1v8l-2 3h-10v-9z" fill="#C23A2B"/>
<path transform="translate(334,253)" d="m0 0h36l1 1 1 12-2-2-1-9-26 2h-10l-2 4-1-2z" fill="#FDCEA2"/>
<path transform="translate(143,805)" d="m0 0 3 2v2h3v-4h5l1 17-2-1-1 3-3 1v-9l-1-2-6-2v-6zm4 20 2 1-2 1z" fill="#FDBF1D"/>
<path transform="translate(286,654)" d="m0 0 5 1 2 2v10l-3 3h-5l-2-2v-9l2-1z" fill="#F7A23F"/>
<path transform="translate(274,640)" d="m0 0 6 1 2 2v6l-4 6-7-1v-9z" fill="#FABE5E"/>
<path transform="translate(789,813)" d="m0 0h1l-1 9-10 42-8 31-2-1 9-38z" fill="#FDDF6B"/>
<path transform="translate(1259,779)" d="m0 0h2v3h2l1-3 3 1-1 9-1 2 3-1v-5l2-1v7l-1 1h-12l-3-9-1-2 3-1 2 3z" fill="#FDBB0E"/>
<path transform="translate(1416,714)" d="m0 0 5 1 3 5 2-6 2 1v13l-3 1-2-3-5 3-1-1z" fill="#FDBD22"/>
<path transform="translate(1236,550)" d="m0 0 5 5v2l5 2 3 2h-22v-9l1 3h5l1-4z" fill="#FDF8EC"/>
<path transform="translate(1441,506)" d="m0 0 2 2 1 19h-11l1-5 6-13z" fill="#E37A32"/>
<path transform="translate(1319,634)" d="m0 0h2l5 13-8 2-7-1-1-2z" fill="#FDB81A"/>
<path transform="translate(386,392)" d="m0 0h1v9h-39l-1-5 6 1 29 1 4 1z" fill="#FCE8BF"/>
<path transform="translate(1256,534)" d="m0 0 4 2 4 8-1 2-3 3-8 2 1-11 2-5z" fill="#E78630"/>
<path transform="translate(902,779)" d="m0 0 3 2-2 8-5 9-3-1-1-1-2 3h-2v3h-2l2-6 2-3h2l1-5 1-2h2v-3h2v-2h2z" fill="#E6822C"/>
<path transform="translate(1246,391)" d="m0 0 1 2h3v7l-3 15-2-1-4 1 1-9 3-14z" fill="#FDAE1E"/>
<path transform="translate(68,395)" d="m0 0 2 2h14l17 1 3 3h-36z" fill="#FCEDCE"/>
<path transform="translate(564,389)" d="m0 0h1l1 6 5 2 9 1h20v3h-38z" fill="#FCE4B9"/>
<path transform="translate(1143,778)" d="m0 0h3 5l2 6-2 3-4 4-5 1-2-2 1-7z" fill="#FDA022"/>
<path transform="translate(177,640)" d="m0 0h2l-1 10-1 3h12v1h-10v2h7v1h-9l-4 13h-2l1-11 3-14z" fill="#FDE7C1"/>
<path transform="translate(1206,501)" d="m0 0 3 1-1 5-3 3-5 3h-11l2-1 1-7 3-3v3h2v4h2l1-7 4 1z" fill="#FC9E29"/>
<path transform="translate(1236,490)" d="m0 0 1 2h2v7l-3 15-5 2-1-5 2-7 1-8z" fill="#E6782E"/>
<path transform="translate(1202,615)" d="m0 0h2l-1 8-3 22 4-1 7-1-1 4h-14l2-16z" fill="#FEFBED"/>
<path transform="translate(1457,745)" d="m0 0h12l-1 3-2-1 2 6-2 3 4-1v3l-7-1-3-1-5-3 1-5 2 1 1-3z" fill="#FECC31"/>
<path transform="translate(437,641)" d="m0 0h8l-2 2-6 2-5 8v8l3 5 6 2-1 2h-6l-5-6-1-2v-10l3-6z" fill="#FDF1DC"/>
<path transform="translate(1298,555)" d="m0 0 9 1 2-1h8l4 3v3h-23z" fill="#FDF8EC"/>
<path transform="translate(355,640)" d="m0 0h15v3h-8l-1 13-1 1-2 12-3 1 1-10 3-13 1-5-7 1v-2z" fill="#F8B455"/>
<path transform="translate(1251,615)" d="m0 0h2l-1 9-6 23h-2l-5-12 1-3h2l2 6 2 1 1-9 3-13z" fill="#FDF8EC"/>
<path transform="translate(1472,537)" d="m0 0 5 1v7l-2 13h-4l-1-10v-10z" fill="#E88834"/>
<path transform="translate(1239,776)" d="m0 0h6v9l-1 7h-6l-1-4v-8z" fill="#FEBA07"/>
<path transform="translate(1252,953)" d="m0 0 3 2 2 9v17l-3-4-1-5h-1l-2-9-2-4z" fill="#E1432E"/>
<path transform="translate(1473,500)" d="m0 0 3 4 1 4v9l4 2-1 11-4 1-1-1-1-16-1-6z" fill="#FDAE16"/>
<path transform="translate(1281,470)" d="m0 0 10 2 7 6 4 9-1 3v-2h-2v-2l-3-1-3-5-9-5z" fill="#FDF8EC"/>
<path transform="translate(1312,268)" d="m0 0h1v10l-4 18-3 5-1-3 3-12 1-7-5 3 1-5 4-5z" fill="#FDF8E3"/>
<path transform="translate(1154,536)" d="m0 0 1 2h3v10l-3 12-3-1v-17z" fill="#EA8E35"/>
<path transform="translate(1507,510)" d="m0 0h1l1 9-1 9 1 5 2-1 2-6 2-2-1 10-11 1 2-17z" fill="#E17A30"/>
<path transform="translate(1264,494)" d="m0 0 12 1 2 2-1 3-4 1-7-3-1 5-3 9h-3l2-10z" fill="#EE9235"/>
<path transform="translate(1317,443)" d="m0 0 3 1 1 3 6-2-2 4-4 1v2l-6 2-8-1-3 1-1-5h14z" fill="#FEB907"/>
<path transform="translate(298,181)" d="m0 0h2l-1 9-2 11h-2l-1 5-5 5-7-1v-1h7l2-5 3-9 2-11z" fill="#F9B959"/>
<path transform="translate(1333,285)" d="m0 0 6 3 1 7-3 4-8-1 2-2-1-5 2-5z" fill="#FDBF23"/>
<path transform="translate(1011,184)" d="m0 0 1 2-8 16-12 21-2-4 9-15 8-14z" fill="#E67E2D"/>
<path transform="translate(1291,633)" d="m0 0h7v2l3 1-1 8-2 1-7-1-1-1v-7z" fill="#FDBB0E"/>
<path transform="translate(1477,541)" d="m0 0 2 1v3h2l1 12 2 3h-10l2-15z" fill="#FDF8EC"/>
<path transform="translate(1258,268)" d="m0 0 11 1-1 4-6 27h-2l1-9 3-19h-7z" fill="#FDFBEE"/>
<path transform="translate(1238,418)" d="m0 0h1v7l-3 10-4 2-4-5 1-4 3-4 5-2z" fill="#FEFEEE"/>
<path transform="translate(1269,714)" d="m0 0h3v4l2-3v10l3 1-1-12h3v13l-7 2-3-1z" fill="#FDC63D"/>
<path transform="translate(230,181)" d="m0 0h2l-2 10-1 4h9v2l-9 1-1 9-1 4h-3l2-15z" fill="#FAB437"/>
<path transform="translate(1234,953)" d="m0 0h18l-2 5-3 1h-9l-3 1-3-5z" fill="#BD352B"/>
<path transform="translate(1298,714)" d="m0 0h5v13l-1 1h-6v-13z" fill="#FCB748"/>
<path transform="translate(1241,269)" d="m0 0 2 1-3 21-3 10-2-1-4-10 1-4 3 5 1 2 3-14z" fill="#FDF8EC"/>
<path transform="translate(1437,715)" d="m0 0 2 2v6l-2 4 4-1 3-10 5-1h2l-1 9-6 2-1 2h-8l2-9z" fill="#FCD26D"/>
<path transform="translate(1437,468)" d="m0 0 9 1-5 10-2 1h-7z" fill="#FDF8EC"/>
<path transform="translate(1179,745)" d="m0 0h5l1 5-1 9h-8l2-13z" fill="#FCCE6E"/>
<path transform="translate(1351,622)" d="m0 0 4 2 1 4-2 3-5-1-9-2-2 1 2-5 4-1z" fill="#FEAB12"/>
<path transform="translate(306,188)" d="m0 0h1l1 7 8 1 2 15h-3l-3-9-1-1h-6v-9z" fill="#F48924"/>
<path transform="translate(78,192)" d="m0 0h1l2 12 3 3h8l-1 4-2 1h-6l-5-5-2-4v-9z" fill="#FDF5E5"/>
<path transform="translate(1391,269)" d="m0 0h8l5 5 1 4v9l-2 5-2-4v-11l-3-5h-6l-4 3h-2l2-4z" fill="#FDF7E2"/>
<path transform="translate(1192,714)" d="m0 0h3v9l-1 4h4v-13h3v11l-1 3-2 1h-6l-2-2 1-2z" fill="#FCD26D"/>
<path transform="translate(88,653)" d="m0 0h9v7l-4 9h-4l4-12-6 1z" fill="#FDF3DE"/>
<path transform="translate(1474,713)" d="m0 0 3 3v2l5 1 2 4-3 1-2-1v2l-6 1v-2h-2v-7l2-1z" fill="#FDC731"/>
<path transform="translate(502,640)" d="m0 0h3l-3 18-3 13h-3l1-5 4-24z" fill="#FDD5A6"/>
<path transform="translate(1387,358)" d="m0 0h8v20l-2 2-2-9-1-9-3 1z" fill="#E97F26"/>
<path transform="translate(1164,778)" d="m0 0h4l1 5v8h-6l3-5-1-5-2 7-1 3h-3v-9z" fill="#FCC760"/>
<path transform="translate(180,803)" d="m0 0 7 1 3 4-1 8h-2l-2-7-1-1h-5l-2 4h-2l-1 2v-7l3-3z" fill="#FEFCF1"/>
<path transform="translate(329,446)" d="m0 0 12 1-2 14-2-4-4-2v-5l-5-1z" fill="#FDEED3"/>
<path transform="translate(1282,421)" d="m0 0h9l1 4 16 1v1h-40v-1l14-1z" fill="#FDC336"/>
<path transform="translate(124,181)" d="m0 0h3l-2 13-3 16h-1v-6l-3-1 3-11 2-10z" fill="#FDE6C4"/>
<path transform="translate(78,652)" d="m0 0h1l2 12 3 2 5 1 1 4h-6l-6-4-2-4v-10z" fill="#FDF4E3"/>
<path transform="translate(208,182)" d="m0 0h1v7l-2 6-2 7-7-1 1-4 7-10 1-4z" fill="#C6422B"/>
<path transform="translate(492,394)" d="m0 0 1 4 33 1 3 2h-37l-1-3z" fill="#FCDFAC"/>
<path transform="translate(1282,938)" d="m0 0h19l8 3v1h-26z" fill="#FEBA07"/>
<path transform="translate(1311,715)" d="m0 0h2l-1 11 6-2v-7l-1 4-3 2 1-8h6l-1 12-1 1h-9v-10z" fill="#FCD36D"/>
<path transform="translate(1204,379)" d="m0 0 2 1v9l-2 11-2 7h-1l-1-6v-8z" fill="#F9941F"/>
<path transform="translate(1179,777)" d="m0 0 3 2v11l-1 1h-5l-1-1 1-11z" fill="#FCC058"/>
<path transform="translate(198,658)" d="m0 0 1 3-1 5h13l-1 5h-11l-4-1 1-10h2z" fill="#FDE8CC"/>
<path transform="translate(679,638)" d="m0 0 12 1 25 1v1h-59v-1z" fill="#FEC723"/>
<path transform="translate(1414,268)" d="m0 0h1l-1 10v19l3 1v2l-5-1-2-3v-11l3-16z" fill="#FDF6DC"/>
<path transform="translate(1365,746)" d="m0 0 1 2v9l5 1v-11h3l-1 11 6-1 1 2h-18v-12z" fill="#FCCE6E"/>
<path transform="translate(1146,621)" d="m0 0 1 4-2 5v7l2 5 4 2 1 3-5-1-4-4-2-6 1-9z" fill="#FDFCF7"/>
<path transform="translate(1373,411)" d="m0 0 2 3 2 6 5 1 1 12-3-1-3-6v-2l-3-1v-3l-3-2z" fill="#FEAC12"/>
<path transform="translate(1220,276)" d="m0 0h1v12l-2 5-4-2 1-14 4 1z" fill="#FDA125"/>
<path transform="translate(376,641)" d="m0 0h9v1l-7 2-2 5-2 12-2 8h-2v-7l2-9 2-8z" fill="#FBC765"/>
<path transform="translate(1257,632)" d="m0 0h1v7l-1 5h9 4l-1 3h-15l1-12z" fill="#FEFCEE"/>
<path transform="translate(1363,615)" d="m0 0h2l-1 9-4 23h-3l1-8 4-23z" fill="#FDF8E6"/>
<path transform="translate(1344,615)" d="m0 0h7l4 3v4l-4-2v-2l-7 1-7 8-3 1 2-5 6-7z" fill="#FDF6DD"/>
<path transform="translate(1321,716)" d="m0 0h1v5l3-1v8l5-1-1 3h-2l-1 2-3-2-5 1-3-3 4-1z" fill="#FEB20D"/>
<path transform="translate(1461,633)" d="m0 0h1v11l8-1 6 1v2l-2 1h-15l1-11z" fill="#FDF8EC"/>
<path transform="translate(496,642)" d="m0 0h1v5h-2l-1 3h-5l-5-3-1-3 1-1z" fill="#DE5436"/>
<path transform="translate(1223,615)" d="m0 0h2l-1 11-4 19-3 3 1-9z" fill="#FDF8EC"/>
<path transform="translate(1192,776)" d="m0 0h6l-1 15h-4l-1-7z" fill="#FCC65E"/>
<path transform="translate(1157,733)" d="m0 0 4 1-1 5-4 2v2l-5 1v-5l-1-3z" fill="#FEAB12"/>
<path transform="translate(292,639)" d="m0 0h2l-2 5-8 11-8 10-5 5 1-4 7-9 9-12z" fill="#FCC365"/>
<path transform="translate(783,156)" d="m0 0h2l-1 8-5 18-1 3h-3l4-16z" fill="#FBBB28"/>
<path transform="translate(198,803)" d="m0 0 7 1 3 3v5l-3 1-2-5h-6l-1 13h-1v-17z" fill="#FDFDFA"/>
<path transform="translate(1474,710)" d="m0 0h2v3h2v5l-3-4-2 3h-2v7h2v2l4 1-4 1h-2v-3l-3 1-3-2 1-4v2h2v-4h2l2-5z" fill="#FDCC44"/>
<path transform="translate(406,645)" d="m0 0h1l1 5v9h-8l1-6z" fill="#C23B2B"/>
<path transform="translate(1225,399)" d="m0 0 3 3h3l3 4v8l-1 3h-2l-6-15z" fill="#FCA229"/>
<path transform="translate(1244,356)" d="m0 0h1l-1 10-2 7-5-2 2-9z" fill="#FDBC15"/>
<path transform="translate(404,643)" d="m0 0 2 1-5 12-2 4 4 1-4 1-2-1-2 6-4 3 1-5 6-10z" fill="#FCC966"/>
<path transform="translate(1419,469)" d="m0 0 1 4 5 1 1 3-6 4 1 2h-5l-2-3z" fill="#FDAD1B"/>
<path transform="translate(1228,616)" d="m0 0h1v6h2l-1 5-2 5-4 1 1-14z" fill="#FD9B1F"/>
<path transform="translate(1321,269)" d="m0 0h2v7l-5 23-3 1 5-27z" fill="#FDFAED"/>
<path transform="translate(1252,982)" d="m0 0 3 1-3 5h-12l-1-5h12z" fill="#E53F2C"/>
<path transform="translate(1438,614)" d="m0 0h2l2 17v11l-2-3-3-18v-6z" fill="#FDF4D5"/>
<path transform="translate(1360,562)" d="m0 0 1 3-1 9-5-3v-2h-3l-1-6z" fill="#FEAC12"/>
<path transform="translate(254,808)" d="m0 0 2 3v7l-2 5-5 3-7-1 4-3 4-1 3-8z" fill="#FDF9EC"/>
<path transform="translate(1206,778)" d="m0 0 5 1v9l-4 4h-3v-11z" fill="#FEB807"/>
<path transform="translate(1159,714)" d="m0 0 4 1 1 8-2 4-4-1-1-11z" fill="#FCC65F"/>
<path transform="translate(256,640)" d="m0 0h6l-2 1v2l-5 2-4 6-1 10-3 2v-11l4-8z" fill="#FCB955"/>
<path transform="translate(1379,364)" d="m0 0h1v12l-3 6-1-3-5 3 2-6z" fill="#FCB72F"/>
<path transform="translate(1352,347)" d="m0 0 5 1-3 9-5 4-1-8z" fill="#FEAD10"/>
<path transform="translate(1151,745)" d="m0 0h5l-3 10-1 6h-2v-2h-2v-10z" fill="#FE9C1A"/>
<path transform="translate(1341,469)" d="m0 0h1v11l-1 7-4 2-1-4 3-12z" fill="#F5952E"/>
<path transform="translate(111,191)" d="m0 0 4 1 4 11 2 1v7h-3l-7-18z" fill="#FDF6E8"/>
<path transform="translate(407,640)" d="m0 0 2 1 2 8 1 11 1 2v8h-3l-2-21z" fill="#FBC15D"/>
<path transform="translate(312,640)" d="m0 0h15l-1 4-4-1-8 1-2 9-2-1 1-10z" fill="#FCC065"/>
<path transform="translate(1382,614)" d="m0 0h2l-1 12-2 8 1 9h-3l-1-2 1-11 2-14z" fill="#FDF9EC"/>
<path transform="translate(1344,618)" d="m0 0h7l4 4 1-3 1 5-6-1-10 1-2 3-2-1z" fill="#FDBF1E"/>
<path transform="translate(1363,291)" d="m0 0 1 3-3 6-4 2h-5l-5-4 1-5 5 5h5l3-6z" fill="#FDF5DC"/>
<path transform="translate(1332,969)" d="m0 0 4 4 1 7h5l-4 1-1 3h-5z" fill="#E87A33"/>
<path transform="translate(1369,714)" d="m0 0h2v13l3-1v-11l3-1v13l-6 2-3-1z" fill="#FDDE6D"/>
<path transform="translate(1430,616)" d="m0 0h2l-1 11-4 17-1 3h-2l2-11z" fill="#FDF7E8"/>
<path transform="translate(451,655)" d="m0 0 1 3-5 9-4 4h-7l4-2-3-2 7-1 2-5 1-3 4-1z" fill="#FCE1B8"/>
<path transform="translate(1415,552)" d="m0 0 4 2-4 7-8-1v-3z" fill="#FDF8EC"/>
<path transform="translate(1437,357)" d="m0 0h4v5l-6 10-3 2-1-3 5-10z" fill="#E47C2B"/>
<path transform="translate(209,181)" d="m0 0h2l-2 20h2l-1 3-2 1-2 6h-2l1-6 1-2 1-13 1-1z" fill="#FBC45D"/>
<path transform="translate(1253,968)" d="m0 0h1l1 7h1v8h-4l-2 2v-2l-4-1 4-5z" fill="#CA4230"/>
<path transform="translate(1231,776)" d="m0 0h4v15l-5-1z" fill="#FCCE6E"/>
<path transform="translate(103,662)" d="m0 0 2 4h11l-1 5-15-1v-6l1 4h2z" fill="#FCEDD1"/>
<path transform="translate(1192,280)" d="m0 0h1l2 13 3 4 5 2-2 2-5-1-4-5-2-6 1-8z" fill="#FDFAF1"/>
<path transform="translate(1387,478)" d="m0 0 3 1-6 13-1-2-4-1-1-3 2-2h2z" fill="#FDBF1A"/>
<path transform="translate(161,649)" d="m0 0h1v8l-3 13h-3l1-9 2-10h2z" fill="#FDF3DD"/>
<path transform="translate(130,650)" d="m0 0h2v9l-3 11h-3l2-13z" fill="#FEF4DC"/>
<path transform="translate(1169,270)" d="m0 0h7l-2 2-3 1-4 18-3 3 1-10z" fill="#FEFBEE"/>
<path transform="translate(1256,778)" d="m0 0h12l1 9-1 4h-3l1-11h-2l-1 2h-2v-3h-2l-1 7-2-3z" fill="#FCCE6E"/>
<path transform="translate(106,640)" d="m0 0h16l-1 4h-12l-1 2h-2z" fill="#FDF3D9"/>
<path transform="translate(1239,291)" d="m0 0 6 4 1-2v5l-4 4h-6z" fill="#FDBB11"/>
<path transform="translate(1154,777)" d="m0 0h4l1 2 3 2-2 1-2 3-1-1v-6h-2v9l-1 2h-3l-1 2 4 1h-5l-1-3 4-5v-5z" fill="#FE991C"/>
<path transform="translate(1231,623)" d="m0 0h2l-1 11-3 13-2 1 1-12z" fill="#FEFBED"/>
<path transform="translate(1196,556)" d="m0 0 1 2 4-2 7 1 3 2 5 1v1h-19z" fill="#FDF8EC"/>
<path transform="translate(1411,615)" d="m0 0h8l3 3v4l-5-2-5-1-5 2 1-4z" fill="#FDF4D6"/>
<path transform="translate(1271,260)" d="m0 0 5 1-1 5-2 2 3 1-1 3h-5l-1-3-3-1 5-6z" fill="#FDCD4D"/>
<path transform="translate(85,181)" d="m0 0h6l1 2h-5v2l-5 5-3 4h-3l2-6 5-6z" fill="#FDF2DC"/>
<path transform="translate(1160,745)" d="m0 0 2 1 1 9-3 3-3-1v-3l-2 1 1-6 2-3z" fill="#FE981C"/>
<path transform="translate(1236,502)" d="m0 0h1l-1 12-5 2-1-5 2-7h3z" fill="#E67730"/>
<path transform="translate(1180,427)" d="m0 0h6l-1 9h-6v-7z" fill="#FDFCF9"/>
<path transform="translate(1374,379)" d="m0 0 1 2-4 11-6 3 3-9 2-4z" fill="#FDB31F"/>
<path transform="translate(1201,269)" d="m0 0h7l2 4-7-1-5 3-3 5-2 4-1-6 5-7z" fill="#FEFBEE"/>
<path transform="translate(261,181)" d="m0 0h7l5 7v9l-3 1-1-10-3-4-7-1z" fill="#FBC460"/>
<path transform="translate(809,85)" d="m0 0h1v10l-2 9-3 8-2-1 1-7 2-5z" fill="#FEAC12"/>
<path transform="translate(1229,966)" d="m0 0 3 1 1 9-1 7 3 4-4-1-2-4z" fill="#C23A2D"/>
<path transform="translate(1361,965)" d="m0 0 4 2 2-1v11l-2 5-3-1v-11h-1z" fill="#DF5E32"/>
<path transform="translate(1186,776)" d="m0 0h2l1 13v3l-4 1v-16z" fill="#FCCE6E"/>
<path transform="translate(1384,746)" d="m0 0h5l1 11h-6l-1-4z" fill="#FEC92F"/>
<path transform="translate(1303,715)" d="m0 0 1 3h5l1 9h-7z" fill="#FEBA07"/>
<path transform="translate(1287,363)" d="m0 0h6l-4 2-2 15-2 5-3-1h2v-10z" fill="#E26E2F"/>
<path transform="translate(165,180)" d="m0 0 2 2-7 11-4 4v-2l-3-1 5-5z" fill="#FDEEC8"/>
<path transform="translate(108,181)" d="m0 0 3 1 3 10-5-2-1 6h-1l-1-10z" fill="#FDE9CC"/>
<path transform="translate(1361 1e3)" d="m0 0h5v4l-7 3-5-1v-3z" fill="#FEAC12"/>
<path transform="translate(105,653)" d="m0 0h12v4h-12l-1 4z" fill="#FDE6BC"/>
<path transform="translate(1167,625)" d="m0 0 4 1v8l-1 3h-4v-11z" fill="#FE991C"/>
<path transform="translate(522,254)" d="m0 0h37l-1 7h-1v-5h-34l-2 5-1-3z" fill="#FDE3C7"/>
<path transform="translate(177,206)" d="m0 0 2 1 10 1v4l-17-1z" fill="#FAB34B"/>
<path transform="translate(1188,776)" d="m0 0 3 1 2 7v7l-3 1-2-5z" fill="#FE9B1B"/>
<path transform="translate(1222,776)" d="m0 0h4l-1 15-4-1v-10z" fill="#FCCE6E"/>
<path transform="translate(257,182)" d="m0 0 5 1-5 5-4 8-1 5h-1v-11z" fill="#F9BA56"/>
<path transform="translate(798,146)" d="m0 0 1 4-5 21-2 8h-1v-9z" fill="#FEAC12"/>
<path transform="translate(1187,714)" d="m0 0h5v11 3 1h-5l1-2v-9l1-3z" fill="#FD9B1B"/>
<path transform="translate(1007,170)" d="m0 0 2 2-4 10-6 2 2-5z" fill="#FFCC2E"/>
<path transform="translate(1365,953)" d="m0 0 2 1v12l-3 3-2-1v-7h2v-6z" fill="#DC392A"/>
<path transform="translate(1150,715)" d="m0 0h4l1 6-3 6h-3l-1-7-2 1v-5h3l1 2v6l2-1-1-5z" fill="#FCCE6E"/>
<path transform="translate(1426,714)" d="m0 0 2 1v13l-3 1-1-4h-2l1-4z" fill="#FCCC52"/>
<path transform="translate(355,640)" d="m0 0h15v3h-8v4h-2v-5l-7 1v-2z" fill="#FBC56A"/>
<path transform="translate(1399,616)" d="m0 0h2l-1 9-3 12h-3l3-12z" fill="#FDF7E7"/>
<path transform="translate(1309,279)" d="m0 0 3 1-1 8-3 10-3 3 2-10z" fill="#FDFAEE"/>
<path transform="translate(978,634)" d="m0 0h2l-1 4-11 19-2 1 1-5 1-2h2l1-4z" fill="#D25828"/>
<path transform="translate(1348,446)" d="m0 0 1 4 6-1v2h-2l-2 4-6 1v-6z" fill="#FEAC12"/>
<path transform="translate(282,181)" d="m0 0h2l-1 9-3 9h-2l1-10z" fill="#F8B250"/>
<path transform="translate(1314,947)" d="m0 0 2 1v30h-1l-1-21-3-1 1-3z" fill="#BD342B"/>
<path transform="translate(199,807)" d="m0 0 5 1 1 4-5 5-2-2v-6z" fill="#FCB231"/>
<path transform="translate(460,640)" d="m0 0h16l-1 3h-13l-1 2z" fill="#FDF8EB"/>
<path transform="translate(1154,615)" d="m0 0 6 1 3 2-1 2-8-1-5 3-2 1-1-3 5-4z" fill="#FDFBEF"/>
<path transform="translate(1234,561)" d="m0 0h2v11l-4 1-1-11z" fill="#FDB013"/>
<path transform="translate(998,206)" d="m0 0h2l-1 5-7 12-2-4z" fill="#E67B2D"/>
<path transform="translate(287,803)" d="m0 0 4 1-1 13h-3z" fill="#FDF9EC"/>
<path transform="translate(1155,746)" d="m0 0h2l-1 8 2-6h1v7l-2 3h-5l2-11z" fill="#FCCE6E"/>
<path transform="translate(202,640)" d="m0 0h15v3l-16 1z" fill="#FDF8ED"/>
<path transform="translate(1187,278)" d="m0 0h4v7l-1 5h-4z" fill="#FD9C1F"/>
<path transform="translate(1235,992)" d="m0 0h16l-3 4h-10z" fill="#F15B38"/>
<path transform="translate(1313,716)" d="m0 0h2v6l2-6 2 1v7l-4 2h-3v-9z" fill="#FEA813"/>
<path transform="translate(1392,714)" d="m0 0h2v12l3-1v3h-5l-1-1v-12z" fill="#FCD56D"/>
<path transform="translate(193,640)" d="m0 0h2l-2 14-2 4v-6h-2l2-10z" fill="#FDE1BD"/>
<path transform="translate(1368,472)" d="m0 0 6 3v5l-2 2h-4z" fill="#FEB907"/>
<path transform="translate(1400,714)" d="m0 0h3l-2 8h2l1-6h1v6l-2 6-4-1z" fill="#FCD160"/>
<path transform="translate(306,663)" d="m0 0h1v6l8-1-6-1v-1h13l-1 4h-15z" fill="#F9A13B"/>
<path transform="translate(479,655)" d="m0 0h1v10l-2 5h-3l1-9z" fill="#FDE5C6"/>
<path transform="translate(275,643)" d="m0 0h4v7l-3 3-3-1 1-7z" fill="#BD352B"/>
<path transform="translate(1293,615)" d="m0 0 16 1-3 3h-11l-2 4h-1v-6z" fill="#FDF8EC"/>
<path transform="translate(1290,555)" d="m0 0 3 1 1 4h-18l1-2 10-1z" fill="#FCF6E6"/>
<path transform="translate(1156,552)" d="m0 0 5 3 5 6h-10l-1-3z" fill="#FDF7E6"/>
<path transform="translate(1174,469)" d="m0 0h32v1l-28 1-1 2h-3l-1 2v-5z" fill="#FDF8EC"/>
<path transform="translate(1323,464)" d="m0 0h6 2l3 1 4 3h-16z" fill="#FEBA07"/>
<path transform="translate(1334,368)" d="m0 0h1l1 31-3-3z" fill="#FDC53B"/>
<path transform="translate(1212,287)" d="m0 0h2l-1 6-6 7-6 1 2-1v-2l6-5z" fill="#FEFCED"/>
<path transform="translate(1337,714)" d="m0 0 2 1-2 11h2l1-3v5l-6-1 1-12z" fill="#FCD36D"/>
<path transform="translate(1326,714)" d="m0 0h4v3h-2v10l-3 1v-13z" fill="#FCD56D"/>
<path transform="translate(1259,714)" d="m0 0h3l1 2v9l-4 3-1-2 1-6z" fill="#FE9C1A"/>
<path transform="translate(234,640)" d="m0 0h11v3h-8l-3 3v6h-2l-1-8z" fill="#F9AF51"/>
<path transform="translate(1439,512)" d="m0 0h1v6l-3 9h-4l1-5z" fill="#D05B32"/>
<path transform="translate(1348,273)" d="m0 0 2 1 1 10-3 1-3-2 1-8z" fill="#FEAD10"/>
<path transform="translate(323,204)" d="m0 0 3 2v2l10-1 3-3-1 6-7 1-5-1-3-4z" fill="#FCC55F"/>
<path transform="translate(1241,777)" d="m0 0h3v13l-4 1z" fill="#FCCE6E"/>
<path transform="translate(1146,746)" d="m0 0h6l-3 3-1 10h2v2l-4 1-1-3z" fill="#FCD98C"/>
<path transform="translate(1361,714)" d="m0 0h4v2h-2l1 12h-4v-12z" fill="#FDDB6D"/>
<path transform="translate(288,658)" d="m0 0h3l-1 9h-5v-6z" fill="#C43D2C"/>
<path transform="translate(1362,943)" d="m0 0h5l2 8v8h-2l-2-8 1-5-4-2z" fill="#CA432D"/>
<path transform="translate(247,803)" d="m0 0 6 2 1 1v7l-5-5v-2h-7l1-2z" fill="#FDFCF9"/>
<path transform="translate(140,803)" d="m0 0h7l2 1v5h-3l-3-3-3 4-1-1v-5z" fill="#FDFAEC"/>
<path transform="translate(1261,713)" d="m0 0 4 1 1 3v9l-4 2v-12z" fill="#FCD66D"/>
<path transform="translate(1202,715)" d="m0 0h3l-1 13h-4l1-12z" fill="#FE9B1A"/>
<path transform="translate(482,640)" d="m0 0h15l-1 3-14 1z" fill="#FDF8EA"/>
<path transform="translate(1238,614)" d="m0 0 6 1-4 8h-2l-2-4v-4z" fill="#FD9B22"/>
<path transform="translate(307,197)" d="m0 0 5 1 3 2 3 8v3h-3l-3-9z" fill="#FBC363"/>
<path transform="translate(1257,713)" d="m0 0h2l1 10-2 5-4 1-1-4h3z" fill="#FCD66D"/>
<path transform="translate(1205,714)" d="m0 0 3 1v13l-3 1z" fill="#FCD26D"/>
<path transform="translate(1244,715)" d="m0 0h3v11h-4v-10z" fill="#FD991C"/>
<path transform="translate(1346,713)" d="m0 0h2l1 4-1 9h4v2h-6l-1-14z" fill="#FDDD6D"/>
<path transform="translate(1449,633)" d="m0 0 1 3-7 12h-2v-6l4-4z" fill="#FDFAF0"/>
<path transform="translate(268,804)" d="m0 0 1 4-4 12h-1l-1-10z" fill="#FDB935"/>
<path transform="translate(1170,745)" d="m0 0 4 1-2 4v10l-4-1 1-6v-7z" fill="#FCCE6E"/>
<path transform="translate(1298,714)" d="m0 0h5v5l-4-2-1 9h-2v-11z" fill="#FDDF6D"/>
<path transform="translate(1258,534)" d="m0 0h5l2 2 1 13-2-4-5-9z" fill="#FEFBE8"/>
<path transform="translate(1321,286)" d="m0 0 2 4 2 3-1 4-4 1-1-1v-7z" fill="#FDB014"/>
<path transform="translate(252,812)" d="m0 0h1l-1 7-3 4-4-1-2-3 3-2 5-1z" fill="#FDBE29"/>
<path transform="translate(168,804)" d="m0 0h1v11h2l2-4 1 9-5 1-1-1z" fill="#FDCB44"/>
<path transform="translate(223,804)" d="m0 0h2v2h2l2 3 2-4v13l-4-5z" fill="#FDB443"/>
<path transform="translate(1165,778)" d="m0 0h3l1 5v8h-6l3-5-2-7z" fill="#FCCE6E"/>
<path transform="translate(1306,743)" d="m0 0 2 2v14h-4l1-12-3 1v-2h3z" fill="#FCCE6E"/>
<path transform="translate(1363,716)" d="m0 0h2l1 3-1 4h2l-1-3h2v8l-5-1z" fill="#FEAA12"/>
<path transform="translate(1449,715)" d="m0 0h2l-1 9-4 1-1-5 1-4z" fill="#FDC541"/>
<path transform="translate(1409,714)" d="m0 0h3l-1 4v10h-3l-1-7z" fill="#FCCE6E"/>
<path transform="translate(1226,714)" d="m0 0h3v13h-3z" fill="#FCD16D"/>
<path transform="translate(1195,715)" d="m0 0h3v12h-4z" fill="#FD991C"/>
<path transform="translate(248,653)" d="m0 0h1l2 11 3 3 3 2v2l-5-1-4-5z" fill="#FCCD67"/>
<path transform="translate(231,646)" d="m0 0h1v6l7 1 3 3-3 1-1-1-8-1z" fill="#FCC85F"/>
<path transform="translate(177,640)" d="m0 0h2l-1 10-2 5-2-1 1-9z" fill="#FDF2D6"/>
<path transform="translate(1377,487)" d="m0 0h2v2l4 1-1 6h-3v-2h-2l-1-6z" fill="#FDAB14"/>
<path transform="translate(147,181)" d="m0 0 3 1 2 6-1 9-2-4-2-7z" fill="#FDE9CA"/>
<path transform="translate(1148,778)" d="m0 0h3l2 6-2 3-5 4z" fill="#FCCB69"/>
<path transform="translate(1181,717)" d="m0 0 4 1v9h-4z" fill="#FE981D"/>
<path transform="translate(1230,715)" d="m0 0 3 1-1 12-3-1v-11z" fill="#FE991C"/>
<path transform="translate(951,683)" d="m0 0v3l-8 14-2 1 1-5 7-12z" fill="#D05329"/>
<path transform="translate(334,657)" d="m0 0 4 1-4 4-5 8h-3l2-5z" fill="#FBB75A"/>
<path transform="translate(462,643)" d="m0 0 10 1 3 2-2 2-10-1-2 1z" fill="#DA5235"/>
<path transform="translate(1272,495)" d="m0 0 5 1 1 4-5 1-5-2 1-3z" fill="#E88930"/>
<path transform="translate(1341,480)" d="m0 0h1l-1 16-5-2v-5l4-2z" fill="#DE6F2D"/>
<path transform="translate(1333,344)" d="m0 0h8v8h-1v-5h-5l-1 11h-1z" fill="#FDDE82"/>
<path transform="translate(1214,715)" d="m0 0h2l1 2v11l-4-1z" fill="#FE981D"/>
<path transform="translate(88,653)" d="m0 0h9v7l-2-3v-2h-3v2l-5 1z" fill="#FDE4B9"/>
<path transform="translate(1349,641)" d="m0 0h2l-1 4-6 3-6-1 2-4 1 1h5z" fill="#FDF9E9"/>
<path transform="translate(1284,388)" d="m0 0 6 2 1 3 3 1h-11z" fill="#FFFFEF"/>
<path transform="translate(1401,289)" d="m0 0 1 4-7 8-7 1 2-2 5-3z" fill="#FDF8EC"/>
<path transform="translate(428,259)" d="m0 0 2 1-14 14-2-1 10-11z" fill="#FDEDC9"/>
<path transform="translate(1342,978)" d="m0 0 2 1 1 5 2 2h-7l-2-2v-3h4z" fill="#FDEFD3"/>
<path transform="translate(1211,777)" d="m0 0h3l-1 14h-3z" fill="#FCCE6E"/>
<path transform="translate(1182,777)" d="m0 0h2l1 16-1-2-3-1v-12z" fill="#FE9C1A"/>
<path transform="translate(1233,714)" d="m0 0h2v13l-3 1v-13z" fill="#FCD36D"/>
<path transform="translate(1237,713)" d="m0 0 4 1-1 7-1 2h-3v-8z" fill="#FEA018"/>
<path transform="translate(431,661)" d="m0 0 4 5 6 2-1 2h-6l-5-6 1-2z" fill="#FDF8EC"/>
<path transform="translate(173,652)" d="m0 0h1l1 13-2 5h-2l1-11z" fill="#FDEACC"/>
<path transform="translate(378,656)" d="m0 0 4 1 4 7v6l-2-1-3-8z" fill="#FCC25C"/>
<path transform="translate(1345,508)" d="m0 0h1l1 15-1-3h-4l1-7h2z" fill="#FDB72C"/>
<path transform="translate(1354,421)" d="m0 0h2l1 8-2 3h-2l1-4h-2l-1-5z" fill="#FDAC14"/>
<path transform="translate(1204,379)" d="m0 0 2 1v9l-2 9h-1v-14z" fill="#E67A2E"/>
<path transform="translate(1377,364)" d="m0 0 1 4-4 8h-2l-1-4 3-5h2z" fill="#FEFDEE"/>
<path transform="translate(1225,273)" d="m0 0 2 3 2 8-4 1-1-2v-9z" fill="#FCA937"/>
<path transform="translate(1365,985)" d="m0 0 2 4-3 6h-6l2-1v-2h2l2-6z" fill="#E83427"/>
<path transform="translate(781,847)" d="m0 0 1 4-3 13-3 2 4-18z" fill="#FDD762"/>
<path transform="translate(143,805)" d="m0 0 5 5 1 3h-6l-1-1v-6z" fill="#FDBA28"/>
<path transform="translate(347,640)" d="m0 0h3l-2 4-6 8-2-1 2-4z" fill="#FCB85B"/>
<path transform="translate(1469,616)" d="m0 0h13l-1 3h-14z" fill="#FDF3CF"/>
<path transform="translate(1342,398)" d="m0 0h1l1 13h-3l-1-11z" fill="#FFFFEF"/>
<path transform="translate(1384,268)" d="m0 0h6l-2 4-5 4-1-6z" fill="#FDB11B"/>
<path transform="translate(1252,953)" d="m0 0 3 2-3 10-4-5z" fill="#FBAE64"/>
<path transform="translate(1202,776)" d="m0 0h3l-1 16-3-1z" fill="#FCCE6E"/>
<path transform="translate(1416,714)" d="m0 0 5 1-2 1v8l1 4h-3z" fill="#FCD66D"/>
<path transform="translate(375,649)" d="m0 0h1v6h9l1 3h-2l-1 2-2-3-6 1-1 2z" fill="#FC961D"/>
<path transform="translate(1402,638)" d="m0 0 4 4v2l6 2v2l-7-1-3-4z" fill="#FDFAE9"/>
<path transform="translate(1420,282)" d="m0 0 3 2-1 6-1 2h-3v-8z" fill="#FEAC12"/>
<path transform="translate(1321,269)" d="m0 0h2v7l-2 9-2-1 1-11z" fill="#FDF7E8"/>
<path transform="translate(183,181)" d="m0 0h7l1 3h-3l-5 1-2 2h-3l2-4z" fill="#FBC05D"/>
<path transform="translate(158,804)" d="m0 0 3 3 4 3-1 3h-6z" fill="#FDBC3A"/>
<path transform="translate(1162,745)" d="m0 0h2l1 14h-4l1-9-1-4z" fill="#FCCE6E"/>
<path transform="translate(292,639)" d="m0 0h2l-2 5-7 10-2-2z" fill="#FCC15C"/>
<path transform="translate(1347,636)" d="m0 0 4 1 1 3-4 3-4-1 2-5z" fill="#FEAD11"/>
<path transform="translate(1388,634)" d="m0 0 5 1 1 3-3 5-4-5z" fill="#FDB31E"/>
<path transform="translate(1297,628)" d="m0 0 8 1v5h-6l1-4h-7z" fill="#F9CF78"/>
<path transform="translate(1459,616)" d="m0 0 1 3-1 3h3l1 4-4 1v-2l-4 1 2-6z" fill="#FDB424"/>
<path transform="translate(1254,616)" d="m0 0h3l1 5-4 4-2-2 1-5z" fill="#FD9B21"/>
<path transform="translate(1316,469)" d="m0 0h23v6h-2l-1-4-20-1z" fill="#FDF8EC"/>
<path transform="translate(1139,468)" d="m0 0 4 1v5l-6-1-2-4z" fill="#FDF8EC"/>
<path transform="translate(1231,286)" d="m0 0 3 2 3 7v6l-2-1-4-10z" fill="#FEFCEF"/>
<path transform="translate(1386,272)" d="m0 0m-1 1 2 3-4 8-1 6-2-1 2-11z" fill="#FEFCED"/>
<path transform="translate(241,813)" d="m0 0h1l2 7v4h-3l-2-4v-6z" fill="#FDFCF8"/>
<path transform="translate(1155,778)" d="m0 0h2v8l-3 5h-4l1-3 3 1v-9z" fill="#FCCE6E"/>
<path transform="translate(1461,716)" d="m0 0 3 2v6l-1 2h-4l1-9z" fill="#FEBB0C"/>
<path transform="translate(1372,715)" d="m0 0 3 1v10l-3 1z" fill="#FEA018"/>
<path transform="translate(1431,714)" d="m0 0h5l-2 3-2 7-2-1v-8z" fill="#FCD66D"/>
<path transform="translate(188,660)" d="m0 0 3 1-2 9h-3l1-9z" fill="#FDE4C5"/>
<path transform="translate(203,653)" d="m0 0h10l-1 4h-11z" fill="#FCDD9B"/>
<path transform="translate(1196,643)" d="m0 0 1 3h5v-2h6l3-1-1 4h-14z" fill="#FDF9EC"/>
<path transform="translate(1144,637)" d="m0 0 2 3 6 6-4 1-5-5-1-4z" fill="#FDFBF5"/>
<path transform="translate(1198,635)" d="m0 0h2v10l2 1h-5v-9z" fill="#FDFCF5"/>
<path transform="translate(1300,541)" d="m0 0h1l-1 10-2 4-2-4 2-9z" fill="#FDBB1E"/>
<path transform="translate(1172,480)" d="m0 0 3 2v6l-5 1 1-8z" fill="#FDF8EC"/>
<path transform="translate(1283,375)" d="m0 0h1v9l-2 1h-7v-1l5-1 1-6z" fill="#FE981D"/>
<path transform="translate(1420,373)" d="m0 0h4l-1 4-4 5-3 1 2-6z" fill="#FDC326"/>
<path transform="translate(1258,268)" d="m0 0 8 1-1 7-1-4h-7z" fill="#FCE5AA"/>
<path transform="translate(351,820)" d="m0 0h1l-1 8-4 11-2-3 4-9z" fill="#FBA117"/>
<path transform="translate(673,812)" d="m0 0 4 2 1 3-1 3-5-1v-6z" fill="#EB3527"/>
<path transform="translate(1400,782)" d="m0 0 3 1-1 7-5-1 2-6z" fill="#FFCC2E"/>
<path transform="translate(1248,777)" d="m0 0h3l-1 14h-2z" fill="#FCCE6E"/>
<path transform="translate(1170,715)" d="m0 0 2 1 1 9-4 1v-10z" fill="#FE981D"/>
<path transform="translate(260,641)" d="m0 0 4 1 3 5-2 9h-1l-1-10-3-3z" fill="#FBC568"/>
<path transform="translate(312,641)" d="m0 0h7v1h-5l-2 11-2-1 1-10z" fill="#FCCF68"/>
<path transform="translate(256,640)" d="m0 0h6l-2 1v2l-5 2-4 2 1-4z" fill="#FCBD53"/>
<path transform="translate(1428,631)" d="m0 0h1l-1 10-2 6h-2l2-11z" fill="#FDF8EC"/>
<path transform="translate(1269,629)" d="m0 0h3v3l-4 1h-7v-3z" fill="#FDF9EC"/>
<path transform="translate(1440,516)" d="m0 0 1 4-1 6h3l1-4v5h-7l1-7z" fill="#FBC866"/>
<path transform="translate(1343,287)" d="m0 0 2 1v2h2l1 4-4 4-1-3z" fill="#FEB80C"/>
<path transform="translate(1239,945)" d="m0 0h8l7 1v1l-13 1-4-2z" fill="#EB3527"/>
<path transform="translate(1435,715)" d="m0 0h2l1 6-2 5h-2v-10z" fill="#FEB216"/>
<path transform="translate(1288,715)" d="m0 0h4v11l-4 2-1-2 2-1 1-9z" fill="#FDE389"/>
<path transform="translate(1218,714)" d="m0 0h1l1 14h-3l-1-13z" fill="#FCD46D"/>
<path transform="translate(1167,714)" d="m0 0 3 1-1 12-3-1v-11z" fill="#FCD36D"/>
<path transform="translate(831,644)" d="m0 0h1v7l-3 8-2 3 1-10z" fill="#FDDB6A"/>
<path transform="translate(279,643)" d="m0 0h3v6l-4 6h-2l1-4 1-1z" fill="#FCB151"/>
<path transform="translate(1322,634)" d="m0 0 2 1 4 12-4-2-3-10z" fill="#FDF9ED"/>
<path transform="translate(1382,614)" d="m0 0h2l-1 12h-3l1-10z" fill="#FDEAAB"/>
<path transform="translate(1332,615)" d="m0 0 2 1-8 9-3 1 2-5z" fill="#FDF6E3"/>
<path transform="translate(866,406)" d="m0 0h3v5l-5 5-1-4z" fill="#FEBE11"/>
<path transform="translate(321,186)" d="m0 0h1v6l-5 7h-2l2-6 3-3z" fill="#FAB048"/>
<path transform="translate(1293,760)" d="m0 0h8l1 3-1 1h-7z" fill="#FEB00E"/>
<path transform="translate(1179,747)" d="m0 0 3 1v9h-3z" fill="#FEB10C"/>
<path transform="translate(1356,744)" d="m0 0h5l1 3-1 9-2-2v-8h-3z" fill="#FEAC12"/>
<path transform="translate(1177,715)" d="m0 0h3v12l-3-1z" fill="#FCD176"/>
<path transform="translate(1276,714)" d="m0 0h3v13l-3-1z" fill="#FCCF6D"/>
<path transform="translate(128,657)" d="m0 0h1l1 5 1 2-2 6h-3z" fill="#FDE1C0"/>
<path transform="translate(226,663)" d="m0 0 6 4v2l4 1-5 1-5-4z" fill="#FDBE64"/>
<path transform="translate(104,653)" d="m0 0 1 3-2 12h-2v-9z" fill="#FEFCF0"/>
<path transform="translate(502,640)" d="m0 0h3l-2 11-2 1v-10z" fill="#FDF0D6"/>
<path transform="translate(1291,633)" d="m0 0h7v2l-4 3h-3l-1 2z" fill="#FDB631"/>
<path transform="translate(1238,283)" d="m0 0h2v8l-2 8-2-4z" fill="#FDFAED"/>
<path transform="translate(1266,269)" d="m0 0h3l-1 4-2 9-2-3 1-9z" fill="#FDF7E7"/>
<path transform="translate(1274,949)" d="m0 0h1v18h-1l-2-12z" fill="#FEBA07"/>
<path transform="translate(927,782)" d="m0 0 1 3-3 5-3 3h-2l2-5z" fill="#E6832C"/>
<path transform="translate(1172,715)" d="m0 0h3v10l-3-1z" fill="#FCD36D"/>
<path transform="translate(1265,714)" d="m0 0h3l1 4-1 8h-2z" fill="#FE9A1B"/>
<path transform="translate(498,659)" d="m0 0 2 2v8l-1 2h-3l1-5z" fill="#FDBE8B"/>
<path transform="translate(159,660)" d="m0 0h1v7l-1 3h-3l1-9z" fill="#FDEFD0"/>
<path transform="translate(1254,643)" d="m0 0 1 3 10-1 4-2v4h-15z" fill="#FDF9EC"/>
<path transform="translate(331,639)" d="m0 0 4 2 2 9-3-1-3-7z" fill="#FAB351"/>
<path transform="translate(437,641)" d="m0 0h8l-2 2-6 2-5 3-1-2z" fill="#FEF9E8"/>
<path transform="translate(1303,611)" d="m0 0 3 1 1 2 3 2h-14v-1h6z" fill="#FDC638"/>
<path transform="translate(1219,551)" d="m0 0 2 4v6l-5-1z" fill="#FDF8EC"/>
<path transform="translate(1232,489)" d="m0 0 4 1-1 5-1 1-1 8h-1z" fill="#FCA836"/>
<path transform="translate(249,446)" d="m0 0h11l1 7-4-1-1-3 1-1-8-1z" fill="#FCF3DE"/>
<path transform="translate(1402,413)" d="m0 0h1v9l-2 2-1-3-2 1 2-7z" fill="#FDAE20"/>
<path transform="translate(1298,991)" d="m0 0h4v5l1 2h-5z" fill="#FDFAED"/>
<path transform="translate(1295,988)" d="m0 0h2v9h-3l-1-5z" fill="#EA3527"/>
<path transform="translate(1245,954)" d="m0 0 5 1-1 4-10-1v-1l5-1z" fill="#E85033"/>
<path transform="translate(1381,714)" d="m0 0h2v13h-3z" fill="#FDDB6D"/>
<path transform="translate(1474,710)" d="m0 0h2v3h2v5l-3-4-4 4-1-2z" fill="#FCCE6E"/>
<path transform="translate(285,658)" d="m0 0h2l-1 9 2 2-5-1v-9z" fill="#FBC263"/>
<path transform="translate(133,640)" d="m0 0h9v3l-4 1-5-2z" fill="#FDF8EA"/>
<path transform="translate(1407,560)" d="m0 0 9 1v1h-12l-1 4-2 2 1-5 1-2z" fill="#F4B356"/>
<path transform="translate(1236,490)" d="m0 0 1 2h2v7l-2-2-4 1 2-5z" fill="#E88830"/>
<path transform="translate(94,201)" d="m0 0 3 2-2 5-4 2 1-5z" fill="#FDEECC"/>
<path transform="translate(246,181)" d="m0 0h1v7l-3 6h-1v-6z" fill="#FAB852"/>
<path transform="translate(1282,938)" d="m0 0h6v2l3 1-1 1h-7z" fill="#FEB30B"/>
<path transform="translate(1187,715)" d="m0 0h2v13l-3-1v-11z" fill="#FCCE6D"/>
<path transform="translate(1292,716)" d="m0 0h2l1 3v7h-3z" fill="#FE9B1A"/>
<path transform="translate(1375,714)" d="m0 0h2v13h-2l-1-12z" fill="#FDE26D"/>
<path transform="translate(1330,714)" d="m0 0 5 1-1 5-6-1v-2h2z" fill="#FEAE0F"/>
<path transform="translate(1370,507)" d="m0 0 2 3h2l-1 6-1 2h-2z" fill="#E68837"/>
<path transform="translate(1192,494)" d="m0 0 7 1 1 4h-3l-4-1z" fill="#FC9D26"/>
<path transform="translate(1197,491)" d="m0 0 5 1v3l-10-1 2-2z" fill="#FDFAED"/>
<path transform="translate(1380,361)" d="m0 0 3 1 2 3v3l-3 1-3-7z" fill="#FFFFEF"/>
<path transform="translate(1345,358)" d="m0 0h3l1 2v11l-2-4z" fill="#DF752C"/>
<path transform="translate(1192,280)" d="m0 0h1v12h-2l-1-7z" fill="#FDFCF8"/>
<path transform="translate(1356,269)" d="m0 0h6l5 3v2l-12-3z" fill="#FDF8EC"/>
<path transform="translate(1336,268)" d="m0 0 7 2 2 2v3l-10-5z" fill="#FDF8EC"/>
<path transform="translate(769,202)" d="m0 0 2 1-1 9-2 4h-2l2-9z" fill="#FBBB28"/>
<path transform="translate(97,193)" d="m0 0 2 1v7l-1 2-3-1z" fill="#FEF7E2"/>
<path transform="translate(152,192)" d="m0 0 1 3h3l-2 10-2-4z" fill="#FDF4E1"/>
<path transform="translate(1223,989)" d="m0 0 5 2 2 5-4-1-3-4z" fill="#DC5131"/>
<path transform="translate(1143,778)" d="m0 0 2 1-2 7-1 5-2-1 1-7z" fill="#FCCE6E"/>
<path transform="translate(1269,755)" d="m0 0 3 2v3h-10l1-3 5 2z" fill="#FCCE6E"/>
<path transform="translate(1275,715)" d="m0 0 2 2v9l-4-1z" fill="#FE9E19"/>
<path transform="translate(1471,717)" d="m0 0h2l1 5h2l-1 4h-2v-2h-2z" fill="#FEBA08"/>
<path transform="translate(1175,716)" d="m0 0h2l1 10h-3z" fill="#FC961E"/>
<path transform="translate(1208,715)" d="m0 0 3 1-1 11-2-1z" fill="#FE981D"/>
<path transform="translate(308,662)" d="m0 0h1v5h6l1 2h-9v-6z" fill="#FCCE6E"/>
<path transform="translate(460,653)" d="m0 0h12v4h-5v-2l-7-1z" fill="#FCE1A8"/>
<path transform="translate(1363,644)" d="m0 0h10l-1 3h-10z" fill="#FDF8EC"/>
<path transform="translate(92,640)" d="m0 0 4 1 3 4v2l-4-1-3-5z" fill="#FDECD0"/>
<path transform="translate(1229,635)" d="m0 0h1v9l-2 4h-1l1-12z" fill="#FDFBF6"/>
<path transform="translate(1245,629)" d="m0 0h1v10l-3-1v-7z" fill="#FD9E21"/>
<path transform="translate(1311,484)" d="m0 0h2l-1 7h-9v-1h5l1-3h2z" fill="#FDAE25"/>
<path transform="translate(1326,292)" d="m0 0 2 2 1 3 5 2-2 2-6-2-1-5z" fill="#FDF7E7"/>
<path transform="translate(108,181)" d="m0 0 3 1v5l-5 1z" fill="#FDF8EC"/>
<path transform="translate(1116,31)" d="m0 0 4 1 1 5-1 2-2-1 1-2-4-2z" fill="#FEAC12"/>
</svg>
