<?xml version="1.0" encoding="UTF-8"?>
<svg version="1.1" viewBox="0 0 1600 1065" width="1280" height="1280" xmlns="http://www.w3.org/2000/svg">
<path transform="translate(0)" d="m0 0h1600v1065h-1600z" fill="#FDC506"/>
<path transform="translate(1345,220)" d="m0 0h1l-1 28-28 392-1 6-47 12h-5l3-44 2-23-44 11-158 38-50 12-34 8-37 9-46 11-45 11h-5v24l-2 45-9 3-26 6-119 29-205 50-119 29-54 13-21 5-13-22-60-104-14-24-15-26-13-22-9-16-7-12 1-2 43-7 89-15 5-1 1-4 4-116 2-56 15-4 154-37 671-160 57-14 84-20z" fill="#282725"/>
<path transform="translate(1266,591)" d="m0 0h3v11l-4 52-2 28-1 18-1 2-60 15-71 17-49 12-38 9-52 13-51 12-48 12-38 9-7 1v-42l3-69 187-45 150-36 55-13z" fill="#FEFDFB"/>
<path transform="translate(436,520)" d="m0 0h14l13 3 9 5 5 6 4 9 2 9v22l-3 14-5 12-8 11-9 8-8 4 14 3 10 6 6 9 3 8 2 13v10l-2 16-4 16-6 14-8 11-11 11-14 9-16 7-22 6-57 13-6 1 1-28 10-185 1-17 1-7 9-3 55-13z" fill="#FDC506"/>
<path transform="translate(668,462)" d="m0 0h14l11 3 7 4 7 8 5 10 3 14v27l-1 5-18 5-27 6h-3l1-28-2-11-1-4-10-1-12 3-8 6-5 13-2 16-6 114 2 13 3 6 3 2h13l10-5 7-8 3-8 3-14 2-30-21 5h-2v-13l1-16 3-2 48-11 12-3h5v14l-5 95-1 12-8 3-22 5-3-1-1-17h-2l-2 5-4 6-8 9-11 7-13 5-11 2h-19l-11-4-8-6-5-7-5-14-3-15v-31l4-72 2-18 4-19 8-20 8-12 12-12 13-8 14-6 18-5z" fill="#FDC506"/>
<path transform="translate(1023,380)" d="m0 0 5 1 7 49 12 81 12 80 2 15-9 3-33 8h-4l-6-48v-2l-10 3-26 6-4 16-8 37-2 2-39 9h-6l2-11 17-71 19-81 12-50 8-33 5-3z" fill="#FDC506"/>
<path transform="translate(873,413)" d="m0 0h16l11 4 7 6 8 16 3 14 1 14-4 3-33 12-6 2-1-17-3-10-1-4-10-1-9 3-6 7-3 6-1 5v12l4 10 8 8 30 20 9 7 10 9 9 14 4 12 1 6v19l-4 16-5 12-8 11-9 10-12 9-16 8-20 5-8 1h-10l-12-3-8-4-7-7-6-12-3-11-1-8v-17l32-13 10-3 1 1 1 18 3 11 3 5 4 2h11l10-5 2-5 3-9v-12l-4-12-9-10-12-9-16-10-14-10-10-10-7-14-2-7v-25l4-15 5-12 9-13 12-11 13-8 17-7z" fill="#FDC506"/>
<path transform="translate(1301,315)" d="m0 0h5v13l-1 17-2 4-47 11-7 2-3 57-1 4 39-9h5l-1 23-1 11-29 7-15 3v22l-3 51 29-7 25-6h2v17l-1 16-3 2-99 23h-4v-19l8-150 4-68 7-2 80-19z" fill="#FDC506"/>
<path transform="translate(1130,355)" d="m0 0h4v12l-7 138-3 50-1 3 36-8 17-4h4v11l-1 20-3 3-55 13-44 10h-4v-15l6-116 5-93 1-12 7-3z" fill="#FDC506"/>
<path transform="translate(557,490)" d="m0 0 2 1-1 32-8 154-3 49-2 2-42 10h-5v-17l8-148 4-71 7-3z" fill="#FDC506"/>
<path transform="translate(1258,702)" d="m0 0h7l1 1v9l-5 9-5 5h-2v2l-11 4-20 4-9 3-7 1-5 2-13 2-19 6-22 5-20 4-11 3-5 2-25 5-29 8-40 9-30 7-49 13-21 6-34 7-18 3h-12l-5-2-4-5-1-5 1-7h6v-2l36-9 37-9 100-24 52-13 51-12 126-31z" fill="#FDB20F"/>
<path transform="translate(300,652)" d="m0 0h2v23l-1 5-7 4-22 26-3 3-3 5-4 5-1 2h-2l-2 4-8 11h-2v3l-4 2-5 5-9 3h-3l-1 4h-3l-4-6-2-2-3-6-2-1-3-6-7-12-1-3-4-4-2-5-9-15-1-3h-2l-6-12-3-5 1-5 4-2h11l6-2 14-2 2 1v-2l9 1 1-3 14-1 2-2h10l6-3h10l4-2 14-1 3-1 10 1 3 1z" fill="#595854"/>
<path transform="translate(412,651)" d="m0 0h12l5 2 6 7 2 6 1 7v11l-3 16-7 14-9 7-11 5-18 4v-12l3-54 1-8 8-3z" fill="#282625"/>
<path transform="translate(1163,88)" d="m0 0h5l-1 3-15 4-153 35-157 36-306 70-44 10-38 9-46 10h-7l1-3 47-11 83-19 210-48 185-42 43-10 48-11 135-31z" fill="#FDF8E2"/>
<path transform="translate(1099,815)" d="m0 0h4v3l-13 4-65 15-473 108-53 12h-5v-3l18-5 52-12 425-97z" fill="#292623"/>
<path transform="translate(1315,733)" d="m0 0h7v2l-21 6-167 38-72 16-42 10-153 35-197 45-14 3h-10l2-2 28-7 249-57 153-35 140-32 66-15z" fill="#FDF8E2"/>
<path transform="translate(971,218)" d="m0 0h10l5 3 3 9-1 27-2 14-4 8-7 6-9 3h-12l-4-4-3-8 1-25 2-16 5-9 9-6z" fill="#2D1B10"/>
<path transform="translate(418,556)" d="m0 0h7l9 3 4 5 2 6v15l-3 13-5 9-8 7-11 5-13 3h-5l2-37 1-19 1-6 12-3z" fill="#282625"/>
<path transform="translate(805,258)" d="m0 0h2l-5 28-7 40-7 3h-6l-4-35-5 24-3 14-8 3h-4l-1-3-4-49v-13l11-2 3 36 7-36 2-3 8-2 3 23v13h2l1-11 4-23 2-5z" fill="#2C2116"/>
<path transform="translate(1425,71)" d="m0 0 3 1-2 4-69 16-184 42-44 10-43 10-118 27-22 5-3-1 1-3 18-5 402-92z" fill="#2A2725"/>
<path transform="translate(573,513)" d="m0 0h3v23l1 1 2-2-1 11-2 18-4 72-1 8-2-4v-10l-1-4-2-18-2-8h-1l-7 35-2 7-2 19h-1v-22l4-77 3-25 2-5 2-1v-4h2l2-6z" fill="#2C2216"/>
<path transform="translate(659,292)" d="m0 0h2l-3 55-1 12-11 3h-3l2-29-9 2h-3l-1 24-1 6-10 3h-3v-14l2-43 1-9 8-3 6-1-1 21-1 6 12-3 2-27z" fill="#2C2116"/>
<path transform="translate(1030,205)" d="m0 0h4l-1 32-2 34-5 2h-5l-12-30-2 34-6 2h-6v-11l3-55 6-2 5 1 11 26 2 1v-23l1-9z" fill="#2C2115"/>
<path transform="translate(923,230)" d="m0 0 1 3-12 27v7l10 28v2l-11 3h-3l-8-23v-2h-3l-1 28-11 3h-3l1-28 2-38 8-3 6-1v24l11-25 5-3z" fill="#2C2116"/>
<path transform="translate(711,279)" d="m0 0h9l4 4 2 5v6l-8 4-4 1-1-10-5 2-3 4 1 7 9 7 8 7 3 6v8l-4 9-9 8-7 2h-9l-5-4-3-9 2-5 10-3 2 9 7 1 2-9-2-5-14-10-4-5-1-3v-8l3-8 5-6 8-4z" fill="#2D1B10"/>
<path transform="translate(986,687)" d="m0 0h9l4 4 1 2v18l-1 13-3 8-7 6-5 2h-11l-4-5v-24l2-13 4-6 8-4z" fill="#2B2A29"/>
<path transform="translate(1173,643)" d="m0 0h10l3 2 2 6-1 25-2 9-4 6-10 5h-10l-4-5-1-5 1-23 2-9 4-6 4-3z" fill="#2B2A29"/>
<path transform="translate(906,535)" d="m0 0 3 1 1 4h9l10 5 1-5 2 2 2 13-2 11-17 71-2 2-3-3-1-5-5 5-4 2-7 1-2 1 2-4 8-9 8-13 6-18 1-6v-19l-4-16-2-6h2l1-4h-2l-1-4h-2v-3h-2z" fill="#2C2116"/>
<path transform="translate(495,562)" d="m0 0 4 4 3 6 2 12 1-8h1v14l-2 32-2 11-2-3-1-9-1-8-1-2-3 3-1-2h-7l-4 3-2 8-4 3 2 7h2l3 5v7h-2l-5-9-10-10-1-5 3-10 7-5 2-1 1-4 5-11 4-10 2-9 5-8z" fill="#251F1B"/>
<path transform="translate(996,451)" d="m0 0 2 2 8 77v8l-24 6h-4l1-9 6-29 10-52z" fill="#2B2217"/>
<path transform="translate(838,250)" d="m0 0h5v7l-1 2-14 3-1 1-1 17 8-2h4v7l-3 3-9 2-1 9v11l11-2h4v8l-9 3-19 4h-2l1-26 2-40 8-3z" fill="#2C2217"/>
<path transform="translate(1063,669)" d="m0 0 9 1 3 5v20l-2 15-3 6-6 5-3 1h-10l-4-4-1-3v-13l2-20 3-6 6-5z" fill="#2C2B2A"/>
<path transform="translate(877,241)" d="m0 0h2l-1 9-5 2-10 2-1 18 6-2h6l-1 8-8 3-3 1-2 20 13-3h3v8l-8 3-22 5 1-28 2-38 2-2z" fill="#2C2216"/>
<path transform="translate(1107,187)" d="m0 0h2l-1 6-12 34-2 16-1 14-13 3v-28l-10-34v-2l10-3h3l5 17v3h2l2-9 4-13 2-2z" fill="#2B2116"/>
<path transform="translate(836,760)" d="m0 0 1 3-110 27-82 20-33 8-58 14h-3l-1-2h-7l1-2 16-4 14-3 22-5 10-2 17-4 9-3 21-4 11-3 20-4 28-7 15-4 8-1 7-2 28-7 7-1 5-2 15-3 15-4 17-4h6z" fill="#26201B"/>
<path transform="translate(612,303)" d="m0 0h4l-1 9-10 4-3 56-11 3h-3l1-31 1-21 1-4-10 2-1-1 1-9 6-2z" fill="#2C2116"/>
<path transform="translate(486,611)" d="m0 0 7 1h2l4-1 1 15 1 4 2-8h1l-2 46h-3l-1-1-1-7-2-2-1-6-2 1-2 8-1 12-2 7-1 6-3 9-2-1 2-11 1-11v-10l-2-17v-7l-2-5h-2l-3-9 5-1 1-8z" fill="#2C2217"/>
<path transform="translate(899,708)" d="m0 0h5l-1 25-1 14-2 7-5 5-9 4h-9l-4-4v-32l1-12 9-3h1v42l5-1 2-5 2-36 2-3z" fill="#2B2A29"/>
<path transform="translate(1055,199)" d="m0 0h2v18l-2 40 10-3h5v8l-18 5-11 2v-14l2-48 1-5z" fill="#2C2116"/>
<path transform="translate(930,701)" d="m0 0 6 1 3 5v12l-4 7-6 4-9 3-1 18-2 4-9 1 1-32 1-18 15-4z" fill="#2B2A29"/>
<path transform="translate(563,599)" d="m0 0 3 3 3 20v8l-1 3v21l2 9v6h-2l-2 4-10 8-7 4 1-28 2-3 1-14 3-10 6-30z" fill="#382F27"/>
<path transform="translate(346,975)" d="m0 0h7v2l-9 3-53 12-73 17-63 14-42 10-20 4h-9v-2l103-24 93-21 56-13z" fill="#FDF8E2"/>
<path transform="translate(1023,297)" d="m0 0 4 1-5 1v2l-8 4-3 1-20 5-21 5-14 4-10 3-4 1-15 4-10 4-16 4-9 3-4 1-2 3-12 1v2l-10 2-9 2-6 3-4-1-5 2h-4l2-4 14-4 12-4 9-2 1-1h5l6-3 17-5 4-1 7-3 2-4 49-12z" fill="#251F1A"/>
<path transform="translate(1066,530)" d="m0 0 1 3 3 1 1 22 2 3 1 7v22l-2 13-4-2v-4h-2v-9l-4 1 2 10v6l-3 3-3-15-2-18v-26l-3-5 2-3h7v-4h2v-3h2z" fill="#382F27"/>
<path transform="translate(403,918)" d="m0 0h3l-1 4-28 7-184 42h-5v-3l8-3 184-42z" fill="#292624"/>
<path transform="translate(681,287)" d="m0 0h3l-1 27-2 39-9 3h-5l1-28 2-38z" fill="#2C2116"/>
<path transform="translate(492,652)" d="m0 0h2l3 7 1 1 1 7 2 2v17l-3 51h-1l-1-23-3-11-1-3h-5l-7 8-2 2-1-3 4-12h2l2-9 2-12 1-1 1-14zm-16 57 2 4-3 1z" fill="#382F27"/>
<path transform="translate(631,579)" d="m0 0 1 2 5 2 5 1h3v16l-1 12-14 10-3 2h-3v-6l3-1v-3l-4-2v-17l1-13h1l1 6h2z" fill="#382F27"/>
<path transform="translate(573,513)" d="m0 0h3v23l1 1 2-2-1 11-5 6-2 4-2-12h-4l-2 5-3 22-3 24v9l1 2h-2l-1 6h-1l-1-10 2-40 3-25 2-5 2-1v-4h2l2-6z" fill="#251F1B"/>
<path transform="translate(1215,634)" d="m0 0h1v7l-6 2-4 1-2 13 9-2 1 4-1 4-9 1-1 23-4 2h-7l1-25 1-19 2-7z" fill="#2C2B2A"/>
<path transform="translate(1240,628)" d="m0 0 3 1-2 7-9 3-1 12 8-2 1 3-2 5-7 2-2 22-6 2h-5l2-42 1-8 6-2z" fill="#2C2B29"/>
<path transform="translate(1490,149)" d="m0 0 2 1v2l-9 3-105 24-58 13h-8l1-2 17-5 80-18 64-15z" fill="#FDF8E2"/>
<path transform="translate(963,693)" d="m0 0h5l-1 8-7 1-2 41-2 3-9 1v-12l1-18v-12l-6 1-1-5 1-3z" fill="#2C2B2A"/>
<path transform="translate(999,218)" d="m0 0h2l3 3v2l4 1 2 12v7h-1l-2 34-6 2h-6v-11l2-38 1-10z" fill="#2C2216"/>
<path transform="translate(957,224)" d="m0 0 2 1-3 9 4 7-1 6 1 4v17h1l1 8 1 5-2 3-5 1-8-5-1-4 1-25 2-16 5-9z" fill="#2B2216"/>
<path transform="translate(414,656)" d="m0 0 11 1 9 10v2h2l1-2 1 6v11l-3 16-7 14-9 7-11 5-18 4 1-7 13-1 3 1 5-2 3-3h2v-2l5-3 1-2h2l2-5 4-9h2l1-6h-1v-14l-2-5v-4h-2l-2-2-8-2h-5l-5 2v2l-6 1-1-2-3 2v-6l6-5z" fill="#251F1A"/>
<path transform="translate(966,229)" d="m0 0h8l1 1v18l-1 19-2 8-4 3h-5l-2-2v-17l2-25z" fill="#FDC207"/>
<path transform="translate(1040,675)" d="m0 0h3l-1 11-10 36-2 6-2 1h-7l2-10 9-32 1-2-9 2h-5l1-7 15-4z" fill="#2C2B29"/>
<path transform="translate(1091,663)" d="m0 0h10l3 4v11l-3 8-6 5-3 1h-8l-3-3-1-4v-8l3-9 5-4z" fill="#2D2C2A"/>
<path transform="translate(1125,677)" d="m0 0h8l3 4v12l-3 8-8 5-6 1-5-2-1-2v-14l3-7 3-3z" fill="#2C2B2A"/>
<path transform="translate(385,415)" d="m0 0 3 1-3 3-15 4-110 25-6 1h-8v-2l15-4 115-26z" fill="#FDF8E2"/>
<path transform="translate(1285,315)" d="m0 0 7 1-1 2-45 11-38 9h-7l2-3h2l1-2 12-5 10-2 21-5 15-3z" fill="#26201B"/>
<path transform="translate(1055,199)" d="m0 0h2v18l-2 40 10-3h5v8l-18 5-11 2v-14l1-15 2 4 1 10 2 5 5 1 2-2-1-2v-35l-1-3 1-11h-6v-6z" fill="#2D1B10"/>
<path transform="translate(486,611)" d="m0 0 7 1h2l4-1 1 18-1 2h-6-2l-3 3-1 6-5-2-2-5h-2l-3-9 5-1 1-8z" fill="#282726"/>
<path transform="translate(673,690)" d="m0 0h1l1 6 7 1-1 5-18 5-12 6-8 7-11 4h-14l-6 1-3-1v-3l5-2 10-1 7-2 11-4 11-3v-2l9-6 2-4 5-2h3z" fill="#251E1A"/>
<path transform="translate(977,226)" d="m0 0 5 2 2 5v15l-1 9v9l-2 5h-2l-1 4-5 4-5-1 4-5 1-6 1-19v-19l3-1z" fill="#2C2116"/>
<path transform="translate(1065,747)" d="m0 0h7l-4 2-77 19-51 12-36 9-4-1 10-3h3v-2l9-2 17-3 14-4 6-3 16-4 13-2 18-6 13-2 12-1 23-6z" fill="#FDF8E2"/>
<path transform="translate(858,456)" d="m0 0h6l7 5 1 4-6 5-18 10-5 2-2 2v-11l4-4 2-4h2l2-4 4-4z" fill="#382F27"/>
<path transform="translate(860,592)" d="m0 0h4l1 6 2 11-4 7-7 5-3 1h-11l-5-3-4-7-2-9v-9l3 4 2 2 4 12 10 2h6l2-5 2-12 1-3z" fill="#251F1B"/>
<path transform="translate(1107,187)" d="m0 0h2l-1 6-12 34-2 8h-1l-1-7-1-4v-7l-1-1 1-9 5-16 2-2z" fill="#2C1B10"/>
<path transform="translate(836,760)" d="m0 0 1 3-110 27-9 1v-2l-2-1 11-3 8-1 7-2 28-7 7-1 5-2 15-3 15-4 17-4h6z" fill="#2C2318"/>
<path transform="translate(823,292)" d="m0 0h1l1 18 11-2h4v8l-9 3-19 4h-2l1-21 2 1 3 9 5 1v-2l-1-1-2-3 3-12h2z" fill="#2D1B10"/>
<path transform="translate(859,412)" d="m0 0h8l3 2-18 5-15 6-14 9-11 10-10 15h-1v-7l2-6h2l2-4 4-6 7-3 1-2h2v-2h3v-2l13-8 5-2 9-3z" fill="#261F1A"/>
<path transform="translate(1036,436)" d="m0 0h3l2 5 3 21 2 16 1 10 2 8 2 14v13h-2l-2-5-11-75z" fill="#27201A"/>
<path transform="translate(681,294)" d="m0 0 2 2v18l-2 39-9 3h-5v-10l1-12 2-1v5l2 1-1 8 1 2h3l1-8-1-4 1-1 2-16 2-15-1-10z" fill="#2D1B10"/>
<path transform="translate(1080,193)" d="m0 0h3l5 17v5l-3 2-1-2h-2v6l1 2-2 7-2-2-9-30v-2z" fill="#2C1B11"/>
<path transform="translate(906,535)" d="m0 0 3 1 1 4h9l10 5 1-5 2 2 2 13-1 4-4 1-4-2v-2l-10-1-4-2-1-4h2l1-4h-2l-1-4h-2v-3h-2z" fill="#251F1A"/>
<path transform="translate(984,695)" d="m0 0h5l1 7-2 27-3 3h-5v-31l3-5z" fill="#FEF9F0"/>
<path transform="translate(650,504)" d="m0 0 9 1 5 3 2 2h1l1 6v9l-1 6-2-4-4-17-4 4-12 5-5-1-4-5 2-3h2v-2l3-2z" fill="#251F1B"/>
<path transform="translate(1e3 211)" d="m0 0 5 1 9 21v11l-1 3-4 2-2-1-4-24-3-1v-2l-3-1v-2h-2l-1 2v-7z" fill="#251F1B"/>
<path transform="translate(1172,651)" d="m0 0 5 1v15l-1 16-4 5-5-1v-16l1-15z" fill="#FEFAF3"/>
<path transform="translate(659,297)" d="m0 0h1v12l-3 50-11 3h-3l1-18 1-7 2 2v14l1 2 3-1 2-12 1-11 1-4v-3l2-16v-9h2z" fill="#2C1C12"/>
<path transform="translate(1115,657)" d="m0 0h5l-3 10-13 40-3 5h-4l1-6 14-43z" fill="#2E2D2B"/>
<path transform="translate(761,268)" d="m0 0h3l1 13-1 9-4 4-1 4h-2v5l-2-1-2-19v-13z" fill="#26201B"/>
<path transform="translate(562,594)" d="m0 0 4 1 2 1 1 14 1 17-2-1-2-18-2-8h-1l-7 35-2 7-2 19h-1v-22l1-18 2-4h2v-7h2l-1-3h2v-8h2z" fill="#282624"/>
<path transform="translate(433,681)" d="m0 0 2 3v3h2l-1 10-5 12-6 8-10 6-11 4-14 3 1-7 13-1 3 1 5-2 3-3h2v-2l5-3 1-2h2l2-5 4-9h2l1-6h-1z" fill="#2C2318"/>
<path transform="translate(480,604)" d="m0 0h5v4l6-4 4 1 1 3h2v5l-1-2-3 3-1-2h-7l-4 3-2 8-5 2-4-1-2-6 5-6 3-6h3z" fill="#2B2216"/>
<path transform="translate(859,284)" d="m0 0h1v18l13-3h3v8l-8 3-17 4h-3l-1-3 2-4 5 1 4-4v-5l-2-4 1-5z" fill="#2C1B10"/>
<path transform="translate(877,241)" d="m0 0h2l-1 9-5 2-10 2-2 14h-1v-15l-4-2-5 2-1 13h-1v-17l2-2z" fill="#2C1C13"/>
<path transform="translate(1029,239)" d="m0 0h2v32l-5 2h-5l-3-8h2l-2-5 1-5h5z" fill="#251F1A"/>
<path transform="translate(1061,678)" d="m0 0 4 1v15l-2 17-3 3-3-1v-27l2-7z" fill="#FEFAF3"/>
<path transform="translate(923,230)" d="m0 0 1 3-13 30-3 1v-10l3-13-3 1 2-7 5-3z" fill="#2D1B10"/>
<path transform="translate(909,263)" d="m0 0h2l9 27 2 7-11 3h-3l-3-9h2v2l4-1 2 1v-7l-4-11-1-7-1-3h2z" fill="#292624"/>
<path transform="translate(996,451)" d="m0 0 2 2 3 32-2 4v-5h-8l-1 9-2-1 5-28z" fill="#292623"/>
<path transform="translate(714,788)" d="m0 0 4 1v3l-53 13h-5l-1-2h3v-2l16-4 22-5 12-3z" fill="#2A2219"/>
<path transform="translate(838,250)" d="m0 0h5v7l-1 2-14 3-1 1-1 12-2 1v-15l-4-2-1-3h3v-2z" fill="#2C1C12"/>
<path transform="translate(612,303)" d="m0 0h4l-1 9-13-2-5-1v2l-9 4-2 5-5 1-1-1 1-9 6-2z" fill="#292725"/>
<path transform="translate(1191,508)" d="m0 0h1v14l-3 47h-2v-10l-2-3 1-2-2 2-4 16h-1v-15l1-9 2-2 2 6h2l1-11 2-7v-14z" fill="#372F27"/>
<path transform="translate(848,742)" d="m0 0h1v23h2l1 4v23l2 5 8 1-4 2-7 2h-4v-42z" fill="#FDF6DC"/>
<path transform="translate(861,451)" d="m0 0 8 1 3 3 3 7-1 5-5 1 2-5-5-5-2-1h-9l-2 4-4 4h-2l-2 6-3 2 1-7 5-8 6-5z" fill="#2B2319"/>
<path transform="translate(1015,378)" d="m0 0 4 2-1 2-20 5-3-1-11 2-4-2 10-5 11-2z" fill="#382F27"/>
<path transform="translate(631,342)" d="m0 0h1v17l-1 6-10 3h-3v-14l1-10 2-1 1 18 3 2 3-10 1-9z" fill="#2D1C13"/>
<path transform="translate(1304,623)" d="m0 0h5l2 11-2 6-5 3-5-1v-2l-2-1 6-1-1-4-2-1v-2l-4-1 1-3z" fill="#585753"/>
<path transform="translate(265,841)" d="m0 0 4 5 7 12v2l3 1v2l3 1 6 10 5 8v2h2l1 11-3-3-15-26-13-22z" fill="#27201B"/>
<path transform="translate(1168,719)" d="m0 0h5l-2 2 5 1-4 2-37 9-4-1 10-5 2-2 15-3z" fill="#FDF8E2"/>
<path transform="translate(762,777)" d="m0 0h4v3l-15 4-29 7h-4v-2l-2-1 11-3 8-1 7-2z" fill="#2B2217"/>
<path transform="translate(652,507)" d="m0 0h6l2 3-3 4-12 5-5-1-1-5 5-4z" fill="#2C2216"/>
<path transform="translate(1057,289)" d="m0 0h4l1 3-2 2-20 5-6-1-3 2h-3l1-4 15-4z" fill="#261F1A"/>
<path transform="translate(1055,199)" d="m0 0h2v18l-1 20h-1l-2-16-1-3 1-11h-6v-6z" fill="#2D1C12"/>
<path transform="translate(907,631)" d="m0 0h2l1 5 3 1 2 4h-3v2l-9 2h-8v-2l3-3 2-3 3-1z" fill="#393028"/>
<path transform="translate(697,464)" d="m0 0 7 2 7 9 4 11 1 8-2 4-5-16-6-9-7-6z" fill="#26201B"/>
<path transform="translate(761,268)" d="m0 0h3l1 13-1 9-3-1-3-11-2-3h-3v-5z" fill="#282725"/>
<path transform="translate(1200,339)" d="m0 0h1v13l-2 40-1 10h-1v-24l-1-10 2-4v-10h-1v-10l1-3h2z" fill="#2A2019"/>
<path transform="translate(783,263)" d="m0 0h1l1 5v8l-5 1-3-3-2 4-3 1 3-13z" fill="#282625"/>
<path transform="translate(1045,488)" d="m0 0h2l2 8 2 14v13h-2l-2-5-3-21z" fill="#2C2317"/>
<path transform="translate(466,611)" d="m0 0h2l-1 6-1 5 1 6-6-2-12-2 1-2 8-4z" fill="#292522"/>
<path transform="translate(1080,428)" d="m0 0h1v26l-2 28-2-3-1-6-1-7 2-8 2-16z" fill="#292119"/>
<path transform="translate(1103,736)" d="m0 0h15l-4 2-38 9-4-1 13-4 5-3z" fill="#FDF8E2"/>
<path transform="translate(1029,251)" d="m0 0h1l1 20-5 2h-5l-3-8 7-2 2-4h2l-1-5z" fill="#282624"/>
<path transform="translate(859,412)" d="m0 0h8l3 2-18 5-14 5 2-4 3-4 8-2z" fill="#27201A"/>
<path transform="translate(805,258)" d="m0 0h2l-2 8-4 4-5 2h-3l2-11 5-2z" fill="#282625"/>
<path transform="translate(922,710)" d="m0 0h6l1 1v9l-4 4-4 1-1-1v-11z" fill="#FEF9EE"/>
<path transform="translate(1263,657)" d="m0 0h1l-2 43-1 2-12 3-4-1 10-4 3-5 2-10 2-24z" fill="#FDF8E2"/>
<path transform="translate(1080,193)" d="m0 0h3l4 15h-2l-4-4-7-3-3 1-1-6z" fill="#292624"/>
<path transform="translate(1157,548)" d="m0 0h7l-1 2-26 6-5-1-2-3 5-2 18-1z" fill="#383028"/>
<path transform="translate(834,278)" d="m0 0h4v7l-3 3-10 1v-6l3-3z" fill="#2D1C13"/>
<path transform="translate(868,270)" d="m0 0h6l-1 8-8 3-5 2 1-8 3-1v-3z" fill="#2C1B10"/>
<path transform="translate(1e3 211)" d="m0 0 5 1 5 12v5l-4-1-1-6v-4h-9l-2 2v-7z" fill="#2A2623"/>
<path transform="translate(1107,187)" d="m0 0h2l-1 6-1 3-5 1-3-2-2 1-3 9-2-1 4-13 2-2z" fill="#292623"/>
<path transform="translate(1123,684)" d="m0 0 5 1v9l-2 5-4 1-1-1v-13z" fill="#FEFBF5"/>
<path transform="translate(1091,669)" d="m0 0 4 1 1 1v8l-2 5-5 1v-14z" fill="#FEF6E6"/>
<path transform="translate(905,265)" d="m0 0h2v2l2 1 2 9 2 8-2-1v-2l-5-1-3-5z" fill="#251F1B"/>
<path transform="translate(1036,436)" d="m0 0h3l2 5 2 17-5-1-2-14z" fill="#261F1B"/>
<path transform="translate(883,294)" d="m0 0h1v5h7l2-1 2-4 1 2v7l-11 3h-3v-8z" fill="#292624"/>
<path transform="translate(681,287)" d="m0 0h3v10l-5-2h-8v-5l5-2z" fill="#282624"/>
<path transform="translate(601,348)" d="m0 0h1v24l-11 3h-3l1-4 7-2 3-3z" fill="#2E1C12"/>
<path transform="translate(599,308)" d="m0 0 13 3 2 2-9 3-1 12h-1v-11l-2-1v-4l-8 1 4-2v-2z" fill="#2D1A10"/>
<path transform="translate(996,264)" d="m0 0h1l1 8 6-1 2-1v7l-5 2h-6v-11z" fill="#2D1C12"/>
<path transform="translate(1052,541)" d="m0 0 2 1 3 5v26l-2-3-3-20z" fill="#2A2520"/>
<path transform="translate(1030,205)" d="m0 0h4v11l-2-4-8 1-1 3v-9z" fill="#292523"/>
<path transform="translate(945,461)" d="m0 0 3 1-1 7-2 11-3 3-2-4 2-10 1-7z" fill="#251F1B"/>
<path transform="translate(403,722)" d="m0 0 4 2-3 3-14 3 1-7z" fill="#2C2217"/>
<path transform="translate(801,526)" d="m0 0 13 13 16 11-2 1-15-9-6-5-6-8z" fill="#2E1D13"/>
<path transform="translate(924,589)" d="m0 0h1l-1 11-4 14-2-2 1-11 4-11z" fill="#2D1C11"/>
<path transform="translate(714,788)" d="m0 0 4 1v3l-16 4h-6l4-4 12-3z" fill="#25201B"/>
<path transform="translate(465,728)" d="m0 0 1 3-5 6-6 4h-2v2l-7 5-6 3h-2v-2l12-7 12-11z" fill="#382F27"/>
<path transform="translate(485,669)" d="m0 0h3l1 4-2 7-1 6-3 9-2-1 2-11 1-11z" fill="#292622"/>
<path transform="translate(782,319)" d="m0 0 8 1 1 5h-2l-1 4h-6z" fill="#27211E"/>
<path transform="translate(823,292)" d="m0 0h1v18l-5-1-1-2 3-12h2z" fill="#2D1A0F"/>
<path transform="translate(804,266)" d="m0 0 1 3-3 17-2 1-2-4 1-11 3-4h2z" fill="#2D1C12"/>
<path transform="translate(491,643)" d="m0 0 4 2 1 8-2 1v-2l-2 1-2 6h-1v-14z" fill="#282726"/>
<path transform="translate(633,298)" d="m0 0h2l-1 8h-3l-9-3-1 2 1-4z" fill="#282625"/>
<path transform="translate(982,584)" d="m0 0 5 2 1 2-3 1-1 3-5 2-3-3v-2h2l1-3z" fill="#393028"/>
<path transform="translate(571,557)" d="m0 0 2 3 1 3v15l-2 1-2-10v-10z" fill="#251F1B"/>
<path transform="translate(670,799)" d="m0 0h6v3l-11 3h-5l-1-2h3v-2z" fill="#27201A"/>
<path transform="translate(1246,411)" d="m0 0h1l1 7h17l-3 2-13 3h-4z" fill="#2B221A"/>
<path transform="translate(1078,460)" d="m0 0h1l1 5-1 17-2-3-1-6-1-7z" fill="#28211B"/>
<path transform="translate(957,224)" d="m0 0 2 1-3 9-5 8h-2l2-9 5-8z" fill="#292623"/>
<path transform="translate(836,308)" d="m0 0h4v8h-3l-6-3-1-3z" fill="#292624"/>
<path transform="translate(1125,591)" d="m0 0 7 1-2 3-8 2h-6l-1-2 6-1v-2z" fill="#362D26"/>
<path transform="translate(659,292)" d="m0 0h2l-1 5-1 2-8-1-2-3z" fill="#282625"/>
<path transform="translate(718,315)" d="m0 0 5 1 3 6v8l-2 4-1-3-1-13-4-1z" fill="#2A2521"/>
<path transform="translate(339,696)" d="m0 0 4 1v14l-1 11h-1l-1-19z" fill="#28201A"/>
<path transform="translate(849,416)" d="m0 0h9l-4 2-16 6 2-4z" fill="#2C2217"/>
<path transform="translate(784,276)" d="m0 0 2 1 1 16-2-2-1-7h-2l-1-7z" fill="#2D1C11"/>
<path transform="translate(865,654)" d="m0 0 2 1-5 3h-2l-1 2-7 3-3-2v-2z" fill="#271F1A"/>
<path transform="translate(833,553)" d="m0 0 5 2 12 8 5 5-4-1-14-9v-2l-4-2z" fill="#2D1C11"/>
<path transform="translate(1081,245)" d="m0 0h1l1 7 2 2v3l2 1-7 2v-12z" fill="#282624"/>
<path transform="translate(433,681)" d="m0 0 2 3v3h2l-1 10-2 5-3-3v-2h2l1-6h-1z" fill="#2A2218"/>
<path transform="translate(834,610)" d="m0 0 5 3 4 7-1 2-5-3-4-8z" fill="#292624"/>
<path transform="translate(555,593)" d="m0 0 2 2v9l1 2h-2l-1 6h-1l-1-10 1-8z" fill="#25211D"/>
<path transform="translate(910,613)" d="m0 0 1 2-5 11-1 2h-3l-1 3-3 1 2-4 7-10z" fill="#282420"/>
<path transform="translate(859,284)" d="m0 0h1v18l2 1h-3l-2-5-1-5z" fill="#2D1A10"/>
<path transform="translate(1092,240)" d="m0 0h1v17l-6 1-2-1v-3l6-1z" fill="#2C1A10"/>
<path transform="translate(873,299)" d="m0 0h3v8l-2 1v-2l-5-2-1-3z" fill="#292624"/>
<path transform="translate(1065,254)" d="m0 0 4 1v6h-5l-2-4-2-1z" fill="#282725"/>
<path transform="translate(1042,247)" d="m0 0h1l1 15 1 3h-2l1 3-3 1v-14z" fill="#2A2521"/>
<path transform="translate(897,236)" d="m0 0h2l-1 8-7-2 1-4z" fill="#282625"/>
<path transform="translate(280,869)" d="m0 0 3 1 8 14 3 2v5l-4-4-10-17z" fill="#292522"/>
<path transform="translate(710,482)" d="m0 0 4 1 2 10-1 5-2-3-3-10z" fill="#2B2217"/>
<path transform="translate(424,755)" d="m0 0 2 2-5 3-5 2-4-2h2v-2z" fill="#362D25"/>
<path transform="translate(1042,478)" d="m0 0h4v10l-2 3-1-1z" fill="#2A221A"/>
<path transform="translate(975,257)" d="m0 0h2l1 5-3 10-2 1 1-15z" fill="#2D1A10"/>
<path transform="translate(1240,524)" d="m0 0 3 2 11 1-3 2-11 2z" fill="#372F27"/>
<path transform="translate(923,230)" d="m0 0 1 3-2 5-5-2-2-4z" fill="#2A2623"/>
<path transform="translate(623,612)" d="m0 0 4 2v3l-2 1-2 9h-1v-14z" fill="#2B2826"/>
<path transform="translate(1127,538)" d="m0 0 2 1-1 7-3 1v6h-1v-11l1-3z" fill="#332D27"/>
<path transform="translate(1197,364)" d="m0 0 3 1v8l-2 5h-1l-1-10z" fill="#27211D"/>
<path transform="translate(707,790)" d="m0 0v3l-1 2-10 1 4-4z" fill="#272019"/>
<path transform="translate(793,319)" d="m0 0 2 2v5l-4 2-4-1h2l2-6h2z" fill="#2E1D13"/>
<path transform="translate(1036,294)" d="m0 0 4 1h-3l-1 3-5 2h-3l1-4z" fill="#28201A"/>
<path transform="translate(821,254)" d="m0 0 1 2-2 1-1 3-5 1-1-4z" fill="#292725"/>
<path transform="translate(898,240)" d="m0 0h1v8l-1 6h-1l-1-5-2-2v-4h3z" fill="#2D1B11"/>
<path transform="translate(391,723)" d="m0 0 4 1v2h2l-1 3-6 1z" fill="#271F1A"/>
<path transform="translate(995,385)" d="m0 0 2 1-7 3-11 1 3-3z" fill="#2D2419"/>
<path transform="translate(631,342)" d="m0 0h1v11h-3l-1-4 2-6z" fill="#2C1A0F"/>
<path transform="translate(1009,219)" d="m0 0h3l2 5v5l-4-1-1-6z" fill="#282523"/>
<path transform="translate(1034,423)" d="m0 0 5 1-1 5h-2v5l-2-4z" fill="#271F1A"/>
<path transform="translate(868,270)" d="m0 0h6l-1 8-2 1-2-6-2-2z" fill="#292624"/>
<path transform="translate(1046,201)" d="m0 0 2 1-1 5h-2l-1 9h-1v-9l1-5z" fill="#2B2825"/>
<path transform="translate(486,681)" d="m0 0 1 2-4 12-2-1 2-11z" fill="#292725"/>
<path transform="translate(643,592)" d="m0 0 2 1-1 13-2 1-1-3z" fill="#282522"/>
<path transform="translate(1049,524)" d="m0 0 2 1 1 5v10l-2-3z" fill="#2C2319"/>
<path transform="translate(771,290)" d="m0 0 3 1v2h3l-1 5-1-2h-4l-1-5z" fill="#2C1B10"/>
<path transform="translate(451,741)" d="m0 0m-1 1v3l-10 6h-2v-2z" fill="#352D26"/>
<path transform="translate(899,631)" d="m0 0 1 4-3 1-1 2-5 2 2-4z" fill="#261D18"/>
<path transform="translate(664,800)" d="m0 0h6l-4 2 2 2-8 1-1-2h3v-2z" fill="#292118"/>
</svg>
