<?xml version="1.0" encoding="UTF-8"?>
<svg version="1.1" viewBox="0 0 1600 1065" width="1280" height="1280" xmlns="http://www.w3.org/2000/svg">
<path transform="translate(0)" d="m0 0h1600v1065h-1600z" fill="#FDB70C"/>
<path transform="translate(1026)" d="m0 0h574v1065h-488l-5-9-8-7-2-9-7-8-2-2-2-9-5-5-3-4-2-10-5-4-1-7 2-9 3-6 5-8 5-1 2-4 19-13 15-6 4-2h2l2 4 9-2 11-7 8-6 10-7 7-8 11-15 1-7-7-2-4-5 1-6 4-7-1-8-4-4 1-5 6-7 4-7 12-9 7-7 6-2 6 1 3-7 5-1 3 2 6-3 2-5 9-2 5-2 2-4 5-4 8-4h10l2-6 5-2 7-1 2-2 2-14 2-2 1-18-5-1-5-7v-2l-9-2-8-6-1-1-9-2-6-9-5-8v-8l4-9 4-4 5-3 5-5 7-1 5-6 11-4 1-2 8-2 12-6 9-3 8 1 5 4 4-2 9-9 8-3 10 1 2-7 5-5 7-6h8l1-8 3-3 8-2 2-13 2-7 9-3 4-5 4-3 4 4h4l-3-6v-2l-2-1 3-5 1-3-10 1-3-4 1-10-3-4v-2l-4 1-4 4-2-2-1-7-4-2-10-3-8-7-4-11v-17l1-3v-8l-4-7-1-3-5-2-1-3-6 2-6 3h-4l-4-9-5-5-5-2-6-3h-14l-1-1-20 2-3 1-4-1h-6v-2l-3 1-1-5-1-2 2-5 6-1v-2l15-6 9-2-13 1 3-2 20-4 6-2 10-2 12-3v-14l-1-2 39-9 19-5-7-12-29-43-10-16v-2l12-7 12-11 8-9 8-16 5-13 1-9v-16l-4-15-5-10-6-7-14-8-13-4-6-1h-10l-23 4-50 11-6 1v-3l2-6-6-2h-8l-7 4h-7l-4-4-10 2-2 1h-9l-1-3h-4v-2h-5l-3-4 1-8 4-6-1-8-2-3v-5l-4 1-2 5-6 12-3 1-5-11-2-2h-6l1 5-4-1-5 2-14-3v2l-7 1-4-5-4-6-9-6-1-3v-9l9-17 3-5 3-9 5-13 4-6 2-5-1-7-2-4h-2l-1-7v-3l-10-3-2-2-3-7-5-2-7-2-3-3h-7l-7 4-16 7-11 2-15 7-10 2-9-3-13-3-4-5v-2l-9-2-2-5-1-19 3-9 8-16 3-14z" fill="#FE8C00"/>
<path transform="translate(446,500)" d="m0 0h17l7 1 10 4 14 7 12 9 10 9 9 11 1 3-14 4 1 12 5 13 6 9 7 7 14 7 9 3 2 6 2 7 1 13 1 3 1 11v21l-2 17-5 19-8 16-6 9-9 10-10 7-12 5-4 1-24 1v5l-13 3h-24l-20-3-7-2-15-2-39-6-48-8h-12l-5 3 1 15-1-2h-5l-2 3h-3v3l-2 1-1 3h-2v-2l-4-1 4 15 7 17 4 8v2l2-1 1-4 4 1 6 8 4 3 5 4 3 1 6 8 6 5 3-2 3 1v4h4l-1-3 3-1 4 6v6l-4 6-10 11-8 10-11 9-5 1v2l-8 4h-7v-2l-4-1-4-3v-2l-4-2v-2h-2v-2h-2v-2h-2v-2h-2v-2h-2v-2h-2v-2l-4-2-8-10-10-16-10-19-6-15-3-9-4-17-1-7h-9l-10-3-12-7-2-2h-14l-9 1-8-3-7-6-6-10-5-15v-15l3-10 7-6 8-4 9-4h3l-2 12v11l2-2h3l1-2h20l7-1 2-1v2l9-1h18l5 4v-3l-2-12v-12l3-15 5-12 6-7 10-6 8-2 14-1 2-4 18-18 8-7 17-17 7-8 9-8 21-21 15-16 5-5 9-6 14-5 9-2 9-1 13-5z" fill="#C93634"/>
<path transform="translate(373,258)" d="m0 0h24l15 2 20 6 16 8 11 7 14 11 7 7 9 11 9 15 6 13 6 19 3 15 1 16v17l-3 19-7 24-7 16-9 17-10 14-4 5-1 2-10-1h-17l-15 4-11 4-9 1-17 5-10 6-3 3h-2l-2 4-7 7-7 8-17 17-5 2-20-3-19-6-19-9-14-10-10-9-9-9-6-8-9-15-7-16-5-16-3-15v-35l3-18 5-17 8-20 9-17 13-18 11-12 12-12 10-8 21-13 19-9 17-5z" fill="#FEFDFC"/>
<path transform="translate(0)" d="m0 0h314l-1 4-4 10 1 7v11l-2 6v7l2 7-8 17v5l2 2-1 7-7 8-4 7-4 2-6 8-7 2-7-6-4-2-5-1-6-5-10-3-10-10-9-3-7-4h-7l-11 8-2 5-4 9-6 25-3 6h-2l-1 5-4 11-6 3h-2l-2 5-4 3h-8l-8 1-7-4-10-3-10-6-11-2-9 4-7 7-1 9-10 18-5 5-8 6h-2v2l-5 3h-25l-9-3-7-3h-9l-10-2-2-1z" fill="#FF8C00"/>
<path transform="translate(892,489)" d="m0 0h2v37l23-5 30-7 8-1 17 44 18 45 11 28 12 31 5 11 5 13 6 15v2l-17 5-29 6-6 2-15 3h-6l-11-33v-3l-49 11-39 9-8 27-5 15-7 3-40 9-20 4h-4l1-5 5-16 3-7 9-27 9-28 5-15 3-8 12-36 8-23 8-24 4-10 3-9 11-32 4-16 6-10 4-1z" fill="#DF3635"/>
<path transform="translate(1343,209)" d="m0 0h10l14 3 16 8 7 6 6 9 5 16 1 4v16l-2 12-7 17-6 10-9 10-7 7-14 9h-2l7 12 29 43 11 17-1 2-48 12-14 3h-4l-13-21-11-18-13-22-5-7h-6v80l-35 8-22 5h-3l-1-14v-201l6-2 64-15 39-8z" fill="#FEFDFC"/>
<path transform="translate(693,531)" d="m0 0h11l6 8 9 8 14 7 16 3 16 1 7 27v3l-14 4-18 4-16 4-23 5h-4l-3-10-5-5-3-1h-11l-12 6-4 6-1 4v9l3 6 7 4 14 3 44 7 16 5 14 7 9 8 6 11 3 10v25l-4 16-8 16-12 16-8 8-14 10-24 12-10 3-8 3-22 4h-27l-19-5-14-8-10-10-6-12-3-9-2-10v-5l17-5 33-7 17-4h6l2 7 3 6v2l4 1v2h15l14-7 6-7 1-2v-13l-4-5-13-5-27-4-21-3-17-4-12-5-11-8-7-10-4-13-1-6v-21l4-19 15-4 13-4 19-9 11-8 10-9 8-9 8-14 4-8z" fill="#EF4F18"/>
<path transform="translate(1404,313)" d="m0 0 8 4 5-3v10l6 6 4-1 3-1v8l7 7 4-1 1-2-5 2-2-4 2-1 1-2 6 3 1-4h2v6l-3 6 1-1 3-2 2 2v3l6 4 1 6 1 5 4 5-4 1-3-2-5 1-3 3 1 5 5 4 7-2 1-2h1v-6h5l-1 5h-2l-1 5h-2l1 5 4 2 2 5-4 4-6 3-5 6-10 6-5 6-16 2-6 4h-2v2l-4 3h-5l-4-3-6 1-6 3h-2l3 5-1 5-6 2-6 12-8 7-4 6 6 2 3 3h11l5 5 5 3 6 2 3 12 5 2 2 4-3 7-3 8-1 10 1 7 3 1 6 14 4 2 4-4 7-2 5 2 6 5 9 3 2 4 4 2 4 7 4 6-5 6v4l8 5 2 4-4 6-3 2h-8l-2 9-3 3-12 3-5 8-7 1-5 1-3 2-2 7-4 1-5-1-6 4-10 7-6 4-11 9-4 3v-2l-5-2-4 1-9 2-16 10-19 2-1 3-9 1-4 5-8 4-4 4-3 5-5 4-4 8-2 6v5l7 3 6 9 6 3 6 1 3 6 11 6 1 7 6 4 3 16-1 5 2 4-1 5-4 6-10 5-4 5h-12l-10 4-8 5-9 3-6 4h-9l-3 1-3 9h-7l-9 6-4 4-10 5-6 9-6 7-2 6 4 2 3 3-1 5-4 3-1 6-1 8 10 5 1 1-1 8-5 11 10 1 2 4-4 10-9 9-10 7-6-1-5-3h-7l-12 7h-2v2l-2-1-1-5-5-3-7 1-20 15-10 5-5 5-4 5-7 6-6 12-3 3v6h2v2l3 1 1 4v7l3 9 5 2 4 9 3 5 5 4 4 12 1 4-1 6h-12l-5-9-8-7-2-9-7-8-2-2-2-9-5-5-3-4-2-10-5-4-1-7 2-9 3-6 5-8 5-1 2-4 19-13 15-6 4-2h2l2 4 9-2 11-7 8-6 10-7 7-8 11-15 1-7-7-2-4-5 1-6 4-7-1-8-4-4 1-5 6-7 4-7 12-9 7-7 6-2 6 1 3-7 5-1 3 2 6-3 2-5 9-2 5-2 2-4 5-4 8-4h10l2-6 5-2 7-1 2-2 2-14 2-2 1-18-5-1-5-7v-2l-9-2-8-6-1-1-9-2-6-9-5-8v-8l4-9 4-4 5-3 5-5 7-1 5-6 11-4 1-2 8-2 12-6 9-3 8 1 5 4 4-2 9-9 8-3 10 1 2-7 5-5 7-6h8l1-8 3-3 8-2 2-13 2-7 9-3 4-5 4-3 4 4h4l-3-6v-2l-2-1 3-5 1-3-10 1-3-4 1-10-3-4v-2l-4 1-4 4-2-2-1-7-4-2-10-3-8-7-4-11v-17l1-3v-8l-4-7-1-3-5-2-1-3-6 2-6 3h-4l-4-9-5-5-5-2-6-3h-14l-1-1-20 2-3 1-4-1h-6v-2l-3 1-1-5-1-2 2-5 6-1v-2l15-6 9-2-13 1 3-2 20-4 6-2 10-2 12-3v-14l-1-2 39-9 19-5-7-12-27-40 1-2 5-1 1-2 10 2 3-3 6-1 5 5 4-2 3-3h2l-1-4-5-4h-13l4-5 1-6 2-3 4 1 7-7-2-4-2-3h2z" fill="#FC9B01"/>
<path transform="translate(873,315)" d="m0 0h4v135l-3 19-7 21-6 11-8 11-10 11-14 11-13 8-14 7-19 6-22 3h-12l-16-3-14-7-10-9-8-10-5-11-4-16-1-7-1-138 57-13h4l1 133 3 11 5 6 6 3 4 1h8l12-3 10-5 5-4 6-9 4-11 1-11v-126l3-2 46-10z" fill="#FEFDFC"/>
<path transform="translate(1289,356)" d="m0 0 5 1 6 9 13 22 10 16 12 19v2l10-1v15l-7 2-9 3-11 2-6 2-16 3-10 3-13 2-9 3h-9v41l15-4 10-2 37-9 14-3h3v52l-19 4-16 4-26 6-8 2-10 1 1 44 17-3 15-4 17-4 16-3 14-4 10-1v54l-18 4-38 9-28 6-25 6-31 7-15 3h-2v-206l20-5h4v-39l7-2h7l1 23v14l29-7 27-6h4v-80z" fill="#CC1E5B"/>
<path transform="translate(999,287)" d="m0 0h23l13 4 11 6 7 6 6 10 4 9 2 9v23l-3 15-7 16-9 13-12 12-13 9-16 8-18 6-29 7h-3l1 73-29 7-28 6h-4l-1-51v-164l9-3 84-19z" fill="#FEFDFC"/>
<path transform="translate(611,373)" d="m0 0h18l16 4 14 7 8 8 6 12 4 16-1 5-29 7-32 7-4-1-2-7-6-6h-12l-8 4-5 6-1 3v9l5 6 11 4 43 7 15 4 10 5 10 9 5 8 3 9 1 9v9l-3 16-8 17-8 11-12 12-14 10-19 9-16 5-10 2-10 1h-22l-15-4-12-6-10-10-7-14-3-12v-6l7-3 47-11 10-1 1 1 2 10 5 4 3 1h9l10-3 7-6 2-5v-9l-2-5-10-5-19-3-30-4-16-5-8-4-6-5-6-8-5-13-1-5v-16l4-16 5-12 9-13 9-9 10-8 16-9 15-6 19-5z" fill="#FEFEFD"/>
<path transform="translate(1186,693)" d="m0 0 4 1-2 3-4 1-1 2h-2v3h6v7l-2 9v16l5 21-1 5-64 15-35 8-22 5-32 7-16 4-32 7-12 3-27 6-25 5-9 2-28 7-20 4-16 4-26 6h-3l3-11 8-24v-8l-10-25v-2l11-3 16-3 12-3 11-2 9-2 15-4 12-2 5-2 49-11 29-6 43-10 40-9 42-9 41-9z" fill="#C00F76"/>
<path transform="translate(1210,238)" d="m0 0h2v48l-19 5-56 13h-3v34l49-11 17-4h3v46l-50 12-19 4v38l15-4 57-13h7l-1 48-47 11-83 19-8 1v-216l86-20z" fill="#FEFEFD"/>
<path transform="translate(279,625)" d="m0 0 5 1 1 3-1 1 3 2 2 3 8 4 6 6 2 8-1 4 3 16 3 11 5 10-1 4 3 1 1 16 1 2-2 6v3h3v2l4 2h-7l-13-2-1 4-5 3 1 15-1-2h-5l-2 3h-3v3l-2 1-1 3h-2v-2l-4-1 4 15 7 17 4 8v2l2-1 1-4 4 1 6 8 4 3 5 4 3 1 6 8 6 5 3-2 3 1v4h4l-1-3 3-1 4 6v6l-4 6-10 11-8 10-11 9-5 1v2l-8 4h-7v-2l-4-1-4-3v-2l-4-2v-2h-2v-2h-2v-2h-2v-2h-2v-2h-2v-2h-2v-2l-4-2-8-10-10-16-10-19-6-15-3-9-4-17-1-7h-9l-10-3-12-7-2-2h-14l-9 1-8-3-7-6-6-10-5-15v-15l3-10 7-6 8-4 9-4h3l-2 12v11l2-2h3l1-2h20l7-1 2-1v2l9-1h18l5 4v-3l-2-12v-12l3-15 5-12 6-7 10-6 8-2z" fill="#D9254D"/>
<path transform="translate(1071,447)" d="m0 0h3v38l26-6h3l-1 154 36-8 37-9 4 1v51l-69 16-49 11-12 3-14 3-1-60v-185l16-4z" fill="#D9244E"/>
<path transform="translate(415,508)" d="m0 0h9l-4 4-6 5h-2l-2 4-8 11-8 17-5 18-2 14v26l2 19 5 21 8 21 8 16 8 13 11 14 5 6 14 11 13 8 9 4 7 2 9 1v1l-5 1v5l-13 3h-24l-20-3-7-2-15-2-39-6-48-8-11-1v-3h10l8 1-2-1v-2h-3l-1-5 2-4-1-4-1-14-2-1-1-6-2-4v-3l-2-1-5-20-1-8 1-4-2-9-5-2-3-3-6-3v-2l-4-2v-3-2l-3-1 2-4 18-18 8-7 17-17 7-8 9-8 21-21 15-16 5-5 9-6 14-5z" fill="#DF3636"/>
<path transform="translate(537,831)" d="m0 0 8 1 110 19 222 39 34 6-2 4-11 9-13 11-10 8-13 11-11 9-14 12-4 3-5-1-35-16-30-13-40-18-27-12-23-10-29-13-43-19-54-24-10-4z" fill="#FEFEFD"/>
<path transform="translate(900,562)" d="m0 0 2 1 9 25 4 10 8 22 4 10-1 5-18 4-15 4 2 1 14-4 5 1v7l-1 5-3 4v2h2l2 4 12 2 10 2-1 2 2 5 4 1-3 2-5 5-3 1 1 2-52 12-22 5-8 27-5 15-7 3-40 9-20 4h-4l1-5 5-16 3-7 9-27 9-28 3-8h3l1-7 7-20 7-18 9-26 3-7 4 1 3 10 4 6 1 4 7 3 10 3h3l4-1 3 2 6-10h2l2-2 1 4-6 19-3 12h2l2-10 5-17 7-23 8-24z" fill="#E2422C"/>
<path transform="translate(1187,459)" d="m0 0h1v206l2 1-5 1-5-4-1-10-1-36-11 2-22 5-12 3-25 6h-6v-152l2-3 61-14z" fill="#FDB70B"/>
<path transform="translate(1289,356)" d="m0 0 5 1 6 9 13 22 10 16 12 19v2l10-1v15l-7 2-9 3-11 2-6 2-16 3-10 3-13 2-9 3h-9v41l15-4 10-2 37-9 14-3h3v52l-19 4-6 2-15 1-26 6h-3l2-4h2l1-2-1-1v-2l-9 2-10-1v-2l-4-2-6-4-7-2-7-4-4-2-5-2-10-3v-2h-5l-4-1h-2l-3 5-1 4-1 82-1 57 2 1-4 1v-206l20-5h4v-39l7-2h7l1 23v14l29-7 27-6h4v-80z" fill="#BF145C"/>
<path transform="translate(863,93)" d="m0 0h6v2l-28 20-16 11-17 12-23 16-34 24-18 13-16 11-20 14-34 24-14 10-20 14-12 8-16 12-8 5-3 3-2-1 13-19 12-16 9-13 24-34 14-19 12-17 12-16 8-12 10-14 13-18 5-7 15-2 107-9z" fill="#FEFEFD"/>
<path transform="translate(1345,654)" d="m0 0m-1 1m-1 1m-1 1m-1 1m-1 1m-21 1 8 1 5 4h3l-1 3-19 2-1 3-9 1-4 5-8 4-4 4-3 5-5 4-4 8-2 6v5l7 3 6 9 6 3 6 1 3 6 11 6 1 7 6 4 3 16-1 5 2 4-1 5-4 6-10 5-4 5h-12l-10 4-8 5-9 3-6 4h-9l-3 1-3 9h-7l-9 6-4 4-10 5-6 9-6 7-2 6 4 2 3 3-1 5-4 3-1 6-1 8 10 5 1 1-1 8-5 11 10 1 2 4-4 10-9 9-10 7-6-1-5-3h-7l-12 7h-2v2l-2-1-1-5-5-3-7 1-20 15-10 5-5 5-4 5-7 6-6 12-3 3v6h2v2l3 1 1 4v7l3 9 5 2 4 9 3 5 5 4 4 12 1 4-1 6h-12l-5-9-8-7-2-9-7-8-2-2-2-9-5-5-3-4-2-10-5-4-1-7 2-9 3-6 5-8 5-1 2-4 19-13 15-6 4-2h2l2 4 9-2 11-7 8-6 10-7 7-8 11-15 1-7-7-2-4-5 1-6 4-7-1-8-4-4 1-5 6-7 4-7 12-9 7-7 6-2 6 1 3-7 5-1 3 2 6-3 2-5 9-2 5-2 2-4 5-4 8-4h10l2-6 5-2 7-1 2-2 2-14 2-2 1-18-5-1-5-7v-2l-9-2-8-6-1-1-9-2-6-9-5-8v-8l4-9 4-4 5-3 5-5 7-1 5-6 11-4 1-2 8-2 12-6z" fill="#FC9B01"/>
<path transform="translate(301)" d="m0 0h13l-1 4-4 10 1 7v11l-2 6v7l2 7-8 17v5l2 2-1 7-7 8-4 7-4 2-6 8-7 2-7-6-4-2-5-1-6-5-10-3-10-10-9-3-7-4h-7l-11 8-2 5-4 9-6 25-3 6h-2l-1 5-4 11-6 3h-2l-2 5-4 3h-8l-8 1-7-4-10-3-10-6-11-2-9 4-7 7-1 9-10 18-5 5-8 6h-2v2l-5 3h-25l-9-3-7-3h-9l-10-2-2-1v-9l5-3 1-1h8l5 1h24l7-3 6-3h3v-2l6-3 7-15 7-20 5-5 4-6 4-2 11 3 8 4 9 3 6 3 8 3 15 1 10-5 5-5 7-11 4-8 1-11 3-6 3-16 4-12 2-9 5-5 6-5 3-1 14 6 11 9 7 4 3 2v2l5 2 5 1 6-1 5 3 6-1 2-4 4-5 4-1 3-2 4 1v-10l3-10 4-4 6-16 4-10h2z" fill="#FD9C01"/>
<path transform="translate(453,593)" d="m0 0 5 2 6 9 3 17 8 28 5 13v5l16-4v7l4 10 3 20 4 8 3 12v15l4 3-5 5-4 1h-19l-9-1-14-5-14-8-11-9-6-5-11-14-6-8-9-15-10-23-6-20-3-16v-12l8 4 17 7 8 5v2l9 3 8 2 3-1 1-17 1-7 2-5h4l2-6z" fill="#BF145C"/>
<path transform="translate(485,508)" d="m0 0 6 2 14 10 11 10 9 11 1 3-14 4 1 12 5 13 6 9 7 7 14 7 9 3 2 6 2 7 1 13 1 3 1 11v21l-2 17-5 19-8 16-3 4h-2l-5 5-4-2-4-10-2-7-2-5v-3h-2l-4-9-1-7-5-5-3-9-3-10 1-6v-6l-4 12-4 5-4 1-2-2-8-27-6-21-3-11-1-9-1-2-3-2 2-3h7l8 4 3-1v-14l-3-5-6-22-4-13-1-14-1-4 1-2-2-1 4-2z" fill="#E3461F"/>
<path transform="translate(1213,268)" d="m0 0h12l1 3v142l-13 1v-8l-25 5-52 12h-2v-38l14-4 47-11 8-1v-46l-33 8-32 7h-4v-34l33-8 39-9 6-1v-2l8-2 2-4h2l-2-4-4-1-4 2-1 3z" fill="#E19816"/>
<path transform="translate(397,327)" d="m0 0h14l10 4 6 5 5 8 4 14v31l-4 16-7 13-7 8-12 7-14 4-6 1h-8l-10-3-8-7-5-8-3-11-1-8v-23l3-14 5-13 7-9 8-7 11-5z" fill="#E03737"/>
<path transform="translate(1034,456)" d="m0 0h1l1 182 1-44 1-21 1-3 4 1 2 12 1 4-1 2h2l4 10v2h2l3 3 4 8 3 3h3l2 2h3l2 1v7l6 3 1-2 6 1 1 6 4 2h4l2 2 1 2 2 1-1 2 7-2 6-3 8 1h6l1 2-1 2h-3l-1 8 3 1-1 2 3 1 2 3 7 2v2l11-3-1-3 5-4h2l1-3 6-4h2l-1-5 4-2 2 7 4 1v5l3 1v6l2 4v6h2v-50h1v51l-69 16-49 11-12 3-14 3-1-60z" fill="#DC3245"/>
<path transform="translate(415,508)" d="m0 0h9l-4 4-6 5h-2l-2 4-8 11-8 17-5 18-2 14v26l2 19 5 21 8 21 8 16 8 13 11 14 5 6 14 11 13 8 9 4 7 2 9 1v1l-5 1v5l-13 3h-24l-20-3 2-1-3-3-10-6-11-9-3-3-3-5-7-8v-4l-2-1 2-5h2l-1-5v-8l-2-12-3-3v-12l-1-4v-4l-3-1 1-2-2-1v-7l-1-10-2-7-2-1-1-2-2-3-5-13-2-7-2-1-1-7-1-5-2-1v-4l-6-1-2-5 1-2-2-1 3-12h-2l2-5 4-2 1-4 4-7-3 1 1-3 8-7 7-8 4-5 11-8 16-6z" fill="#E53F45"/>
<path transform="translate(52,987)" d="m0 0h1v6l-1 2 8 1 8-2 1 3v10l1 2h8l2 1-1 5v10h11l1 1v10h9l6-3 8-5h3l-2 10 7 3 1 9 6 9 4 3v3h-133v-65l13-2h8l4-2 12-3z" fill="#FD9C01"/>
<path transform="translate(1071,295)" d="m0 0 2 1 1 29v122l-7 2h-25l-14 5-6 5-13 6-12 5-6 4h-2v2l-7 4-7 9-3 3-1 3h-2l-2 5-4 4h-2l-1-8-3-1-1 2-1-18v-39l39-10 16-6 16-9 11-9 9-9 9-14 6-14 3-15v-31l3-3v3h2l1-12v-13z" fill="#E19815"/>
<path transform="translate(1026)" d="m0 0h15l3 7-4 22 2 3-2 9-2 12 5 3 3 6v3h2v2h8l5-1 4 4h9l6-3 9-3 8-7 6-3h12l7-6h7l11 6h4l1-7 1-1h8l6 8 9 5 2 5 1 8 5 2 1 1v5l-3 3-2 8v12l-3 1-1 12-5 8h-2l-2 4-6 10-4 6-3 3-3 10 1 8 2 5 5 2 3 2 7 1 3 3v2l4 2 2 4 3 1 1 3-4-1-5 2-14-3v2l-7 1-4-5-4-6-9-6-1-3v-9l9-17 3-5 3-9 5-13 4-6 2-5-1-7-2-4h-2l-1-7v-3l-10-3-2-2-3-7-5-2-7-2-3-3h-7l-7 4-16 7-11 2-15 7-10 2-9-3-13-3-4-5v-2l-9-2-2-5-1-19 3-9 8-16 3-14z" fill="#FD9C01"/>
<path transform="translate(693,531)" d="m0 0h11l6 8 9 8 14 7 16 3 16 1 7 27v3l-14 4-18 4-16 4-23 5h-4l-3-10-5-5-3-1h-11l-12 6-6 9-2-4-10-2-6 3-16 2-21 2-12 2-3 12h-2l1-10 2-10 15-4 13-4 19-9 11-8 10-9 8-9 8-14 4-8z" fill="#C93634"/>
<path transform="translate(446,814)" d="m0 0 12 6 27 16 35 21 27 16 28 17 22 13v2l-17 9-16 9-26 15-9 5-4-1-11-17-15-24-10-15-15-24-14-23-8-13-6-10z" fill="#FEFEFD"/>
<path transform="translate(338,341)" d="m0 0h3l-1 26-40 8h-4v12l-1 3 7-4 8-4 4-1h15l8 4 5 6 4 10v17l-4 13-8 11-10 7-10 4-8 2h-17l-10-4-8-9-2-7v-6l23-5h6l2 4 2 1 9-1 4-4 2-5v-8l-4-5-9 1-4 4-2 3-22 5h-6v-64l24-5z" fill="#C00F76"/>
<path transform="translate(1289,356)" d="m0 0 5 1 6 9 13 22 10 16 12 19v2l10-1v15l-7 2-9 3-11 2-6 2-16 3-10 3-13 2-9 3h-9v41h5l-3 2h-3l-2-10-1-6-1-4v-1l-2-5h-2v-3h-6l-1-2h-9l-4 1-10-1-3-2h-10l-7 1-1 5h-4v44l-1 144 2 1-4 1v-206l20-5h4v-39l7-2h7l1 23v14l29-7 27-6h4v-80z" fill="#A80F58"/>
<path transform="translate(232,775)" d="m0 0 6 2v2l10 1 5 2 9 6v2l5 1 8 7 4 5 10 5v2h2l3 4 3 2v2l8 5 1 4h2l1 6 6 1 3-3-6-3-4-7-2-5-8-11-2-6h-2v-2l2-1 1-4 4 1 6 8 4 3 5 4 3 1 6 8 6 5 3-2 3 1v4h4l-1-3 3-1 4 6v6l-4 6-10 11-8 10-11 9-5 1v2l-8 4h-7v-2l-4-1-4-3v-2l-4-2v-2h-2v-2h-2v-2h-2v-2h-2v-2h-2v-2h-2v-2l-4-2-8-10-10-16-10-19-6-15-3-9v-3h2z" fill="#DA254D"/>
<path transform="translate(1186,693)" d="m0 0 4 1-2 3-4 1-1 2h-2v3h6v7l-2 9v16l5 21-1 5-43 10-4-1 6-3 4-1-16-5-9-2-6-3-3-3-3 3 1-9 4-16v-3l-6 2-5 18-2-2-3-13-8-1h-6v2l-11-1-15-4-7-1-9-4v-1l37-8 36-8 42-9z" fill="#EE4F19"/>
<path transform="translate(892,489)" d="m0 0h2v37l23-5 30-7 8-1 17 44 15 38-1 4-7-14-5-12v-2h-2v-2h-2l-1-3-3-3-3-2-7-3-7-1-11 1h-13l-3-2-5-1h-12l-3 3h-3l-1-4-5-3h-7l-2-1h-9l-9-4-1-3-4-1v-3h-5l-1-2-5-1-1 2 2-9 3-9 4-16 6-10 4-1z" fill="#C32845"/>
<path transform="translate(619,724)" d="m0 0h24l6 4-3 3 2 1 1 7-4-1v3l2-1v2l5-1 5 3 3 6 8 3 3 5 2 1v2l4 2v2l15 1h8l3-1 3 3-6 7h-3v2l-5 2-1 1 2 2-22 5-7 1h-27l-19-5-14-8-10-10-6-12-3-9 1-9 5-4 14-4z" fill="#FE7201"/>
<path transform="translate(509,463)" d="m0 0h1v6h2l4 14 5 8 2 4 4 2 7 5 15 5 24 4 24 3 10 3 6 4 2 5v9l-3 6-7 6-10 3h-9l-7-4-3-5-1-7-14 2-35 8-8-10-7-8-14-11-12-7-1-7 1-5 4-10 3-10 3-4 2 1 4-1 3-5z" fill="#FDB70C"/>
<path transform="translate(1404,313)" d="m0 0 8 4 5-3v10l6 6 4-1 3-1v8l7 7 5-1v9l-4 2-5 5-1 4 6 6 8-4 1 3-3 4v6l3 1 1 7v3l-4 7-7 5-10 4-10 1v2l-11 6-3 5-4 3-9 3-11-1-5-3v-2l4-3 23-6-7-12-27-40 1-2 5-1 1-2 10 2 3-3 6-1 5 5 4-2 3-3h2l-1-4-5-4h-13l4-5 1-6 2-3 4 1 7-7-2-4-2-3h2z" fill="#FDB70C"/>
<path transform="translate(263,639)" d="m0 0h2l4 4 11 7 4 5 2 4v8h2l3 10 3 19 4 9 2 4-4 8-3 1-2 3 1 5 4 2-1 4-3 3-5 1h-8l-15-6v-2h-3v-2l-4-1-7-7-8-14v-2h-2l-4-16-1-6v-12l3-15 3-8h3 4v-2h4v2l2 1h-2l1 4 3-4h2v-2h2v-3z" fill="#CC1E5B"/>
<path transform="translate(645,597)" d="m0 0 11 2 2 6v9l3 6 7 4 14 3 44 7 16 5 14 7 9 8 6 11 3 10v25l-4 16-3 7h-1l1-8 2-8v-16l-1-2h2v-2l-3-1-5-12-2-6-3-1-1-3-6-2v-2l-4-2-2-2-2 1-5-4-2-6-4-1-7-3-16-4-5-1-12-1-11-2-8-1-16 1-6 4h-4v2l-11 2h-17v-2l-11 1-12-2-5-2-1 9v5h-2l-3-13v-21l3 1v-6l3-6 12-3 21-2 16-2z" fill="#E3471F"/>
<path transform="translate(603,148)" d="m0 0 3 1-9 20-19 41-12 27-16 34-3 7h-2l-3-25-6-73-1-15 8-3 32-8z" fill="#FEFEFD"/>
<path transform="translate(441,501)" d="m0 0h14v1l-13 2-3 3-1 5 6 14 3 13 3 8 3 10 3 6 1 9-2 9 2 1-9 2-57 9h-5v-12l3-18 5-17 9-17 7-9 5-5 7-6h2v-2l13-5z" fill="#B61E4F"/>
<path transform="translate(591,424)" d="m0 0h12l5 4 3 5 1 5 13-2 48-11 5-1 7 2 5-2v56l-4-4v-2l-2 1-1 3-3 1-10-3-8-1-8-5-13-4-30-5-21-4-9-4-5-6v-9l3-6 7-6z" fill="#E19915"/>
<path transform="translate(905,554)" d="m0 0h12l6 2 7 1h13l7-1 9 2 5 3h3v3l3 2v3h2l8 20 5 13 3 8 1 10-1 5-4 1-6-3-3-2-9 6-1-3-6-1-1 2-7-1-6-2 1 7h-2l2 7-6-1-1 2 5 2-3 1-4-3-1 2-3-1-1-3 3-5 1-5 2 3-1-7 1-2-5-10-4-10v-3l-3-1-3-8-6-7-5-7-2-1v-2h-2l-3-13-2-1z" fill="#DC3246"/>
<path transform="translate(978,739)" d="m0 0h9l4 1 25 2 6 2h13v2l3 1h-2v16l-4-2-8-10h-8v11l-1 8-5 1-6-2-1-9-3-3h-7l-10 2-1 12-2-3-3 1-5-5-7-1-9 3-6 7-4-3v-2l-9 1v12l-8 2h-3v-11l-10 2-3-1v3h-13v-2l-15-2-2-1h-15l-16 3-16 4-5 2 1 8 3 11v16l-4 16-2 5v6l-4 2h-3l3-11 8-24v-8l-10-25v-2l11-3 16-3 12-3 11-2 9-2 15-4 12-2 5-2 49-11z" fill="#DA264E"/>
<path transform="translate(388,612)" d="m0 0 2 4v3h2l3 6 3 5 3 1 5 5 1 3h2l1 4 4 2v2l5 2 1 3h2v2l4 2 6 8 1 5h2l2 5h2v2l5 2 5 3 7 3 6 5v10l3 10v20l3 6 10 4 4 1 22 1v2l-6 1h-12l-9-1-14-5-14-8-11-9-6-5-11-14-6-8-9-15-10-23-6-20-2-17z" fill="#87084E"/>
<path transform="translate(485,508)" d="m0 0 6 2 14 10 11 10 9 11 1 3-14 4 1 12 5 13 6 9 7 7 2 1-1 2-7-5 2 5-6-1-1-3-4-2-3-3-6-4v13l-2 6-3 1-7-1-5-5-3-1 2 7 3 12v8l6 18 2 9 4 3-1 5-4 5-4 1-2-2-8-27-6-21-3-11-1-9-1-2-3-2 2-3h7l8 4 3-1v-14l-3-5-6-22-4-13-1-14-1-4 1-2-2-1 4-2z" fill="#E2412C"/>
<path transform="translate(1071,447)" d="m0 0h3v38l26-6h3l-1 154 36-8 37-9h3v51h-2l-1-8-2-4 2-13-4-7v-4h-2v-3l-11-2-5 1-17 4-16 3-7 2h-12l-1-2-1-71-1-25-3-6-1-8-1-5-11-1-3-1-1-5h-2v-2h-2v-2h-2l-5-5 2-7h-2v-2l-3-1 1-4 2-2-2-2h2l-1-9h-4l-1-2-7 3-2 1-1-2-3 1 1 5-3 1-1 4v-2h-2l-2-10-2-3-1 11-1 51-1 10h-1v-88l5-2z" fill="#B61D4F"/>
<path transform="translate(808,685)" d="m0 0h2l2 8 4-1 4 2 2 5 4 2 5 3 10 2 1 4 2 4 3 3-1 3 1 1-2 12-3 10-1 3-26 6-38 8h-4l1-5 5-16 3-7 2-5 3-1 1-4 3-7 4-12h2l1-7h3l1-6 3-3h2z" fill="#EF4F18"/>
<path transform="translate(351,582)" d="m0 0 5 1 3 2 4 11 2 7 3 5 1 6 5 11 2 1 4 10 1 15 1 5 3 3-1 5 2 1v12l3 3 2 16v9h-2l-1 5 3 6 8 9 3 5 12 10 12 7v2l-24-3-13-2-19-3 1-3 16 2h7l-6-1-2-7 1-2-3-8v-3-5-3l-7-10-6-9-8-16-6-18-3-21v-5h-2l-2-31v-10z" fill="#D9254D"/>
<path transform="translate(279,625)" d="m0 0 5 1 1 3-1 1 3 2 2 3 8 4 6 6 2 8-1 4 3 16 3 11 5 10-1 4 3 1 1 16 1 2-2 6v3h3v2l4 2h-7l-13-2-1 4-5 3 1 15-1-2h-5l-2 3h-3v3l-2 1-1 3h-2v-2l-6-1-1-3v-10l-9 2 5-4 2-1-1-5 6 1h8l6-2 3-5-4-1-2-4v-3h2l1-3h3l2-5 1-4-6-12-3-19-2-5v-5h-2l-2-10-4-6-15-10v-2l-5 2v3h-2v2l-3 2-2 3-1-5-2-2-2-1v2l-6 2 1-6 6-7 10-6 8-2z" fill="#D9254D"/>
<path transform="translate(448,583)" d="m0 0h16l5 5 4 15 4 13 4 15 6 18 2 10 1 6-8 2h-2l-3-11-5-13-6-22-3-17-6-9-4-1-3 1-1 4-1 2h-4l-1 5-2 21-1 3h-2l-1 2-13-4-4-2v-2l-4-2-21-9-6-3-3-3v-14l30-5z" fill="#D9254D"/>
<path transform="translate(1044,724)" d="m0 0h7l7 3 10 2 16 4 6 1v-2l7-1 7 1 3 9 1 5h1l4-16 8-3-1 8-6 23-7 2-3-1-3-14h-2l-1 8-3 9-5 2h-4l-4-13-1-4-2 3-1-1-2 10-6 8-6 3-8 1-7-3-2-3-2-9h-1l-1-9-2-1h-6v-2l-15 1-4-2-25-2h-6l-2-3 43-10z" fill="#E03636"/>
<path transform="translate(382,331)" d="m0 0 4 2-4 8h-2l-2 9 15 1 1 4-8 5-4 6-2 10v17l2 10 4 5 13 1-3 3-8 5-2 1 1 8 5 5 10-1 1 4-11 3-6 1h-8l-10-3-8-7-5-8-3-11-1-8v-23l3-14 5-13 7-9 8-7z" fill="#DA2850"/>
<path transform="translate(248,633)" d="m0 0 2 1-6 7-6 15-2 12v12l3 18-7-6h-33l-8 1h-15l-4 2-2 2-1-1v-11l2-13h2l1-5 8-10 9-4 7-2 11-2 5-2 20-3 1-2h2l2-4z" fill="#FD7C7F"/>
<path transform="translate(1099,745)" d="m0 0h2l4 14 8-1 2-4 4-2 3 4 8 3 16 4 7 2-1 2-9 3-1 2-52 12-22 5-32 7-16 4-32 7-20 5-6-1 3-2 13-3h7l6-3 8-2 9-4 16-4 5-5 3-1 4-5-2-3 1-3 7-1v-20l1-8h1l1 8h1l3 12 7 3 11-2 5-4 4-8 1-9 2 2 2-3 3 9 2 9 9-2z" fill="#C1165B"/>
<path transform="translate(1187,459)" d="m0 0h1v12h-1v-10l-2 1-1 3h2v18l-4 7-5 1h-4l-1 2-7 3-1-1-12 4-14 1v2l-9 2v2l-8 1v2h-8l-5-5v-3l-4-2-1 96h-1v-114l2-3 61-14z" fill="#E09616"/>
<path transform="translate(272,742)" d="m0 0h4l2 13 3 9 6 16 7 15v4h2l6 11 6 7 3 7 1 4 6 3-1 3-4 1-4-2-1-6h-2l-3-5-7-4v-2l-5-4v-2h-2v-2l-4-1-8-5-4-5-4-3v-2l-7-2-4-4-5-3-5-2-10-2v-2l-6-1-1 2h-2l-3-9-2-7v-5l9-3 11-4 7-2 9-2 4-2z" fill="#C0145D"/>
<path transform="translate(240,780)" d="m0 0h8l5 2 9 6v2l5 1 8 7 4 5 10 5v2h2l3 4 3 2v2l8 5 1 4h2l1 6 6 1 3-3-6-3-4-7-2-5-8-11-2-6h-2v-2l2-1 1-4 4 1 6 8 4 3 5 4 3 1 6 8 6 5 3-2 3 1v4h4l-1-3 3-1 4 6v6l-4 6-10 11-8 10-11 9-7 2 1-3 8-6 2-6-2-4-11-6-9-7-5-5-10-11-6-5v-2h-2l-9-11-10-9-6-8-6-3z" fill="#CD1F5B"/>
<path transform="translate(857,506)" d="m0 0 1 2-6 21-9 25-3 8-2-3v-2l-5 5-5 4-30 15-8 1-14 1-4-3-2 2-5-20v-4l-4-1 22-3 21-7 16-8 17-12 11-10z" fill="#E09816"/>
<path transform="translate(892,350)" d="m0 0h2v98l1 7v71h-1v-37l-10 2-18 3-1-2 6-16 4-18 2-15 1-87 3-1h6z" fill="#D79A2D"/>
<path transform="translate(1063,473)" d="m0 0 1 3h2v4l2 1-1 4v3l-2 3v2l2 1v2h2v5h-2l5 5v2h2v2h2v2h2l1 5h9l5 2 3 10 1 8 2 1v29l-5 1-2-14v-2l-6-1-3 1h-3l-6-1-15-9-5-6-2-4-1-3h-2l-2-3v-10l-2-11v-8l-1-4v-8l1-3 3-1v-4h2l1-3 2 3 5-3 4 1z" fill="#CC1F5B"/>
<path transform="translate(859,558)" d="m0 0h2l1 5 5 4 4-1 6 4 1-1 13 1 2 4-5 19-5 16h-2l-2 2-4 5-3 4-5-2-4 2-3-2-11-3-6-4-1-5-4-6-2-8-3-2h2l1-8h2v-6h2l2-6 5-6 10-3v-2z" fill="#E03635"/>
<path transform="translate(0,1013)" d="m0 0 4 2 5 2 19 1 10 5 6 2 5 10 5 5 4 12-3 8-1 5h-54z" fill="#FE8C00"/>
<path transform="translate(1184,484)" d="m0 0h1l-1 16-3 22-4 6-9 3-19-2v-3l-4-1v2l-12 1-1 3-4-1v3h-5l-1-4-4-1-4-2-1 5-3 1v2l-5-2-1-1v-32l4 2 2 5 3 2 8 1v-2l8-1v-2l9-2v-2l2-1 12-1 13-4h3l9-5h4z" fill="#F6A60B"/>
<path transform="translate(1191,581)" d="m0 0 3 4 7 21 1 5h2l4 9 3 8 5 3 9 4h11l2 1h17l7-2 5 6v2h5l1-2h2v3l14-3 4 2-32 7-25 6-31 7-8 2-7-1v-57z" fill="#D9254D"/>
<path transform="translate(291,616)" d="m0 0h4 7l1 2 7-2 1 5v2l4 5v8h2l3 9 2 4v9l3 14 3 5 1 5 3 9v3h2l4 10v10l-3 3h-2v3l-5 1 1 7 5 2v1l-10-1-4-2v-2h-3l-1-5 2-4-1-4-1-14-2-1-1-6-2-4v-3l-2-1-5-20-1-8 1-4-2-9-5-2-3-3-6-3v-2l-4-2v-3-2l-2-1 3-2h4z" fill="#DB3345"/>
<path transform="translate(1322,263)" d="m0 0 9 1 6 4 3 6 1 10-3 10-6 8-12 6-19 5-10 2h-4v-44l30-7z" fill="#D47A22"/>
<path transform="translate(900,562)" d="m0 0 2 1 9 25 4 10 8 22 4 10-1 5-18 4-28 6h-5l2-9 3-11 12-39 6-18z" fill="#FDB60C"/>
<path transform="translate(356,655)" d="m0 0 2 3 7 20 5 10 10 16 6 9-2 1v5l2 1-1 3 3 8-1 2 2 5 6 2v1h-8l-16-2-1 1h-7l-48-8-11-1v-3h10l3 1 25 3 10 1-2-5-1-6v-24l1-5v-20l3-15h2z" fill="#C83634"/>
<path transform="translate(494,663)" d="m0 0 2 1 1 10 3 6 3 20 4 8 3 12v15l4 3-5 5-4 1h-7v-1h6v-2h-22l-1-9v-7l-7-24-1-2-2-16v-8l4-7z" fill="#B61D4F"/>
<path transform="translate(1034,456)" d="m0 0h1l1 182 1-31h1l1 13h2l3 22 2 16 4 10 4 4 6 2 21 2 7 1h6l5 5 9-1 26-6 15-3 5-2 14-3 2-2 2-8 4 2v8h2v-50h1v51l-69 16-49 11-12 3-14 3-1-60z" fill="#DF3734"/>
<path transform="translate(982,339)" d="m0 0h12l6 4 3 6 1 4v9l-3 10-7 8-10 5-19 5-10 1v-45l9-3z" fill="#E19815"/>
<path transform="translate(392,620)" d="m0 0 9 3 9 5 5 3 11 7 8 4 2 4 2 1v2h2l3 7h-2l4 6v2l5 1 3 4h11l6-1h5l-3 9v8l2 14 7 22 1 7v12l-7-1-8-4-3-6v-20l-3-10v-10l-6-5-10-4-6-4v-2h-2l-2-5h-2l-3-6-6-8-2-1v-2h-2l-4-4-6-5-1-4h-2l-5-5-1-3-4-1-5-9z" fill="#A70D58"/>
<path transform="translate(412,520)" d="m0 0 1 3-3 9 3 5 4 5v2l3 1 6 16 3 4 1 6-1 8 1 2 4 1 14 1v1l-57 9h-5v-12l3-18 5-17 9-17 5-5z" fill="#87084E"/>
<path transform="translate(169,673)" d="m0 0h3l-2 12v15l2 13 7 16 6 9 4 5-15 3-10-1-9-6-6-8-5-12-2-7v-15l3-10 7-6 8-4z" fill="#C0145D"/>
<path transform="translate(546,508)" d="m0 0 13 1 38 5 10 3 6 4 2 5v9l-3 6-7 6-10 3h-9l-7-4-3-5-1-7h-9l-5-4-7-3-8-6-2-8z" fill="#D69B2C"/>
<path transform="translate(591,424)" d="m0 0h12l5 4 3 5 1 5 13-2 18-4 6 1h2l1 6-16 7v5h-4v3l-4 1 1 5-3 2h-8l-25-4-11-4-6-7v-9l3-6 7-6z" fill="#D79A2C"/>
<path transform="translate(507,640)" d="m0 0h1v10l-1 6 5 13 2 6h2l2 3 1 7 3 9h2l4 9 4 16 4 1 5-5 2-1-1 5-12 13-11 7-4 2-3-1-2-4-1-1v-15l-3-12-4-8-3-20-4-10v-6l-1-2 6-5 4-8z" fill="#C93633"/>
<path transform="translate(810,655)" d="m0 0 3 4 2 18h2l3 6 2 2 18 4 1 2h13l14-1 1 4h7l25-5 17-4v3l-39 9-22 5-8 27-5 15-5 1 2-2 4-13 1-8v-3l-1-3-3-1-1-8-12-3-4-2h-2l-3-4-1-4-7-1-2-4v-4h-2l-1 3h-3l-3 8h-3l-1 7h-2l-1 5-3 8-4 10-3 1 3-10 10-31 6-17h3l1-7z" fill="#E3461F"/>
<path transform="translate(241,648)" d="m0 0 1 2-1 7 3 4 2-2 2-7h2l1-2 1 5v17l2 11 5 17 4 4 3 5 12 11 10 5 8 3-1 4-3 3-5 1h-8l-15-6v-2h-3v-2l-4-1-7-7-8-14v-2h-2l-4-16-1-6v-12l3-15z" fill="#A80D58"/>
<path transform="translate(947,676)" d="m0 0 7 3 2 4h7l2 1v3h2v2h5l5 3 8 2h7l13-5 12 3 2-1 2 1-1 12-8 3-29 6-6 2-15 3h-6l-11-33v-3l-4-1 2-1 1-3z" fill="#E3422B"/>
<path transform="translate(292,747)" d="m0 0 6 1v2h2l6 15 9 17 12 19 10 13 5 6-1 5h-4l-1-4-6 2-3-2v-3l-4-2-4-5v-2l-4-1-3-3-2 1-9-11v-2l-4 1-1 3h-2l-10-21-6-20 1-2 4 2v2h2l1-4h2v-3l3-1z" fill="#FD7C7F"/>
<path transform="translate(740,282)" d="m0 0h6v37l-8 1-1-1h-6l-2-5h-2v9l-2 1h-7v-18l-7 15-3 6-6 1-7-16-1-2-1 20-7 2v-38l8-1 8 16 3 7 2-3 8-19 2-7 9-1 2 7 8-5 1-2h2z" fill="#FEFDFC"/>
<path transform="translate(1120,736)" d="m0 0 10 3 13 2 23 1 13 1 4-2h3l4 15-1 5-43 10-4-1 6-3 4-1-16-5-9-2-6-3-3-3-3 3 1-9 3-10z" fill="#DF3636"/>
<path transform="translate(546,605)" d="m0 0h5v2l5 1 2 4 1 13 1 3 1 11v21l-2 17-4 2-1 6-2 4-4-1-1-1-3-15-4-11-1-9-3-9v-12l-1-4 1-9 4-1v-3l2-1-1-4z" fill="#EE5019"/>
<path transform="translate(415,508)" d="m0 0h9l-4 4-6 5h-2l-2 4-8 11-8 17-5 18-2 14-2 21h-1l-1-10-3-3-1-11 2-4h-2l-1-7-1-10-2-5-4-2-2-4v-3l-6 2-4 2 1-3 8-7 7-8 4-5 11-8 16-6z" fill="#FD7C7F"/>
<path transform="translate(386,614)" d="m0 0h1l5 25 5 17 10 23 11 18 11 14 5 6 14 11 13 8 9 4 7 2 9 1v1l-5 1v5l-13 3h-13l-16-3-9-3 1-6-3-7-1-7-2-4-2-1-3-8-3-3-1-5-1-4h-2l-3-4-5-16-2-1-1-4-3-8-1-4h-2l-2-10-5-16-3-15z" fill="#FD7C7F"/>
<path transform="translate(318,421)" d="m0 0 2 3 1 5-1 6-1 5h3v2l8-4 5-1v4l-9 7-12 5-8 2h-17l-10-4-8-9-2-7v-6l23-5h6l2 4 2 1 9-1 4-4z" fill="#C11176"/>
<path transform="translate(393,355)" d="m0 0 9 1 4 5 2 7v23l-3 9-3 5-6 4h-10l-5-6-2-10v-17l2-10 4-6 5-4z" fill="#FEFEFD"/>
<path transform="translate(314,381)" d="m0 0h15l8 4 5 6 4 10v17l-4 13-5 7-7 1-6 3h-2v-2h-3l1-14-3-4 1-10 2-1 1-6 1-7-3-1 1-6 4-3h1l-2-4h-10z" fill="#CD205D"/>
<path transform="translate(361,545)" d="m0 0 2 1-6 11-5 5-1 2h2l-1 7-4 14-4 10-3 8v6l-2 5h-2l-1 3-1-4-11-2-6-5-3-1v-2l-3-1 2-1v-3l1-1h-3l2-6 12-12 7-8 9-8 16-16z" fill="#E2422B"/>
<path transform="translate(234,787)" d="m0 0 2 1 4 10 3 1 4 5v2h2l7 11 4 6v2l4 2 2 4 4 2 7 9 11 9 1 3 4 2 1 3 6 2 7 3 5-1 5-3-2 4-5 4h-2l1 4-8 4h-7v-2l-4-1-4-3v-2l-4-2v-2h-2v-2h-2v-2h-2v-2h-2v-2h-2v-2h-2v-2l-4-2-8-10-10-16-10-19-5-12z" fill="#DF3635"/>
<path transform="translate(1155,625)" d="m0 0 10 1 4 2v3h2l3 8 2 4-1 7-2 1-3-3 1-3-5-1-2-6-2 2v4l-8 5-7 7v2l-7 3h-4v-2l-8-1-1-4-4-1v-1l-2-4 2-6h3v-3h-13l2-4 10-3 12-2 12-3z" fill="#DA254D"/>
<path transform="translate(1220,293)" d="m0 0h2l1 10 2 13 1 1v71h-1l-1-9-7 1-3-1v-3l-2-1 2-5-1-9-2-3-1-31v-6h2l1-5-5-2h-4-1v-7l7-1 1-4 3-7z" fill="#D47E21"/>
<path transform="translate(752,401)" d="m0 0 2 2 3 14 2 2 2-3 2 3 3 16 1 13 6 25 1 4-1 2 2 1-3 6-6 3-5-3-7-1-2-3z" fill="#E19915"/>
<path transform="translate(507,624)" d="m0 0 6 1 3 13 5 14 3 6 2 6 4 9 5 12 3 9 1 13-1 6v7l-3 1-4-4-3-8-2-7-2-5v-3h-2l-4-9-1-7-5-5-3-9-3-10 1-6v-6l-2 4 1-9z" fill="#E2412C"/>
<path transform="translate(1069,208)" d="m0 0h11l6 4 4 8-1 10-6 10-9 6-11 1-6-3-5-6v-12l4-8 5-5 5-4z" fill="#FEFEFD"/>
<path transform="translate(941,747)" d="m0 0h9l-4 2h-6l-1 3-8 3-14 2-12 3-3 2 1 6 5 1h7l5-1 3 3-4 3-6-1v3h-13v-2l-15-2-2-1h-15l-16 3-16 4-5 2 1 8 3 11v16l-4 16-2 5v6l-4 2h-3l3-11 8-24v-8l-10-25v-2l11-3 16-3 12-3 11-2 9-2 15-4 12-2 5-2z" fill="#BF145C"/>
<path transform="translate(512,367)" d="m0 0 5 2 1 5-2 4v22l6 2 2 4 7 1 1-4 3-2h5v2l-8 7-8 10-7 14-4 14-1 5-1 16h-1l-1-5-6 5-2 4-5 1h-2l-4 10-1 5-4 9v9l-11-3-3-2h2l2-5 8-10 8-13 10-21 7-21 4-18 1-9v-17z" fill="#FCC631"/>
<path transform="translate(1202,179)" d="m0 0 2 4 3 4v11l-2 6 2 4 5-5 5 1 4 3v2h9l8-3h19l5-2h5l4 5 11-1 6-2 8 1 3 3-8 8 1 2-26 6-3-1 3-8-6-2h-8l-7 4h-7l-4-4-10 2-2 1h-9l-1-3h-4v-2h-5l-3-4 1-8 4-6-1-8-2-3z" fill="#FD9C01"/>
<path transform="translate(346,456)" d="m0 0h13l5 3 3 5 1 8-3 10-5 6-7 4-4 1h-8l-6-3-4-6-1-9 3-9 5-5 5-4z" fill="#C41776"/>
<path transform="translate(204,690)" d="m0 0 1 2 9-1h18l5 4 4 7v4h-12l-4 1-14 1h-8l-12 1h-11l-4 1-2 6h-2l-2-6-1-14 3-2h3l1-2h20l7-1z" fill="#E53F45"/>
<path transform="translate(839,260)" d="m0 0h16l5 5 2 7-1 10-6 9-8 5-14 4h-4v-37l5-2z" fill="#FEFEFD"/>
<path transform="translate(1393,312)" d="m0 0 1 2 1 12 1 2-3 6-1 4-3 3h12l7 6-1 3-7 6-4-2-1-3-10 1-1 3-5-1-5-2-2 4-6-1-8-12 1-2 8-3 1-2h2l2-6 2-4 12-12 2 2z" fill="#FC9B01"/>
<path transform="translate(1042,448)" d="m0 0h15l4 2-13 3-11-1v2l-4 1-3 3-3 14-5 4-19 8-12 5-14 8-4 4h-3l-2 10-3 1-2-9 5-6 1-2h2l1-5 5-5 5-6 5-3h2v-2l12-7 13-5 11-6 3-3z" fill="#F6A60A"/>
<path transform="translate(445,502)" d="m0 0h7l4 2-1 2h-2v2h-2l2 10 4 7 3 15 5 15 4 16-1 9-3 2-10 1v-7l1-8-1-5-5-11-1-5-4-10-2-11-5-10-1-6 2-5z" fill="#C32745"/>
<path transform="translate(391,592)" d="m0 0h5v2l7 1 8 6 5 3v2l5 1 5 3v2l6 2 7 1v-3h2l1-2-1 17-1 3h-2l-1 2-13-4-4-2v-2l-4-2-21-9-6-3-3-3v-14z" fill="#C83534"/>
<path transform="translate(494,663)" d="m0 0 2 1 1 10 3 6 3 20 4 8 3 12v15l4 3-5 5-4 1h-7v-1h6v-3h-3l-3-16-2-8-3-5-3-8-2-5-1-11-2-10 1-7 1-3-3-1z" fill="#C42845"/>
<path transform="translate(449,584)" d="m0 0h7l-6 7-2 2-4 12-3 7h-2v3l-5 1-8-4v-2l-10-4-1-2-5-3-7-5-7-2v-3l39-6z" fill="#E2402D"/>
<path transform="translate(1099,745)" d="m0 0h2l4 14 8-1 2-4 4-2 3 4 8 3 16 4 7 2-1 2-9 3-1 2-52 12-48 11h-3v-2l5-2h6l4-3 10-2 23-7h5l9-3 14-3-5-4-1-6h-9v-2l-5 1z" fill="#D9264E"/>
<path transform="translate(1182,724)" d="m0 0h1l2 11v6l-6 3-36-2-13-2-7-2-4-1 2-8 1-2h2v2h2v-2l52-1z" fill="#E2422C"/>
<path transform="translate(986,227)" d="m0 0 3 1-1 37-7 1-1-19-4 9-5 12-5 2-7-12-2-7h-2v20l-3 2-5-1v-36l10-2 5 12 6 12 10-24 2-5z" fill="#FEFEFD"/>
<path transform="translate(1064,364)" d="m0 0 4 3v2l5-1v48l-5-1-2-4-6-2-9-2v-2h-10l-8 8-3-1 12-11 7-8 9-16 5-12zm-36 49h2v2l-4 1zm-4 3 2 1z" fill="#D47E22"/>
<path transform="translate(699,579)" d="m0 0 22 1 11 4 5 2 2 6-7 4v2l-31 7h-4l-3-10-5-5-12-2v-1l8-1v-2l8-4z" fill="#E2422B"/>
<path transform="translate(1184,484)" d="m0 0h1l-1 16-3 6-10 2-1 1-28 2-15 2h-3l-10 6-3-1-7-14v-5l4 2 2 5 3 2 8 1v-2l8-1v-2l9-2v-2l2-1 12-1 13-4h3l9-5h4z" fill="#FD9C01"/>
<path transform="translate(929,754)" d="m0 0h10l9 3 16 1 6 3v1l-12 3-6 5-3 3-3-3v-2l-9 1v12l-8 2h-3v-11l-4-1-3-2-4 1h-9v-2h-3l-2-3 1-4 3-2 17-4z" fill="#CD215C"/>
<path transform="translate(397,327)" d="m0 0h14l10 4 6 5 5 8v2l-2 1 1 9-2 1 1 3h-2v-7l-4-4-2-4-5-1-1-2-6-2h-7l-5 3-1 4 2 4 2 1 1-4 1 2h2v2l3 1 1 3-3 3-7-3-6-2-1-2-12-1-2-1 2-9 3-3 2-5v-3z" fill="#E53F44"/>
<path transform="translate(453,593)" d="m0 0 5 2 6 9 3 17 8 28 5 13v5l-3 1-5-2-4-4-3-11-4-10-3-10-3-7-1-6h-2l-2-3-2 1-1-11 2-7 1-3z" fill="#CD1F5C"/>
<path transform="translate(297,792)" d="m0 0 4 1 6 8 4 3 5 4 3 1 6 8 6 5 3-2 3 1v4h4l-1-3 3-1 4 6v6l-3 5-6 1-6 6h-3l-1-6-5-5-10-9-11-14-6-10v-2h-2v-2l2-1z" fill="#E53F44"/>
<path transform="translate(421,510)" d="m0 0 2 1-1 4v9l4 3 4 10 3 7 6 26 3 10v3h-8l-5-2-1-3 1-8-9-21-1-4-4-4-5-6-1-4 3-8-1-1-4 3 2-4 5-5z" fill="#A60D57"/>
<path transform="translate(272,742)" d="m0 0h4l2 13 1 9-13-1-9 1-7 1-10 2h-5l-6-3 1 14-2-3-4-13v-5l9-3 11-4 7-2 9-2 4-2z" fill="#87084E"/>
<path transform="translate(1038,469)" d="m0 0 2 3 3 5 3 20v9l2 10-1 10-2 7-2 8h-2v5h-1l-1 8-1 45-1 63h-1l-1-24v-94l1-10 1-51z" fill="#C32745"/>
<path transform="translate(852,535)" d="m0 0 5 1v2l4 1v3l4 1 4 4 6 2v1h-6v2h-2l-1 2h-3l-1 4-5 1 1 3-11 3-3 4-2 1-1 4-2 4-1 4h-2l-1 8h-2l1 3h-2l-1 5-10 28-6 16-9 27h-2l1-7 3-8 12-36 8-23 8-24 4-10 3-9 5-14h2v-2z" fill="#C43236"/>
<path transform="translate(485,508)" d="m0 0 6 2 14 10 11 10 9 11 1 3-14 4-2 4v10l-2-2v-9l-4 2-5-5-2-5-3-4-2-7-3-6-3-8-3-9z" fill="#E3471F"/>
<path transform="translate(1120,727)" d="m0 0 1 4-7 27-7 2-3-1-3-14h-2l-1 8-3 9-5 2h-4l-4-13-3-11v-3l8-2 1 1 2 15 6-18 2-1h6l3 9 1 5h1l4-16z" fill="#FEFEFD"/>
<path transform="translate(1080,746)" d="m0 0 2 1 4 17 10-3 2-1 2 1v2l10-1 1 7 5 4-6 2-13 3h-4l-1 2h-10l-4-2-1 2v-2l-4 2-7-2 4-9 1-4 4-6 2-12 2 2z" fill="#CD205C"/>
<path transform="translate(1060,740)" d="m0 0h10l5 4 2 5v7l-4 8-6 5-11 2-7-3-2-3-1-8 3-9 7-6z" fill="#FEFEFD"/>
<path transform="translate(1126,195)" d="m0 0h6l1 36-3 2h-5l-10-11-5-7-2-1v24l-8 1 1-37 2-1h6l13 16 2 3z" fill="#FEFEFD"/>
<path transform="translate(965,762)" d="m0 0 7 1 5 4 1 2v11l-5 8-8 5h-10l-5-3-2-5v-7l3-8 7-6z" fill="#FEFEFD"/>
<path transform="translate(1289,356)" d="m0 0 5 1 6 9 13 22 2 4-26 6h-2v-41z" fill="#D47D22"/>
<path transform="translate(268,770)" d="m0 0h7l6 3h3l9 20 2 9-3 6-1-2-3 1v-2l-4-2-11-9-6-7-5-6-3-7 7-3z" fill="#BF0D75"/>
<path transform="translate(1254,555)" d="m0 0h1l1 40 17-3 15-4 17-4 16-3 14-4 10-1v54l-18 4-25 6-5-1 3-2 32-7 1-1h5l1-3 4-2v-29l-5-10-7-1-5 2-15 1-9 3-12 2-6 2-5 1-8 2-13 1-4-1-1-1v-39z" fill="#B51C4F"/>
<path transform="translate(982,339)" d="m0 0h12l2 2-16 1 3 1h6l6 4 2 5v10l-1 3-6 1-2-4-5-1-3-3-6-1-9 2-4-1v-10h-3l-1 8h-1v-11z" fill="#D47D22"/>
<path transform="translate(684,296)" d="m0 0h1v29l-1 3h-6l-4-4-1 11-6 2h-2v-38l7-1h3z" fill="#FDC733"/>
<path transform="translate(978,739)" d="m0 0h9l4 1 25 2 6 2h13v2l3 1h-2v16l-4-2-8-10h-7v-2l-17 2-11-2-6-4-4-1-21 4-6 2-9 2-4-1 1-2 6-1v-2z" fill="#DD3749"/>
<path transform="translate(1044,724)" d="m0 0h7l7 3 10 2 16 4 6 1v-2l7-1 3 1-4 2-5 19-2-2-2-15-8 1 2 9-2 4-3-1-3-6-3-2-7-1-4-1h-14l-4-3v-2l-3-1v-5h-3v-2z" fill="#E2432D"/>
<path transform="translate(740,282)" d="m0 0h6v37l-8 1-1-1h-6l-2-5h-2v9h-1v-33l2 3 8-5 1-2h2z" fill="#FDC733"/>
<path transform="translate(876,549)" d="m0 0h8l5 1 6 1 5 4-5 8-2 10-2-1v-2h-13-3l-4-3-5 1-1-3-5-2 1-5 2-4h3l1-3 2 1v-2z" fill="#DC3346"/>
<path transform="translate(421,441)" d="m0 0h5l-1 8-13 3v5l9-1 1 1v7l-11 2v14l-1 1h-10v-34l2-2z" fill="#E7464D"/>
<path transform="translate(1175,616)" d="m0 0h3v51h-2l-1-8-2-4 2-13-4-7v-4h-2v-3l-11-2-5 1-17 4-16 3-7 2h-12l-1-3 1-14h1v14l36-8z" fill="#B82445"/>
<path transform="translate(449,627)" d="m0 0 4 1 3 4 4 17 8 16-1 4-3 1h-11l-1-3-3-1-4-2-4-6 1-3-1-4h6l1-14-1-6 1-3z" fill="#BF0D77"/>
<path transform="translate(1071,295)" d="m0 0 2 1 1 29v112h-1l-1-67-4-1-4-4-1-4 1-7v-31l3-3v3h2l1-12v-13z" fill="#D69B2C"/>
<path transform="translate(1041,745)" d="m0 0 2 1v27l-3 3-5-1-8-9-2-3-1 15-2 2h-6v-29l8-1 10 12 2 1v-16z" fill="#FEFEFD"/>
<path transform="translate(935,239)" d="m0 0h8l2 1 2 6v19l-7 2-4-4-1 13-7 2-1-1v-20l1-16 1-1h5z" fill="#FDC733"/>
<path transform="translate(393,447)" d="m0 0h4v8l-14 3-1 6 7-2h4v6l-1 2-10 1v15l-10 1v-35l5-2z" fill="#D73262"/>
<path transform="translate(384,714)" d="m0 0 5 2 11 12 9 8 10 7 7 4v2l-24-3-13-2-19-3 1-3 16 2h7l-6-1-2-7 1-2-3-8v-3z" fill="#890B4C"/>
<path transform="translate(167,702)" d="m0 0h2l5 16 8 16 7 8-3 2-12 2-10-1-9-6v-2l6-2 1-2h2v-15l1-1z" fill="#86084D"/>
<path transform="translate(487,592)" d="m0 0 5 1 7 9 5 10 2 9v20l-1 8-3 1-4-6-2-10-5-15v-8l-3-12-1-1z" fill="#EE4E19"/>
<path transform="translate(167,685)" d="m0 0h1l1 13 1 2v6l-1-4h-2v8l-1 7-1 4v10l-1 2h-2l-1 3-7 2-6-9-5-13-1-4v-15l2-6h2v14l1 13 4 4h2l12-30z" fill="#A90F56"/>
<path transform="translate(811,266)" d="m0 0h6v5l-6 2-8 1 1 9 8-2h4v5l-7 3-6 1v10l9-3h5v5l-3 2-14 3h-5v-37z" fill="#FEFEFD"/>
<path transform="translate(1021,219)" d="m0 0 2 1-1 5-9 3h-4v10l9-3 4 1-1 5-12 4-1 8 9-2h6v5l-8 3-9 2h-5v-37l12-3z" fill="#FEFEFD"/>
<path transform="translate(973,571)" d="m0 0 3 4 7 17 4 5 2 3 10 25 14 36 5 11 5 13 6 15v2l-9 2-1-2 1-10-5-15-2-3v-3h-2l-5-17-5-10-5-12-5-15-4-7-3-8-4-10-7-18z" fill="#CB3932"/>
<path transform="translate(688,498)" d="m0 0h3l2 4 4 16 6 13-22 3h-5l3-17 1-17 5 4 3-4z" fill="#D89B2B"/>
<path transform="translate(428,397)" d="m0 0 2 1-2 7-1 10-7 9-10 7-4 2h-3l-1-2-10 1-5-5-2-5 2-6 11-6-2-2 7-4v5l-2 3-2 7-2 5 7 1 3 1v-2l2-1 1-3 5-2 3-5h-2v-2l5-3 2-3 2-7 2 1z" fill="#DD3547"/>
<path transform="translate(940,768)" d="m0 0h5v29l-2 1h-6v-11l-11 2v12l-2 1h-6v-28l3-2h5v11l11-2v-12z" fill="#FEFEFD"/>
<path transform="translate(676,424)" d="m0 0 9 2 5-2v56l-4-4v-2l-2 1-1 3-2-1 1-22-2-23h-5l-4 2-2-3v-2l-3-2z" fill="#D69B2C"/>
<path transform="translate(255,522)" d="m0 0 4 2 7 7 14 10 19 10 18 6 15 3 9 1 2 2-16 15-2-4v-3l-3-1-11-11v-2l-6-1-9-4-7-1-1-3-5-2-5-1-7 1-5-5-1-4 1-4-4-2-5-2h-2v-3l-2-1h2z" fill="#FDC531"/>
<path transform="translate(763,419)" d="m0 0 2 1 3 14v3l2 1 3 12 1 3h2l2 4h2v2h2l1-2 5 10-1 10-5 1-1 3-4 1v2l-4 1 1-5-2-7-6-25-1-13-2-10z" fill="#F6A60B"/>
<path transform="translate(1070,214)" d="m0 0 7 1 5 5v11l-4 6-5 3-7 1-6-4-1-2v-9l4-8 4-3z" fill="#FDC630"/>
<path transform="translate(448,583)" d="m0 0h16l5 5 4 15 4 13 4 15 6 18 2 10 1 6-6 1-1-6-3-15-4-10-4-13-4-17-9-18-4-2h-14v-1z" fill="#DB3345"/>
<path transform="translate(387,608)" d="m0 0 8 4 17 7 8 5v2l9 3 8 2 1 6-1 3h-2v2l-5-1-7-4-8-5-5-3-11-6-7-3-2-1-1-3v10h-1l-1-6z" fill="#B71E4E"/>
<path transform="translate(1103,711)" d="m0 0h6l-3 2-8 1v2l-9 4-3 3-1 4 6 2 1 3h-2v2l-11-1-15-4-7-1-9-4v-1l37-8z" fill="#E3461F"/>
<path transform="translate(1188,459)" d="m0 0h5l-2 2v58l-1 144 2 1-4 1z" fill="#AD1B49"/>
<path transform="translate(993,756)" d="m0 0h7l4 4v7l-3 5-9 4h-3v11l-7 1v-29l6-2z" fill="#FEFEFD"/>
<path transform="translate(995,226)" d="m0 0 6 2v34l-11 1-2-1v-33z" fill="#FDC631"/>
<path transform="translate(1374,416)" d="m0 0h5l-3 2h-2l1 6v3l-4 1-5-1-4 7 1 5-1 2-6 1-2-4h-6l-3 1-1-2v-12l-1-2z" fill="#E19815"/>
<path transform="translate(296,728)" d="m0 0 8 1-2 4-4 2 1 15-1-2h-5l-2 3h-3v3l-2 1-1 3h-2v-2l-6-1-1-3v-10l-9 2 5-4 2-1-1-5 6 1h8l6-2z" fill="#B11A4F"/>
<path transform="translate(386,604)" d="m0 0 12 3 11 5 11 4 7 3 7 1 1-5h4v-3h2l1-2-1 17-1 3h-2l-1 2-13-4-4-2v-2l-4-2-21-9-6-3-3-3z" fill="#C42845"/>
<path transform="translate(458,582)" d="m0 0h16l-2 4 4 4 2 13 7 23 5 19 4 13 4 2-4 2v2l-4 1-3-11-6-21-3-9-5-19-6-18-3-3-6-1z" fill="#DF3635"/>
<path transform="translate(902,776)" d="m0 0h8l4 3v4l-13 1-1 3 12 2 2 1v10l-5 5-10 2-5-2-1-5 5-2 9 2-1-4-10-2-3-3-1-5 3-6z" fill="#FEFEFD"/>
<path transform="translate(684,474)" d="m0 0h2l4 6 1 12 1 9-1-3-2 2-3 5-4-2-1-2-1 7h-1l-2-13-6-12-7-7v-1l11 1 6 2h2z" fill="#FD9D01"/>
<path transform="translate(1200,179)" d="m0 0h2v6l-7 17-4 16-5 2-1-1-1-13-5-7-4-9-2-3 1-2 7-1 4 7 2 4v3l3-3 8-15z" fill="#FEFEFD"/>
<path transform="translate(1118,739)" d="m0 0 2 3-1 4 8 1 7 3 13 3 6 3 1 2 10 3-3 3-12 1-13-4-9-2-6-3-3-3-3 3 1-9z" fill="#DC3345"/>
<path transform="translate(278,756)" d="m0 0 2 4 3 12-2 2-6-3h-7l-10 4-16-1-5-2v-2l-5-1v-2h-3v-3l5 1 4 1 6-1 11-1 10-2h8l6 2z" fill="#A80D57"/>
<path transform="translate(236,789)" d="m0 0 8 6 7 11 3 5 3 4v2l4 1 10 10v2l4 2 2 4h2v2l4 1 7 8 8 8 10 5 4 1v3l-5 1-13-6-7-8-11-9-6-7v-2l-5-2-3-5-4-4-7-11-2-5h-2l-5-7-3-3-3-4z" fill="#DC3346"/>
<path transform="translate(449,584)" d="m0 0h7l-6 7-2 2-1 4-13 6-6-2-5-5-1-3h-2v-2l-3-1 6-3 12-2z" fill="#ED4D1A"/>
<path transform="translate(850,514)" d="m0 0 2 1-5 10-1 14-3 8-3-3-1-3-10 1-10 4-12 2-6 3-5 1v-2l17-7 16-10 10-8 9-8z" fill="#D89A2D"/>
<path transform="translate(1142,767)" d="m0 0h6l-3 2-3 3-52 12-48 11h-3v-2l5-2h6l4-3 10-2 23-7h5l9-3 17-4 9-2h3z" fill="#C92D3F"/>
<path transform="translate(975,435)" d="m0 0 3 2-9 3-1 3-6 2-1 49-2 2-2-1-1 2-1-18v-39z" fill="#D69B2D"/>
<path transform="translate(985,341)" d="m0 0h13l4 5 2 7v9l-3 10-7 8-10 5-4 1-1-3-2-2 14-7 3-6 2-1v-18l-2-1-5-4h-9v-2z" fill="#D99829"/>
<path transform="translate(279,625)" d="m0 0h3l-1 4-5 2-4 2-2 2-2-1 1 3h-4v2l-5 2v3h-2v2l-3 2-2 3-1-5-2-2-2-1v2l-6 2 1-6 6-7 10-6 8-2z" fill="#B9234F"/>
<path transform="translate(841,266)" d="m0 0h9l4 4v13l-4 5-11 4-2-1v-23z" fill="#FDC52E"/>
<path transform="translate(901,556)" d="m0 0 4 1 2 4 3 17 4 13-1 2-4-8-8-22h-1l-5 17-5 14-7 25-4 13-3 10h-2l3-16 5-16 4-14 5-17 3-13v-4l2-2 2-1 1-2z" fill="#CB3635"/>
<path transform="translate(924,820)" d="m0 0 5 1-2 2-16 5-19 4-17 4-23 6-13 3h-11l1-2h4v-2l25-6 9-2 33-7 15-4z" fill="#FCBA2D"/>
<path transform="translate(1178,617)" d="m0 0h1v51l-69 16-49 11-6 1 3-3 28-7 31-7 23-5 11-3 17-4 2-2 2-8 4 2v8h2z" fill="#CF3A2E"/>
<path transform="translate(911,244)" d="m0 0h5v5l-9 3-1 31-6 2-1-1v-23l1-8-10 1-2-1 1-4 17-4z" fill="#FEFEFD"/>
<path transform="translate(391,331)" d="m0 0h7l1 3-5 2-1 4 4 3 1 6 3 3 1-4 1 2h2v2l3 1 1 3-3 3-7-3-6-2-1-2-12-1-2-1 2-9 3-3 3-6z" fill="#DC3345"/>
<path transform="translate(783,273)" d="m0 0h2l1 4-2 2-10 2v31l-7 1v-30l-10 1v-5l21-5z" fill="#FEFEFD"/>
<path transform="translate(873,763)" d="m0 0 3 1-6 2-13 3-9 3-8 2-8 3-2 1-1 6h2l4 15v16l-4 16-2 5v6l-4 2h-3l3-11 8-24v-8l-10-25v-2l11-3 16-3 12-3z" fill="#A41151"/>
<path transform="translate(636,305)" d="m0 0h6l1 22 1 8 9-2 1 1v5l-5 2-9 2h-5v-37z" fill="#FEFEFD"/>
<path transform="translate(1220,293)" d="m0 0h2l1 10 1 12-3 4-8 1v-4l-5-2h-4-1v-7l7-1 1-4 3-7z" fill="#D47D20"/>
<path transform="translate(338,341)" d="m0 0h3v10l-1 14-3-1-3-3-10-4v-3l-5-5h-5v-3z" fill="#C0175D"/>
<path transform="translate(1157,379)" d="m0 0 3 2h-2v2h-2l-2 6-2 2-2 4-9 2-2 11-2-3-1 12h-1l-1-13v-19l14-4z" fill="#D58224"/>
<path transform="translate(1147,191)" d="m0 0h5l1 30 4-1h7l1 5-16 4h-4v-22l1-15z" fill="#FEFEFD"/>
<path transform="translate(169,673)" d="m0 0h3l-2 12-1 13h-1l-1-10-3 8-3-1-3-3v-2l-9 1-1 3h-2v-3h-2l2-5 6-5 8-4z" fill="#B61F4D"/>
<path transform="translate(1312,392)" d="m0 0h4l13 22 2 5-4-4-2-5-4-1-3-5-3-2v-3l-10 2-12 4-2-3-2 32h-1l-1-36 15-4z" fill="#88094D"/>
<path transform="translate(1254,555)" d="m0 0h1l1 40 17-3 15-4 17-4 16-3 14-4 10-1-1 2-18 4-13 3-20 5h-5l-1 3-5 2-6 1-11 2h-10l-2-2v-39z" fill="#B11A50"/>
<path transform="translate(641,208)" d="m0 0h4l-1 5-24 34-4 5-6 2-2 1 2-5 13-17 10-15 7-9z" fill="#FDC530"/>
<path transform="translate(1187,471)" d="m0 0h1v194l2 1-5 1-5-4v-10l2-1 1-5 2 3 1 3z" fill="#FD9201"/>
<path transform="translate(670,298)" d="m0 0h2l1 37-6 2h-2v-38z" fill="#FEFEFD"/>
<path transform="translate(421,441)" d="m0 0h5l-1 8-13 3-1 5-2-3-1-2-2 2h-3v19h-1l-1 8h-1v-34l2-2z" fill="#E74C5A"/>
<path transform="translate(955,346)" d="m0 0 2 4 1-2h3l1 28v3l-1 5 6-1-2 3h-2v4l-8 1z" fill="#D5982B"/>
<path transform="translate(393,447)" d="m0 0h4v8l-14 3-1 5h-1v-5l-2 1-1 10-2-2-1 15-2 2-1-32 5-2z" fill="#DC3A61"/>
<path transform="translate(303,731)" d="m0 0h12l3 3-4 9-9 2-1 6-2 2-4-7-1-11z" fill="#FCC530"/>
<path transform="translate(740,282)" d="m0 0h6v37l-7 1v-37z" fill="#FEFEFD"/>
<path transform="translate(295,799)" d="m0 0 3 4 7 11 3 3 3 7 1 4 6 3-1 3-4 1-4-2-1-6h-2l-3-5-7-4v-2l-5-4v-2h-2l1-4 2 1z" fill="#C1155C"/>
<path transform="translate(428,397)" d="m0 0 2 1-2 7-1 10-7 9-10 7-3 1v-4l-3 1 1-3h2v-2l2-1 1-3 5-2 3-5h-2v-2l5-3 2-3 2-7 2 1z" fill="#E64145"/>
<path transform="translate(253,697)" d="m0 0 5 1 2 4 3 2 3 5 12 11 13 7 1 2-6 2-4-2-9-6-11-9v-2l-4-2-4-7-1-1z" fill="#86084E"/>
<path transform="translate(462,412)" d="m0 0h2l-1 5-8 16-8 15-1 1h-6l2-6 8-15 7-14z" fill="#CA2560"/>
<path transform="translate(193,1058)" d="m0 0h8l3 2 8 1h5v4h-53v-2l3-3 19 1 2-2z" fill="#F6A80B"/>
<path transform="translate(929,240)" d="m0 0h5l1 36-7 2-1-1v-20l1-16z" fill="#FEFEFD"/>
<path transform="translate(226,472)" d="m0 0 2 2 7 17 8 14v3l-2-1v4l-5-1-7-13-2-7-2-6-2-8 2-1z" fill="#FDC733"/>
<path transform="translate(347,465)" d="m0 0h6l4 4v8l-4 5-7 2-5-4-1-5 3-7z" fill="#FEFEFD"/>
<path transform="translate(1063,473)" d="m0 0 1 3h2v4l2 1-1 4v3l-2 3v2l2 1v2h2v5l-3 1-1-4-2-1v-2h-2l-3-7-5-5-2-4-2-1 2-4 2 3 5-3 4 1z" fill="#BF145C"/>
<path transform="translate(250,821)" d="m0 0 7 6 6 7 6 9 6 8v4h2l3 5v2h-2v-2h-2v-2h-2v-2h-2v-2h-2v-2l-4-2-8-10-7-11z" fill="#E3432A"/>
<path transform="translate(892,489)" d="m0 0h2v37l-5-10-1-9v-10l-7-1h-7l-2-2 1-2z" fill="#B41D4E"/>
<path transform="translate(1185,744)" d="m0 0h2l3 12-1 5-43 10-4-1 6-3 5-2 1-1 9-2 17-4 4-8h2z" fill="#CB3832"/>
<path transform="translate(1331,583)" d="m0 0 7 1 4 6 2 5v34l-2-4h-3l-1-16-1-11 1-5-2-1v-3l-3-3-3-1z" fill="#BD135B"/>
<path transform="translate(941,747)" d="m0 0h9l-4 2h-6l-1 3-8 3-14 2-6 2h-7l-9 3-9 2h-8l1-2 13-4 17-3 5-2z" fill="#B82643"/>
<path transform="translate(914,249)" d="m0 0h3l3 5h-2v6l-4 9-3 3h-5v-20z" fill="#FDC631"/>
<path transform="translate(580,599)" d="m0 0 6 1-1 5-1 2h-2l-2 5-12 1-6-3 1-2 3-2-1-5z" fill="#DF991A"/>
<path transform="translate(963,769)" d="m0 0 6 1 2 3v6l-4 6-4 2-6-1-2-4 1-8 4-4z" fill="#C71B77"/>
<path transform="translate(1393,299)" d="m0 0 1 2-3 9-13 13-2 3h-2l-2 6-2 4h-2l-2 4-9 2-2-6 12-7 12-11 8-9z" fill="#E19816"/>
<path transform="translate(255,522)" d="m0 0 4 2 7 7 14 10 19 10 3 2-6-1-7-1-1-3-5-2-5-1-7 1-5-5-1-4 1-4-4-2-5-2h-2v-3l-2-1h2z" fill="#FDC52F"/>
<path transform="translate(1099,563)" d="m0 0h1v70h-1l-1-21 1-4-3-1-1-12-1-2h2l-1-6v-12l-1-3h2v-3l-2-1 4-1z" fill="#C42745"/>
<path transform="translate(1060,747)" d="m0 0h7l2 3v8l-4 5-2 1h-6l-3-4 1-9z" fill="#D03951"/>
<path transform="translate(932,604)" d="m0 0 1 2 4 2 6 11 3 5v5h-2l2 7-6-1-1 2 5 2-3 1-4-3-1 2-3-1-1-3 3-5 1-5 2 3-1-7 1-2-5-10z" fill="#E53F44"/>
<path transform="translate(857,506)" d="m0 0 1 2-6 21-9 25-3 8-2-3-1-3 4-5 4-13 1-13 5-11z" fill="#F59009"/>
<path transform="translate(702,592)" d="m0 0 20 4h7l3 2-31 7h-2l-1-7 1-2h2z" fill="#E4471E"/>
<path transform="translate(1182,724)" d="m0 0 1 4-1 4h-19l-3-1h-13l-20-2-1-2 52-1z" fill="#E4461F"/>
<path transform="translate(440,416)" d="m0 0h6l3 5-2 7-5 4h-6l-3-4 1-8z" fill="#C52072"/>
<path transform="translate(830,589)" d="m0 0 3 1 1 3h-2l-1 5-10 28-6 16-9 27h-2l1-7 3-8 12-36 8-23z" fill="#CC3D30"/>
<path transform="translate(462,430)" d="m0 0h7l2 2v7l-3 5-7 2-5-3v-7l3-5z" fill="#DF3851"/>
<path transform="translate(397,327)" d="m0 0h14l10 4 6 5 5 8v2l-4-1-6-8-5-4-7-2-4 1-7 2-2-2h-13l1-2z" fill="#DF3E3F"/>
<path transform="translate(919,1060)" d="m0 0 28 1v2l2 2h-51v-2l9-2 12 1z" fill="#F6A60B"/>
<path transform="translate(1014,752)" d="m0 0h2v10l-1 8-5 1-6-2-1-12z" fill="#CC1E5C"/>
<path transform="translate(1213,248)" d="m0 0 7 1v3l-2 1v3h3l1 3 4 1v11l-1-3h-2l-1 2v-2h-9z" fill="#FD9C01"/>
<path transform="translate(1097,777)" d="m0 0 3 1-3 2-7 4-48 11h-3v-2l5-2h6l4-3 10-2 23-7h5z" fill="#BD234A"/>
<path transform="translate(517,739)" d="m0 0 2 1-10 5-10 3-6 4-10 1-5 2-10 3h-9l-6-1v-2l-4-1 21-1 16-3 8-4 15-4z" fill="#FDC733"/>
<path transform="translate(486,593)" d="m0 0h1l5 18v8l6 18v7l-4-5-4-9-4-20z" fill="#E4461F"/>
<path transform="translate(304,728)" d="m0 0h10l3 1 25 3 21 4 2 2h-14l-36-6-11-1z" fill="#CB2E3E"/>
<path transform="translate(1410,326)" d="m0 0 5 1 6 7-2 4-7 5-3-2v-2l-4-2-1-1v-6l3-1v-2z" fill="#FE8C00"/>
<path transform="translate(340,837)" d="m0 0h3l-2 4-12 14-7 8-8 6-7 2 1-3 9-7 8-8 9-11z" fill="#8D0C4B"/>
<path transform="translate(685,411)" d="m0 0 5 1v12l-5 3-7-2-2-5v-5z" fill="#FD9C01"/>
<path transform="translate(1299,507)" d="m0 0 4 1 9 3 1 5-3 3h-2l-1 2-5 2-4 2-2-1 3-9h-2v-5z" fill="#BF0D76"/>
<path transform="translate(978,739)" d="m0 0h9l-2 1v2l-6 2-21 4-6 2-9 2-4-1 1-2 6-1v-2z" fill="#C7333C"/>
<path transform="translate(507,650)" d="m0 0 2 4 4 2 5 19 4 9 5 14-1 4-2-5v-3h-2l-4-9-1-7-5-5-3-9-3-10z" fill="#E03636"/>
<path transform="translate(68,916)" d="m0 0 4 1 6 7-1 3-7 6-4-1v-2l-3-1-3-5h2l2-4z" fill="#FD9C01"/>
<path transform="translate(279,625)" d="m0 0h3l-1 4-5 2-4 2-2 2-2-1 1 3h-4v2l-4 2-5-5 3-5 3-1 4 1v-2h2l-1-3z" fill="#C42844"/>
<path transform="translate(892,579)" d="m0 0 2 1-2 9-4 13-7 23-5 17h-2l3-16 5-16 4-14 5-16z" fill="#CA3E31"/>
<path transform="translate(1190,178)" d="m0 0 6 2 2 2-8 15-3 1-5-12h2l1-5z" fill="#FDB70B"/>
<path transform="translate(1101,619)" d="m0 0h1v14l17-2 26-6 11-2-1 3-6 2-13 3-16 3-7 2h-12l-1-3z" fill="#C02546"/>
<path transform="translate(648,250)" d="m0 0h2l-2 7-5 2-6 2-11 8-1 2-6 3h-2v2l-6 3-3 4h-5l5-5 13-10 18-12z" fill="#FDC329"/>
<path transform="translate(334,820)" d="m0 0 3 1v4h4l-1-3 3-1 4 6v6l-3 5h-7l-1-8-3-4v-2l-2-1v-2z" fill="#EC4D21"/>
<path transform="translate(573,532)" d="m0 0 4 1 3 7 4 2 9 1 11 1 1 3-10 3h-9l-7-4-3-5-1-7z" fill="#FC9F02"/>
<path transform="translate(916,600)" d="m0 0h2l5 15 5 12 1 8-7 3-25 6-4 1v-3l18-5 15-3-1-7-5-12-4-12z" fill="#CC3733"/>
<path transform="translate(82,903)" d="m0 0 8 6 1 4-8 7-4-2-5-5 2-4z" fill="#FC9D02"/>
<path transform="translate(248,643)" d="m0 0h4v2l2 1h-2l1 4 4-4-3 9-1 5h-1l-1-9-3 1-1 8-4 2-3-5 1-12h3 4z" fill="#C0145C"/>
<path transform="translate(957,812)" d="m0 0 4 1-21 5-16 3-9 2-20 5h-3v-2l16-5 12-3 10-2 10-1 10-2z" fill="#B11651"/>
<path transform="translate(351,582)" d="m0 0 5 1 3 2 2 5-1 3h-3l-4 9v30h-1l-2-31v-10z" fill="#DB3246"/>
<path transform="translate(1434,297)" d="m0 0 2 1-3 5-5 8-6 3-4 6 2-1 3 6 6 3-3 3-4-1-6-6v-8l3-5 5-4 5-5z" fill="#FDA002"/>
<path transform="translate(1068,293)" d="m0 0h2l1 22-2 8h-4l-2 3-4-11v-2l6-4h2z" fill="#FD9D01"/>
<path transform="translate(973,231)" d="m0 0 4 1 1 4-9 22-2 1-2-7 2-4 2-11z" fill="#FDC52F"/>
<path transform="translate(95,891)" d="m0 0 4 2 5 5-2 4-4 1-2 4-4-2-5-6 2-4 5-3z" fill="#F8A007"/>
<path transform="translate(1344,590)" d="m0 0h1v40l-18 4-25 6-5-1 3-2 32-7 1-1h5l1-3 4-2z" fill="#BF2745"/>
<path transform="translate(1413,353)" d="m0 0 6 2 2 7-8 7-4-2-4-4 2-4z" fill="#FD9B00"/>
<path transform="translate(56,878)" d="m0 0 3 1 1 2 4 2 1 4-8 7-4-2-5-6h2l2-4 4-2z" fill="#FBAD09"/>
<path transform="translate(314,381)" d="m0 0h15l8 4 5 6 2 4-1 9-4-5-1-6-3-3h-2v-3h-3l-5-1-2-2h-10z" fill="#C61F62"/>
<path transform="translate(709,293)" d="m0 0 5 1-1 7-7 17-3-4-1-4 4-14z" fill="#FDC52F"/>
<path transform="translate(1424,340)" d="m0 0h3v2l3 1 4 6-7 7h-2v-2l-4-2-3-4 4-7z" fill="#FD8E01"/>
<path transform="translate(1341,576)" d="m0 0 4 1-21 6-20 4-11 3h-5v2l-19 3-4-1 1-1 9-2 30-7 16-3 14-4z" fill="#9F1B47"/>
<path transform="translate(607,430)" d="m0 0 3 1 2 7h6l-2 4-3 2h-10l-3-5 2-5z" fill="#E19916"/>
<path transform="translate(148,944)" d="m0 0 4 2 4 6-7 7-4-2-6-5 1-5 2 1z" fill="#FD9C01"/>
<path transform="translate(1100,479)" d="m0 0h3l-1 33-2-1-2-13v-10l-3-3v-2l-6 1v-2z" fill="#A70D58"/>
<path transform="translate(1030,727)" d="m0 0 3 1-7 3-9 3-8 1-18 6h-6l-2-3 43-10z" fill="#CB3C31"/>
<path transform="translate(1178,617)" d="m0 0h1v51l-19 4 1-3 8-3 3-9 4 2v8h2z" fill="#D84029"/>
<path transform="translate(708,114)" d="m0 0 1 3-1 1-2 9-2 3-4 1-3 5-5 2-2 5-3 4-3-1 6-9 10-12 7-10z" fill="#FDC631"/>
<path transform="translate(1399,341)" d="m0 0 5 2 4 5-8 8-4-2-1-3h-2l-1-3z" fill="#FE8E00"/>
<path transform="translate(1043,747)" d="m0 0h1l1 8h1l3 12 3 2 1 4-1 3h-6l-4-1v-20z" fill="#D02660"/>
<path transform="translate(753,483)" d="m0 0 1 2h7l6 4 4 6v3l-8-1-8-7-2-4z" fill="#FD9E02"/>
<path transform="translate(832,804)" d="m0 0 2 2-2 10-7 20-2 1-1-5 3-11 4-15z" fill="#FABA2D"/>
<path transform="translate(1071,447)" d="m0 0h3v14l-1 23h-1l-1-13v-16l-10-1-4-2 4-1v-2z" fill="#A00E54"/>
<path transform="translate(809,288)" d="m0 0h8l-1 7-4 3-9 2v-10z" fill="#FDC52F"/>
<path transform="translate(1206,733)" d="m0 0 3 4-1 4-1 2h2l-2 4h-2l1 6-4 2-4-2-1-5-3-2 9-3 2-9z" fill="#F6A60B"/>
<path transform="translate(955,479)" d="m0 0h1l1 16 4-1 1 6-2 12-2 5h-2l-1-7z" fill="#FC9E02"/>
<path transform="translate(425,740)" d="m0 0h7l-1 7 11 3 13 2v1h-11l-20-3 2-1-5-5 1-3z" fill="#DC3F2E"/>
<path transform="translate(1035,638)" d="m0 0h1l1 24v36l8-2h5l-1 2-14 3z" fill="#CB3732"/>
<path transform="translate(1225,402)" d="m0 0h1v11l-13 1v-8l-2-1 11-2 3 1z" fill="#D8992A"/>
<path transform="translate(1190,606)" d="m0 0h1v56l20-5h8v2l-18 4-9 1-2-1z" fill="#C42A41"/>
<path transform="translate(1438,355)" d="m0 0 4 1 3 2v3l2 1-3 1-2 4-4 2-7-7 5-5z" fill="#FE8C00"/>
<path transform="translate(807,273)" d="m0 0h9l1 5v3l-14 3v-10z" fill="#FDC52E"/>
<path transform="translate(312,593)" d="m0 0v3l-2 5-12 9-2 4-5 3-1 4-1 2-8 2 2-4 18-18 8-7z" fill="#D03B2E"/>
<path transform="translate(1070,214)" d="m0 0 7 1 5 5v8l-8-8h-5l-4 3h-4l2-5 4-3z" fill="#FDB70C"/>
<path transform="translate(193,1058)" d="m0 0h8l3 2 8 1h5v4h-16v-2h-15l2-4z" fill="#F6A60B"/>
<path transform="translate(997,341)" d="m0 0 5 5 2 7v9l-3 9-3-3v-20z" fill="#D98224"/>
<path transform="translate(933,770)" d="m0 0h3l1 2v9l-8 2h-3v-9l5-3z" fill="#C41676"/>
<path transform="translate(1338,440)" d="m0 0 5 1-2 2-4 1v2l-8 4-14 1-3-1 9-4 8-1v-2z" fill="#E29415"/>
<path transform="translate(1186,918)" d="m0 0 4 2v7l-8 4-6-5v-4h7l1-3z" fill="#FEB80C"/>
<path transform="translate(1092,731)" d="m0 0h8l-4 3-5 19-2-2-2-15-1-2h4v-2z" fill="#E6463B"/>
<path transform="translate(296,735)" d="m0 0h1l2 11-1 4v-2h-5l-2 3h-3v3l-2 1-1 3h-2v-2l-5-2 1-3h4l5-5h3l1-3 4 1z" fill="#E34142"/>
<path transform="translate(1104,682)" d="m0 0 6 1v1l-49 11-6 1 3-3 28-7z" fill="#D33C2D"/>
<path transform="translate(879,346)" d="m0 0 9 1 4 1-1 5-4 3h-9v-9z" fill="#FD9C01"/>
<path transform="translate(1013,227)" d="m0 0h8v7l-6 3-6 1v-10z" fill="#FDC52F"/>
<path transform="translate(554,599)" d="m0 0 19 1v1h-8l2 6-7 3h-4l-2-9z" fill="#FB9C03"/>
<path transform="translate(1219,413)" d="m0 0h7v36h-1l-1-32h-7l-2 3-1 25h-1v-31z" fill="#88094D"/>
<path transform="translate(1289,356)" d="m0 0 5 1 5 7v2l-8 2h-4v-11z" fill="#D7952D"/>
<path transform="translate(1425,368)" d="m0 0 6 2 1 4v2l-5 4-6-2-2-2 1-5z" fill="#FE8D00"/>
<path transform="translate(82,878)" d="m0 0 4 2 5 5-2 5-5 2-1 3-3-3h2v-6l-4-3z" fill="#FC9B01"/>
<path transform="translate(752,450)" d="m0 0h1l1 15 3 12 5 7-1 2-7-1-2-3z" fill="#D79B2C"/>
<path transform="translate(832,820)" d="m0 0 1 4-3 10-1 7-1 2-6 1 3-11 4-12z" fill="#A41053"/>
<path transform="translate(1331,482)" d="m0 0h3v51h-2v-44h-3v-2l-5-1 1-3z" fill="#A70E55"/>
<path transform="translate(717,305)" d="m0 0 2 1v13l-1 5h-6l-2-1 3-9z" fill="#FDC329"/>
<path transform="translate(1099,745)" d="m0 0h2l4 15v3h-5v-2l-5 1z" fill="#DC2F56"/>
<path transform="translate(462,412)" d="m0 0h2l-1 5-8 16-1-3 1-5h-3l2-6 4-6z" fill="#D12B60"/>
<path transform="translate(1294,540)" d="m0 0h9l-4 2-26 6-8 2-9 1 3-3 27-6z" fill="#C62C40"/>
<path transform="translate(361,545)" d="m0 0 2 1-6 11-6 5-8 1 1-3 8-7z" fill="#EF531D"/>
<path transform="translate(228,767)" d="m0 0h4v2l5 1v2l5 1 1 5-1 2-4-1v-2l-6-1-2 2z" fill="#B61D4F"/>
<path transform="translate(1183,647)" d="m0 0 2 3 2 9h1v6l2 1-5 1-5-4v-10l2-1z" fill="#FD9C01"/>
<path transform="translate(522,533)" d="m0 0h5v2l6 2 4 4-11 3-6-8v-2z" fill="#FDC42E"/>
<path transform="translate(873,763)" d="m0 0 3 1-6 2-13 3-9 3-11 2-3-3 16-3 12-3z" fill="#99134B"/>
<path transform="translate(1112,729)" d="m0 0 2 1-5 18-2-2-3-13-3-2z" fill="#E84C40"/>
<path transform="translate(1393,299)" d="m0 0 1 2-3 9-17 17-6 4-2-1 13-12 8-9z" fill="#D97322"/>
<path transform="translate(678,156)" d="m0 0 2 1-2 5-3 6-2 5-6 8h-1v-6l6-11z" fill="#FDC52F"/>
<path transform="translate(480,744)" d="m0 0h23l-4 2-18 6-3-1 3-1z" fill="#FCAD11"/>
<path transform="translate(986,1059)" d="m0 0 6 2v4h-25v-2l2-1 15-2h2z" fill="#F6A60B"/>
<path transform="translate(975,435)" d="m0 0 3 2-9 3-1 3-6 3-5-1-2-5z" fill="#D67F28"/>
<path transform="translate(1038,673)" d="m0 0h1l3 16v9h-5v-21z" fill="#E2412C"/>
<path transform="translate(1255,459)" d="m0 0 4 1h-3l2 3 6-2 3 1-1 3-4 2h-5l-1 33h-1z" fill="#F45D16"/>
<path transform="translate(1034,747)" d="m0 0h1v16l-5-5-5-6v-2z" fill="#D72952"/>
<path transform="translate(441,610)" d="m0 0 1 3-1 14-1 3-3-1-3-9 1-5h4v-3h2z" fill="#DB3246"/>
<path transform="translate(1352,580)" d="m0 0 2 3 2-1 4 11 1 2 4 2v7l-2 1v-6l-7-3-2-3-1-7h-2z" fill="#F6A60B"/>
<path transform="translate(108,904)" d="m0 0 8 5 1 4-4 4-2-1-1-7-4-1-3 3 3 5 2 1v2l-4-2-4-4 1-4 3-3z" fill="#F9A106"/>
<path transform="translate(1190,907)" d="m0 0h8l2 2-1 5-3 3-5-1-2-4z" fill="#FEB80C"/>
<path transform="translate(909,755)" d="m0 0 4 1-10 2v2l-17 4h-8l1-2 13-4z" fill="#A4164B"/>
<path transform="translate(1386,330)" d="m0 0 5 2 2 2-1 4-5 4-6-5 2-5z" fill="#FB8B02"/>
<path transform="translate(232,775)" d="m0 0 6 2v2h2l1 4h-6v8l-3-1-3-9v-3h2z" fill="#C52942"/>
<path transform="translate(1441,317)" d="m0 0h1l-1 7-7 7-2 1-1 3-2-4 2-6z" fill="#FD9C01"/>
<path transform="translate(1218,272)" d="m0 0 5 2 1 4-2 1-2 4-7 1 1-9z" fill="#FD9C01"/>
<path transform="translate(831,829)" d="m0 0 1 3v5h9l2-1h7l6-1-1 2-22 5-5-1 1-7z" fill="#C1165B"/>
<path transform="translate(977,757)" d="m0 0 5 1v13l-2-3-3 1-5-5-1-2h2l2-4z" fill="#D22B63"/>
<path transform="translate(252,628)" d="m0 0h7l-5 4-4 2-15 1-7 3-4-1 12-5z" fill="#FDC435"/>
<path transform="translate(462,430)" d="m0 0h7l2 2v7l-3 5h-4l2-10-4-1z" fill="#D83F4C"/>
<path transform="translate(409,354)" d="m0 0h2v2h2l1 4 3 4v14l-2-4-3-1v-6l1-2h-2l-2-8z" fill="#E53F44"/>
<path transform="translate(517,739)" d="m0 0 2 1-10 5-10 3-6 4h-10l3-2 8-4 15-4z" fill="#FCC32F"/>
<path transform="translate(1078,735)" d="m0 0 4 1-3 1 2 9-2 4-3-1-3-6-2-3h2v-3z" fill="#E03B3C"/>
<path transform="translate(975,569)" d="m0 0 3 3 9 23-1 4-7-14-4-11z" fill="#C62B41"/>
<path transform="translate(664,475)" d="m0 0 11 1 5 2-2 3h-2l-2 5-5-5z" fill="#FDB50B"/>
<path transform="translate(512,367)" d="m0 0 5 2 1 5-2 4-1 22h-1z" fill="#FDC42B"/>
<path transform="translate(868,761)" d="m0 0h9l-4 3-21 4-5 1-1-3 8-1 2-2 11-1z" fill="#F8B82D"/>
<path transform="translate(1466,574)" d="m0 0 9 1 1 9-1 2-5-1-4-8z" fill="#FD9C01"/>
<path transform="translate(134,930)" d="m0 0 4 2 5 6-4 4-3-3v-2h-7l2-4z" fill="#FD9C01"/>
<path transform="translate(95,891)" d="m0 0 4 2 5 5-2 4-4 1-1 2v-8l-4-1-3 2 2-4z" fill="#FC9C01"/>
<path transform="translate(1176,643)" d="m0 0 2 2v22h-2l-1-8-2-4 2-11z" fill="#C22745"/>
<path transform="translate(1037,455)" d="m0 0h7l-3 2-3 1-1 15-1 29h-1v-46z" fill="#88094D"/>
<path transform="translate(892,350)" d="m0 0h2v29l-2-3-2-16v-7z" fill="#E19915"/>
<path transform="translate(985,341)" d="m0 0h12l2 9-1 2h-2v-3l-2-1-5-4h-9v-2z" fill="#E09715"/>
<path transform="translate(94,917)" d="m0 0 4 1 3 1 3 5-2 4h-3l-1-8-3 1-2-1v3h-3v5l-3-2 2-5z" fill="#F8A308"/>
<path transform="translate(495,837)" d="m0 0h5l4 4 4 9-5-2-8-5z" fill="#FDC52E"/>
<path transform="translate(883,611)" d="m0 0 1 4-5 17-3 10h-2l3-16 4-13z" fill="#CB4131"/>
<path transform="translate(407,444)" d="m0 0h10l1 2 4 2-1 1h-8v-2l-7 1-3 1-2 4v-7z" fill="#CB3047"/>
<path transform="translate(1247,649)" d="m0 0 6 1v1l-27 6-6 1 1-3z" fill="#CA323A"/>
<path transform="translate(129,933)" d="m0 0 2 1-1 2 6 1 2 4-1 4h-4l-5-5-1-4z" fill="#F9AA09"/>
<path transform="translate(248,633)" d="m0 0 2 1-6 7-4 7-5-4v-2h2l2-4z" fill="#FEFEFD"/>
<path transform="translate(441,613)" d="m0 0h1l1 17 2 9h-2l-1 2-5-6 1-5h2z" fill="#CD1F5C"/>
<path transform="translate(389,462)" d="m0 0h4v6l-1 2-10 1 2-7z" fill="#D73464"/>
<path transform="translate(373,451)" d="m0 0h5l-2 3-1 28-2 2-1-32z" fill="#BC1957"/>
<path transform="translate(461,816)" d="m0 0 5 1 4 4-1 4 1 2-5-2-7-4 2-1z" fill="#FDC631"/>
<path transform="translate(273,734)" d="m0 0 6 1 6 2v2l-8 3-10 2 5-4 2-1z" fill="#C61B5B"/>
<path transform="translate(386,614)" d="m0 0h1l5 25 5 17-1 2-4-8-5-21-1-5z" fill="#FE7D80"/>
<path transform="translate(393,447)" d="m0 0h4v7h-7l-8-2 3-3z" fill="#C6225D"/>
<path transform="translate(782,282)" d="m0 0h2l1 5-3 3-6-1-1 19h-1v-21z" fill="#FDC733"/>
<path transform="translate(945,768)" d="m0 0 5 5-1 5v7l1 5-5-1z" fill="#BE1671"/>
<path transform="translate(1187,692)" d="m0 0h4l-2 12-2 10-1-4v-6l-5-1v-3h2l1-3 4-1 1-2z" fill="#FE7B01"/>
<path transform="translate(582,912)" d="m0 0 2 1-6 8-12 3h-2v-2z" fill="#FDC329"/>
<path transform="translate(1188,459)" d="m0 0h5l-2 2-1 48h-1z" fill="#86084E"/>
<path transform="translate(1383,356)" d="m0 0 6 2 2 2-1 4-2 2h-3v-2l-3-1-1-5z" fill="#F78F05"/>
<path transform="translate(471,865)" d="m0 0h6l2 5-2 5h-3l-4-5z" fill="#FDC631"/>
<path transform="translate(610,675)" d="m0 0 21 6 11 2v1h-9l-14-3-10-4z" fill="#E84F1A"/>
<path transform="translate(951,513)" d="m0 0h4l6 16v4h-2l-5-13-1-3h-2l-1-3z" fill="#B5224A"/>
<path transform="translate(950,745)" d="m0 0h10l-3 4-14 3-4-1 1-2 6-1v-2z" fill="#C42943"/>
<path transform="translate(292,741)" d="m0 0 4 2-4 1-1 2-5 3h-2l-1 3h-4l-2 3v-7l9-2 1-3z" fill="#C42845"/>
<path transform="translate(1341,576)" d="m0 0 4 1-21 6-16 3-4-1 1-1 16-3 14-4z" fill="#961648"/>
<path transform="translate(444,599)" d="m0 0 1 2-4 11h-2v3h-4l1-5 3-6z" fill="#E43E45"/>
<path transform="translate(498,324)" d="m0 0 6 4 3 14 2 6v5l-2-3-6-17-3-6z" fill="#FDC52E"/>
<path transform="translate(3,205)" d="m0 0 2 3v9l2 5h-2v7l-2 3-1-6v-20z" fill="#F6A60B"/>
<path transform="translate(1353,618)" d="m0 0 1 4-3 10-5 5-1-3 2-5 2-2v-3l-2-2 5-3z" fill="#F7A80B"/>
<path transform="translate(421,441)" d="m0 0h5l-1 8-6 1 2-2-4-2v-2h-5v-1z" fill="#E74852"/>
<path transform="translate(1064,752)" d="m0 0 2 1-1 7-2 2h-6l1-6 1-2h5z" fill="#CD1F5C"/>
<path transform="translate(836,573)" d="m0 0 3 4-1 5h-2l-1 8-4 1 1-9 2-3z" fill="#B93039"/>
<path transform="translate(847,538)" d="m0 0 1 3-6 15-2 6-2-3-1-3 4-5 5-12z" fill="#F18A0B"/>
<path transform="translate(1322,444)" d="m0 0h7l-4 2-12 4-14 2h-6l3-2 20-4z" fill="#F88C0B"/>
<path transform="translate(1365,418)" d="m0 0 1 2-13 4h-3v2h-3v2h-2v9h-1v-12l-1-2z" fill="#D56735"/>
<path transform="translate(1413,353)" d="m0 0 5 5 1 2-4 2-7-1v3l-3-1 2-4z" fill="#FE8D00"/>
<path transform="translate(987,805)" d="m0 0h5l-4 2-20 5-6-1 3-2 13-3h7z" fill="#C22253"/>
<path transform="translate(565,601)" d="m0 0 8 1 5 2-2 3-10 1z" fill="#D69B2D"/>
<path transform="translate(1135,392)" d="m0 0 3 1 1 4h1l-1 11-2-3-1 12h-1z" fill="#D47D21"/>
<path transform="translate(976,254)" d="m0 0 4 2v8l-1 1h-6l-1 2 2-9z" fill="#FDC631"/>
<path transform="translate(402,348)" d="m0 0 1 2h2v2l3 1 1 3-3 3-7-3 2-1v-2h-6l4-2 2 1z" fill="#E74247"/>
<path transform="translate(1100,479)" d="m0 0h3l-1 17h-1v-10h-2v-3l-10 1v-2z" fill="#910F51"/>
<path transform="translate(412,419)" d="m0 0h2l-1 4 2 1-3 3v3l-5 2v-4l-3 1 1-3h2v-2l2-1 1-3z" fill="#E54048"/>
<path transform="translate(1323,205)" d="m0 0 4 2-1 4 3 1-9 2-4-1h2l1-5z" fill="#FD9D01"/>
<path transform="translate(1052,742)" d="m0 0 2 2-5 6-2 7-3-1-1-10 8-3z" fill="#E13A52"/>
<path transform="translate(1419,319)" d="m0 0 3 4 4 4 3 2-3 2-4-1-6-6v-3z" fill="#FD9800"/>
<path transform="translate(1213,268)" d="m0 0h9l1 4-9 3-1 3z" fill="#D58F28"/>
<path transform="translate(889,826)" d="m0 0m-3 1 5 1-4 2-25 5v-2l19-5z" fill="#B81B4E"/>
<path transform="translate(343,734)" d="m0 0h9l13 3v1h-14l-7-2z" fill="#C32F41"/>
<path transform="translate(582,599)" d="m0 0h6l-1 10-2 9h-1l-2-7-1-2 1-2h2l2-7z" fill="#F59B08"/>
<path transform="translate(1130,472)" d="m0 0h6l-4 2-26 6h-3l1-2z" fill="#DB8230"/>
<path transform="translate(830,589)" d="m0 0 3 1 1 3h-2l-1 5-4 9-2 1 1-7z" fill="#C53735"/>
<path transform="translate(1030,727)" d="m0 0 3 1-7 3-9 3h-8l-1-2z" fill="#CF402D"/>
<path transform="translate(908,638)" d="m0 0h5v2l-18 5-3-1 3-3z" fill="#C23135"/>
<path transform="translate(337,568)" d="m0 0h3l-1 5-2 1-3-1-7 6 2-4z" fill="#E84B1F"/>
<path transform="translate(908,523)" d="m0 0h6l-1 2h-2l-1 3h-3-12l1-2z" fill="#A41850"/>
<path transform="translate(1300,489)" d="m0 0 3 1-1 2-16 4-6-1 3-2z" fill="#AF1D47"/>
<path transform="translate(670,234)" d="m0 0 2 1-3 8-6 1-3-1v-2z" fill="#FDC42D"/>
<path transform="translate(993,762)" d="m0 0 4 1-1 5-4 2h-3v-7z" fill="#D53562"/>
<path transform="translate(422,594)" d="m0 0 6 1 5 2 3 5-4 1-5-3z" fill="#E4461F"/>
<path transform="translate(1165,325)" d="m0 0h4v3l3 1-9 2h-6l3-5z" fill="#FD9C01"/>
<path transform="translate(1217,691)" d="m0 0 1 2-3 5-2 5-4 3-1 5-2-2v-4l6-5v-8z" fill="#F6A60B"/>
<path transform="translate(931,518)" d="m0 0h6l-2 2-6 2-7 2h-7l2-3z" fill="#991350"/>
<path transform="translate(284,352)" d="m0 0h7v2l-13 2-7 2-1 2v-5z" fill="#A41459"/>
<path transform="translate(75,884)" d="m0 0h6l2 2-1 6-4-1-4-5z" fill="#FBAB09"/>
<path transform="translate(1080,746)" d="m0 0 2 1 1 10-5 1-1-11 2 2z" fill="#CA2C48"/>
<path transform="translate(425,740)" d="m0 0h7l-1 6-3 1-6-3v-3z" fill="#EF4F19"/>
<path transform="translate(513,538)" d="m0 0 4 1 2 3-1 2h5v1l-8 1-3-1-1-5h2z" fill="#EF511F"/>
<path transform="translate(1425,368)" d="m0 0 6 2v3l-4 1v-2l-4-1-1 4 2 2 4 2-3 1-6-4 1-5z" fill="#FD9B00"/>
<path transform="translate(877,637)" d="m0 0 4 2 4 4-5 2h-5l1-6z" fill="#FDC42F"/>
<path transform="translate(446,435)" d="m0 0 2 4-2 1 1 8-1 1h-6l2-6z" fill="#D12C72"/>
<path transform="translate(1343,424)" d="m0 0 2 1v14l-1 1h-6l-1-2 4-4 1-9z" fill="#8A0A4D"/>
<path transform="translate(417,418)" d="m0 0 3 4-2 4-5 3h-2l3-9z" fill="#E33E3F"/>
<path transform="translate(914,753)" d="m0 0h9l-4 3-8 3h-7l2-2 4-2z" fill="#B12048"/>
<path transform="translate(1134,404)" d="m0 0h1l1 11 4-1 2 2h-2l-2 4-2 3h-2z" fill="#E69D1E"/>
<path transform="translate(648,250)" d="m0 0h2l-2 7-5 2-4-1 4-5z" fill="#FDC52E"/>
<path transform="translate(0,912)" d="m0 0 3 1 2 6-3 6h-2z" fill="#F6A60B"/>
<path transform="translate(304,728)" d="m0 0h10l7 2v2l-17-1z" fill="#D0323D"/>
<path transform="translate(1287,640)" d="m0 0 6 1-4 2-13 3-6-1 4-2z" fill="#C52B40"/>
<path transform="translate(932,642)" d="m0 0h4l-1 5-1 2h-5l-4-4z" fill="#E64045"/>
<path transform="translate(595,446)" d="m0 0 8 1v3l-2 2h-7l-1-2z" fill="#E09916"/>
<path transform="translate(140,947)" d="m0 0 4 1 1 3 3 3v4l-4-2-5-4z" fill="#F6A50A"/>
<path transform="translate(1256,490)" d="m0 0 1 4 9 1-1 3-9 2z" fill="#FDA103"/>
<path transform="translate(891,756)" d="m0 0h8l-2 2-9 2-6 2h-3l1-3z" fill="#F6AC28"/>
<path transform="translate(403,590)" d="m0 0h7l-3 3-4 2-7-1v-3z" fill="#DD3A43"/>
<path transform="translate(1142,407)" d="m0 0 5 1v3l1 2-8 2v-7z" fill="#D47D21"/>
<path transform="translate(1381,316)" d="m0 0h2l-2 4-5 6-8 5-2-1 13-12z" fill="#D26E26"/>
<path transform="translate(917,685)" d="m0 0 2 2-5 2-14 3-2-2z" fill="#E4481E"/>
<path transform="translate(1160,669)" d="m0 0m-6 1h6v2l-11 3h-7l1-2 8-2z" fill="#CE392F"/>
<path transform="translate(1333,656)" d="m0 0 5 1v3l-4 4h-2l-2-6z" fill="#EF810C"/>
<path transform="translate(510,550)" d="m0 0 2 4 3 12 1 5h-2l-5-14z" fill="#D64643"/>
<path transform="translate(451,425)" d="m0 0h4l1 3-2 5h-2v2h-2l-1-6z" fill="#BD2252"/>
<path transform="translate(189,1062)" d="m0 0h9l3 1v2h-17l1-2z" fill="#FEB80C"/>
<path transform="translate(957,812)" d="m0 0 4 1-21 5-3-1 5-3z" fill="#CB284F"/>
<path transform="translate(216,757)" d="m0 0h8l1 11-4-4-2-3v-3z" fill="#FDC22F"/>
<path transform="translate(1061,750)" d="m0 0 5 1-1 2-1 1h-5l-2 9-2-2 1-7 2-3z" fill="#D9254D"/>
<path transform="translate(1142,673)" d="m0 0m-2 1 5 1v1l-20 4 1-3z" fill="#D23B2D"/>
<path transform="translate(517,573)" d="m0 0 4 5 7 8 5 4-1 2-10-8-5-7z" fill="#D84949"/>
<path transform="translate(980,245)" d="m0 0h1v18h-1v-7l-3 1-1-4z" fill="#FDBA11"/>
<path transform="translate(1099,180)" d="m0 0 1 2 10-1 2 2 4 2-15-1-2 2h-3l1-5z" fill="#F6A60B"/>
<path transform="translate(893,912)" d="m0 0 3 1-11 9-9 6 2-4 10-8z" fill="#FDC123"/>
<path transform="translate(1e3 800)" d="m0 0h7l-1 3-9 2h-9l3-2 8-2z" fill="#B31457"/>
<path transform="translate(980,766)" d="m0 0h1v17l-3-2v-12z" fill="#AE0D5F"/>
<path transform="translate(405,746)" d="m0 0 12 1 7 2v1h-11l-8-3z" fill="#EC9927"/>
<path transform="translate(1088,740)" d="m0 0h4l1 6-2 7-2-2z" fill="#E84A4C"/>
<path transform="translate(1074,689)" d="m0 0 5 1-4 2-17 4-3-1 3-2z" fill="#D53C2D"/>
<path transform="translate(338,341)" d="m0 0h3v10l-1 14h-1l-1-20-2-2z" fill="#BE2D62"/>
<path transform="translate(1071,295)" d="m0 0 2 1v15l-3-2v-11z" fill="#E19915"/>
<path transform="translate(1336,278)" d="m0 0h4l1 6-2 6-3-2z" fill="#DF4927"/>
<path transform="translate(69,891)" d="m0 0 3 1-1 3-5 2-1 2 1 5-5-4 2-4z" fill="#FC9B02"/>
<path transform="translate(1314,634)" d="m0 0 5 1-4 2-13 3-5-1 3-2z" fill="#C52B40"/>
<path transform="translate(112,907)" d="m0 0 4 2 1 4-4 4-2-1-1-6z" fill="#F6A60B"/>
<path transform="translate(29,918)" d="m0 0h2l1 3-2 3 3 1-2 3-5 1 1-7v-3z" fill="#F6A60B"/>
<path transform="translate(854,835)" d="m0 0 2 1-9 3-5 1h-7l2-3 6-1h7z" fill="#BA1657"/>
<path transform="translate(1283,589)" d="m0 0 4 1-7 3-11 2-4-1 1-1 9-2z" fill="#9C1E43"/>
<path transform="translate(1373,343)" d="m0 0 4 2 2 5-4 1 1-3-5 1-1-4z" fill="#D57F20"/>
<path transform="translate(1218,312)" d="m0 0 4 4-1 3-8 1v-2l3-2z" fill="#E09815"/>
<path transform="translate(285,545)" d="m0 0 6 2 11 5-4 1-9-2-1-3-3-1z" fill="#FDC32A"/>
<path transform="translate(408,448)" d="m0 0h3v2h6v1l-5 1-1 5-2-3-1-2-4 2 1-4h3z" fill="#ED5256"/>
<path transform="translate(640,255)" d="m0 0 2 1-10 9-5 2v-3l12-8z" fill="#FDC124"/>
<path transform="translate(304,759)" d="m0 0 4 1 3 5 1 5-2 2z" fill="#FDC733"/>
<path transform="translate(973,571)" d="m0 0 3 4 6 15-1 2-6-12z" fill="#C93634"/>
<path transform="translate(564,529)" d="m0 0 8 1 2 2-2 2h-6l-3-4z" fill="#E49C14"/>
<path transform="translate(401,466)" d="m0 0h1l1 12h5l1 2-8 1z" fill="#D3264B"/>
<path transform="translate(321,432)" d="m0 0 3 1v2h2l-2 4-5 1 1-7z" fill="#C0145C"/>
<path transform="translate(93,895)" d="m0 0 4 2v5l-3 1-4-4z" fill="#FEB80C"/>
<path transform="translate(330,845)" d="m0 0v3l-12 13-1-2 3-4h2l2-4z" fill="#BA204C"/>
<path transform="translate(834,806)" d="m0 0h1v9l-1 5-4 3 1-7z" fill="#960A53"/>
<path transform="translate(1118,739)" d="m0 0 2 3-1 10-4 4 1-9z" fill="#D4394F"/>
<path transform="translate(1079,740)" d="m0 0 2 3-1 7-4-1-1-6z" fill="#E03856"/>
<path transform="translate(385,711)" d="m0 0h3l2 4 9 10-1 2-7-7-6-7z" fill="#CD2A46"/>
<path transform="translate(462,430)" d="m0 0h7l1 4-3 3v-3l-5-1z" fill="#D22E4B"/>
<path transform="translate(983,378)" d="m0 0 3 1-2 3v3l-4 1-1-3-2-2z" fill="#D9952D"/>
<path transform="translate(1090,735)" d="m0 0h5l-1 7-2 1v-3l-4-1z" fill="#CF3C3B"/>
<path transform="translate(770,706)" d="m0 0h1v7l-4 10h-1l1-8z" fill="#E0591E"/>
<path transform="translate(440,615)" d="m0 0h1v12l-1 3-3-1-2-6h4z" fill="#DA254E"/>
<path transform="translate(1317,485)" d="m0 0h6v2l-13 3-2-1 5-3z" fill="#AE1451"/>
<path transform="translate(1264,458)" d="m0 0 4 1-1 2-10 3-1-4z" fill="#FD9C01"/>
<path transform="translate(462,412)" d="m0 0h2l-1 5-3 6h-1v-8l-2-1z" fill="#CE395A"/>
<path transform="translate(1217,907)" d="m0 0 4 2 1 4-5 1-2-5z" fill="#FD9C01"/>
<path transform="translate(396,658)" d="m0 0h2l5 13-4-2-1-4h-2z" fill="#FC797C"/>
<path transform="translate(1175,616)" d="m0 0h3v3l-10 2-3-1h2v-2z" fill="#A31F45"/>
<path transform="translate(883,611)" d="m0 0 1 4-3 10-2-2 2-10z" fill="#CB4530"/>
<path transform="translate(573,532)" d="m0 0 4 1 3 10 3 3-1 2-5-4-2-10z" fill="#FDB30A"/>
<path transform="translate(355,360)" d="m0 0 2 2-1 7-1 6-3-1 2-10z" fill="#D53364"/>
<path transform="translate(909,755)" d="m0 0 4 1-10 2v2h-7l1-3z" fill="#96124B"/>
<path transform="translate(1099,745)" d="m0 0h2l1 2v8h-4z" fill="#C63052"/>
<path transform="translate(978,739)" d="m0 0h9l-2 1v2l-6 2h-5l3-3z" fill="#C32A43"/>
<path transform="translate(920,635)" d="m0 0h6l-1 2-7 2-7-1 4-2z" fill="#CA4231"/>
<path transform="translate(982,585)" d="m0 0 2 2 3 8-1 4-6-12z" fill="#C9303D"/>
<path transform="translate(900,562)" d="m0 0 2 1 1 9-1-2-4 1 1-8z" fill="#FDBD25"/>
<path transform="translate(441,420)" d="m0 0 3 1-1 5-4 2-1-4z" fill="#FEFEFD"/>
<path transform="translate(1203,322)" d="m0 0 5 1-2 5-1 14h-1z" fill="#D47D21"/>
<path transform="translate(102,934)" d="m0 0 2 1-1 4 3 1 2 4-1 3-7-8z" fill="#F7A409"/>
<path transform="translate(825,773)" d="m0 0h7l-4 4-1 3h-2l-2-6z" fill="#910E4B"/>
<path transform="translate(868,761)" d="m0 0h9l-4 3-10 1z" fill="#F3A726"/>
<path transform="translate(296,728)" d="m0 0 8 1-2 4h-5z" fill="#AE1750"/>
<path transform="translate(926,621)" d="m0 0 5 4-1 9-2-4z" fill="#E34229"/>
<path transform="translate(1488,586)" d="m0 0 2 1v2h-2l-1 3-5 1-2-2 5-4z" fill="#FD9C01"/>
<path transform="translate(463,434)" d="m0 0h3v5l-2 2-4-1 2-5z" fill="#FEFEFD"/>
<path transform="translate(1186,177)" d="m0 0h7l1 2-6 1-3 3-1 3-2-1 2-7z" fill="#FD9C01"/>
<path transform="translate(286,869)" d="m0 0h6l3 3 1 4h-2v-2l-4-1z" fill="#EA4C20"/>
<path transform="translate(1024,762)" d="m0 0 4 4-1 7-3-1z" fill="#C41E5F"/>
<path transform="translate(280,747)" d="m0 0 4 1-1 4h-4l-2 3v-7z" fill="#CC1E5B"/>
<path transform="translate(625,680)" d="m0 0 6 1 11 2v1h-9l-7-1z" fill="#E44D1E"/>
<path transform="translate(1348,564)" d="m0 0 1 4-3 1 3 6h-3l-3-4 1-4z" fill="#F6A60B"/>
<path transform="translate(1410,326)" d="m0 0 3 1-4 4-2-1-1 4-2 1v-5l3-1v-2z" fill="#FD9C01"/>
<path transform="translate(955,251)" d="m0 0h2l2 6h-2l-1 13h-1z" fill="#FDC328"/>
<path transform="translate(644,210)" d="m0 0v3l-9 13-2-1 6-9z" fill="#FDB90E"/>
<path transform="translate(56,878)" d="m0 0 3 1 2 4-8 1-3 2 2-4 4-2z" fill="#FD9C01"/>
<path transform="translate(777,747)" d="m0 0 1 4-1 6v3h-4l1-5z" fill="#E4461F"/>
<path transform="translate(1247,649)" d="m0 0 6 1v1l-9 2h-7l2-2z" fill="#C12A43"/>
<path transform="translate(864,496)" d="m0 0h2v2l-2 1-2 7h-2l-1 2v-6z" fill="#9A194B"/>
<path transform="translate(1364,331)" d="m0 0v3l-6 5-3-1v-2z" fill="#D36E2A"/>
<path transform="translate(61,884)" d="m0 0h2l1 4-4 4-2-1 1-6z" fill="#FD9C01"/>
<path transform="translate(1154,764)" d="m0 0m-1 1m-1 1m-4 1 7 1v1l-9 2-4-1z" fill="#D03A2F"/>
<path transform="translate(1086,686)" d="m0 0h4v2l-7 2h-7l2-2z" fill="#CE3930"/>
<path transform="translate(1101,619)" d="m0 0h1v14l6 1-1 2h-6l-1-3z" fill="#C52942"/>
<path transform="translate(308,616)" d="m0 0 2 1 1 4h-8l1-4z" fill="#E64045"/>
<path transform="translate(423,608)" d="m0 0 5 1v2l6 1 1 4-9-4v-2l-3-1z" fill="#E03636"/>
<path transform="translate(1058,289)" d="m0 0 10 1v5l-6-2z" fill="#F6A60B"/>
<path transform="translate(1197,869)" d="m0 0 4 2-2 4-4-1-1-3z" fill="#FF8C00"/>
<path transform="translate(930,816)" d="m0 0h9l-2 2-11 2v-2z" fill="#AC1156"/>
<path transform="translate(1044,791)" d="m0 0h11l-4 2-12 2v-2z" fill="#CF313E"/>
<path transform="translate(504,740)" d="m0 0h8l-3 3-4 1h-7v-1h6z" fill="#C12843"/>
<path transform="translate(986,737)" d="m0 0h8l-3 4h-6l-2-3z" fill="#CA3B34"/>
<path transform="translate(891,691)" d="m0 0h9l-4 2-10 2 1-3z" fill="#E5471F"/>
<path transform="translate(450,592)" d="m0 0 2 1v2h-2l-1 4-1 2h-3l2-6z" fill="#C12646"/>
<path transform="translate(421,441)" d="m0 0 3 1-4 2v3l-3-1v-2h-5v-1z" fill="#EC5257"/>
<path transform="translate(613,274)" d="m0 0m-1 1m-2 1h2l-2 4-2 3h-5l5-5z" fill="#FDC42D"/>
<path transform="translate(603,260)" d="m0 0h2l-1 5-3 5-2-4z" fill="#FDC733"/>
<path transform="translate(1214,243)" d="m0 0h7l-1 4h-6z" fill="#E19915"/>
<path transform="translate(1054,788)" d="m0 0 10 1v1l-5 1h-8z" fill="#C42846"/>
<path transform="translate(818,628)" d="m0 0 1 3-4 9-2 1 3-11z" fill="#CD422E"/>
<path transform="translate(310,596)" d="m0 0v3 3l-6 3h-3z" fill="#C93634"/>
<path transform="translate(814,421)" d="m0 0h1l1 16-2 1-1-12z" fill="#F6A60B"/>
<path transform="translate(1399,370)" d="m0 0 4 2v4l-4 2z" fill="#FE9000"/>
<path transform="translate(1145)" d="m0 0h9v2l-6 2-3-2z" fill="#FD9C01"/>
</svg>
